<ttFont>
    <TTGlyph name="A" xMin="35" yMin="0" xMax="1061" yMax="1456">
      <contour>
        <pt x="814" y="404" on="1"/>
        <pt x="283" y="404" on="1"/>
        <pt x="159" y="0" on="1"/>
        <pt x="35" y="0" on="1"/>
        <pt x="496" y="1456" on="1"/>
        <pt x="605" y="1456" on="1"/>
        <pt x="1061" y="0" on="1"/>
        <pt x="937" y="0" on="1"/>
      </contour>
      <contour>
        <pt x="317" y="514" on="1"/>
        <pt x="781" y="514" on="1"/>
        <pt x="553" y="1263" on="1"/>
        <pt x="547" y="1263" on="1"/>
      </contour>
    </TTGlyph>
    <TTGlyph name="A.smcp" xMin="49" yMin="0" xMax="946" yMax="1165">
      <contour>
        <pt x="723" y="301" on="1"/>
        <pt x="272" y="301" on="1"/>
        <pt x="174" y="0" on="1"/>
        <pt x="49" y="0" on="1"/>
        <pt x="440" y="1165" on="1"/>
        <pt x="556" y="1165" on="1"/>
        <pt x="946" y="0" on="1"/>
        <pt x="821" y="0" on="1"/>
      </contour>
      <contour>
        <pt x="306" y="405" on="1"/>
        <pt x="689" y="405" on="1"/>
        <pt x="500" y="986" on="1"/>
        <pt x="494" y="986" on="1"/>
      </contour>
    </TTGlyph>
    <TTGlyph name="AE" xMin="13" yMin="0" xMax="1538" yMax="1456">
      <contour>
        <pt x="1538" y="0" on="1"/>
        <pt x="839" y="0" on="1"/>
        <pt x="825" y="387" on="1"/>
        <pt x="347" y="387" on="1"/>
        <pt x="160" y="0" on="1"/>
        <pt x="13" y="0" on="1"/>
        <pt x="743" y="1456" on="1"/>
        <pt x="1487" y="1456" on="1"/>
        <pt x="1487" y="1350" on="1"/>
        <pt x="912" y="1350" on="1"/>
        <pt x="931" y="810" on="1"/>
        <pt x="1419" y="810" on="1"/>
        <pt x="1419" y="706" on="1"/>
        <pt x="935" y="706" on="1"/>
        <pt x="956" y="104" on="1"/>
        <pt x="1538" y="104" on="1"/>
      </contour>
      <contour>
        <pt x="403" y="503" on="1"/>
        <pt x="821" y="503" on="1"/>
        <pt x="794" y="1292" on="1"/>
        <pt x="788" y="1292" on="1"/>
        <pt x="789" y="1298" on="1"/>
      </contour>
    </TTGlyph>
    <TTGlyph name="AEacute" xMin="13" yMin="0" xMax="1538" yMax="1823">
      <component glyphName="AE" x="0" y="0" flags="0x204"/>
      <component glyphName="acute" x="612" y="345" flags="0x4"/>
    </TTGlyph>
    <TTGlyph name="Aacute" xMin="35" yMin="0" xMax="1061" yMax="1823">
      <component glyphName="A" x="0" y="0" flags="0x204"/>
      <component glyphName="acute" x="387" y="345" flags="0x4"/>
    </TTGlyph>
    <TTGlyph name="Aacute.smcp" xMin="49" yMin="0" xMax="946" yMax="1500">
      <component glyphName="A.smcp" x="0" y="0" flags="0x204"/>
      <component glyphName="acute" x="312" y="22" flags="0x4"/>
    </TTGlyph>
    <TTGlyph name="Abreve" xMin="35" yMin="0" xMax="1061" yMax="1855">
      <component glyphName="A" x="0" y="0" flags="0x204"/>
      <component glyphName="breve" x="187" y="399" flags="0x4"/>
    </TTGlyph>
    <TTGlyph name="Abreve.smcp" xMin="49" yMin="0" xMax="946" yMax="1532">
      <component glyphName="A.smcp" x="0" y="0" flags="0x204"/>
      <component glyphName="breve" x="112" y="76" flags="0x4"/>
    </TTGlyph>
    <TTGlyph name="Acircumflex" xMin="35" yMin="0" xMax="1061" yMax="1844">
      <component glyphName="A" x="0" y="0" flags="0x204"/>
      <component glyphName="circumflex" x="188" y="349" flags="0x4"/>
    </TTGlyph>
    <TTGlyph name="Acircumflex.smcp" xMin="49" yMin="0" xMax="946" yMax="1521">
      <component glyphName="A.smcp" x="0" y="0" flags="0x204"/>
      <component glyphName="circumflex" x="113" y="26" flags="0x4"/>
    </TTGlyph>
    <TTGlyph name="Adieresis" xMin="35" yMin="0" xMax="1061" yMax="1798">
      <component glyphName="A" x="0" y="0" flags="0x204"/>
      <component glyphName="dieresis" x="134" y="342" flags="0x4"/>
    </TTGlyph>
    <TTGlyph name="Adieresis.smcp" xMin="49" yMin="0" xMax="946" yMax="1475">
      <component glyphName="A.smcp" x="0" y="0" flags="0x204"/>
      <component glyphName="dieresis" x="59" y="19" flags="0x4"/>
    </TTGlyph>
    <TTGlyph name="Agrave" xMin="35" yMin="0" xMax="1061" yMax="1827">
      <component glyphName="A" x="0" y="0" flags="0x204"/>
      <component glyphName="grave" x="222" y="351" flags="0x4"/>
    </TTGlyph>
    <TTGlyph name="Agrave.smcp" xMin="49" yMin="0" xMax="946" yMax="1504">
      <component glyphName="A.smcp" x="0" y="0" flags="0x204"/>
      <component glyphName="grave" x="147" y="28" flags="0x4"/>
    </TTGlyph>
    <TTGlyph name="Alpha" xMin="35" yMin="0" xMax="1061" yMax="1456">
      <component glyphName="A" x="0" y="0" flags="0x204"/>
    </TTGlyph>
    <TTGlyph name="Alphatonos" xMin="35" yMin="0" xMax="1061" yMax="1618">
      <component glyphName="A" x="0" y="0" flags="0x204"/>
      <component glyphName="tonos" x="19" y="0" flags="0x4"/>
    </TTGlyph>
    <TTGlyph name="Amacron" xMin="35" yMin="0" xMax="1061" yMax="1786">
      <component glyphName="A" x="0" y="0" flags="0x204"/>
      <component glyphName="macron" x="167" y="330" flags="0x4"/>
    </TTGlyph>
    <TTGlyph name="Amacron.smcp" xMin="49" yMin="0" xMax="946" yMax="1463">
      <component glyphName="A.smcp" x="0" y="0" flags="0x204"/>
      <component glyphName="macron" x="92" y="7" flags="0x4"/>
    </TTGlyph>
    <TTGlyph name="Aogonek" xMin="35" yMin="-394" xMax="1107" yMax="1456">
      <component glyphName="A" x="0" y="0" flags="0x204"/>
      <component glyphName="ogonek" x="739" y="0" flags="0x4"/>
    </TTGlyph>
    <TTGlyph name="Aogonek.smcp" xMin="49" yMin="-394" xMax="988" yMax="1165">
      <component glyphName="A.smcp" x="0" y="0" flags="0x204"/>
      <component glyphName="ogonek" x="620" y="0" flags="0x4"/>
    </TTGlyph>
    <TTGlyph name="Aring" xMin="35" yMin="0" xMax="1061" yMax="1899">
      <component glyphName="A" x="0" y="0" flags="0x204"/>
      <component glyphName="ring" x="263" y="408" flags="0x4"/>
    </TTGlyph>
    <TTGlyph name="Aring.smcp" xMin="49" yMin="0" xMax="946" yMax="1576">
      <component glyphName="A.smcp" x="0" y="0" flags="0x204"/>
      <component glyphName="ring" x="188" y="85" flags="0x4"/>
    </TTGlyph>
    <TTGlyph name="Aringacute" xMin="35" yMin="0" xMax="1061" yMax="2082">
      <component glyphName="A" x="0" y="0" flags="0x204"/>
      <component glyphName="ringacute" x="288" y="394" flags="0x4"/>
    </TTGlyph>
    <TTGlyph name="Aringacute.smcp" xMin="49" yMin="0" xMax="946" yMax="1759">
      <component glyphName="A.smcp" x="0" y="0" flags="0x204"/>
      <component glyphName="ringacute" x="213" y="71" flags="0x4"/>
    </TTGlyph>
    <TTGlyph name="Atilde" xMin="35" yMin="0" xMax="1061" yMax="1844">
      <component glyphName="A" x="0" y="0" flags="0x204"/>
      <component glyphName="tilde" x="181" y="342" flags="0x4"/>
    </TTGlyph>
    <TTGlyph name="Atilde.smcp" xMin="49" yMin="0" xMax="946" yMax="1521">
      <component glyphName="A.smcp" x="0" y="0" flags="0x204"/>
      <component glyphName="tilde" x="106" y="19" flags="0x4"/>
    </TTGlyph>
    <TTGlyph name="B" xMin="164" yMin="0" xMax="980" yMax="1456">
      <contour>
        <pt x="164" y="0" on="1"/>
        <pt x="164" y="1456" on="1"/>
        <pt x="530" y="1456" on="1"/>
        <pt x="718" y="1456" on="0"/>
        <pt x="930" y="1264" on="0"/>
        <pt x="930" y="1072" on="1"/>
        <pt x="930" y="962" on="0"/>
        <pt x="820" y="797" on="0"/>
        <pt x="729" y="764" on="1"/>
        <pt x="842" y="741" on="0"/>
        <pt x="980" y="539" on="0"/>
        <pt x="980" y="405" on="1"/>
        <pt x="980" y="209" on="0"/>
        <pt x="769" y="0" on="0"/>
        <pt x="590" y="0" on="1"/>
      </contour>
      <contour>
        <pt x="284" y="701" on="1"/>
        <pt x="284" y="104" on="1"/>
        <pt x="590" y="104" on="1"/>
        <pt x="717" y="104" on="0"/>
        <pt x="860" y="261" on="0"/>
        <pt x="860" y="403" on="1"/>
        <pt x="860" y="535" on="0"/>
        <pt x="733" y="701" on="0"/>
        <pt x="609" y="701" on="1"/>
      </contour>
      <contour>
        <pt x="284" y="804" on="1"/>
        <pt x="568" y="804" on="1"/>
        <pt x="681" y="807" on="0"/>
        <pt x="809" y="946" on="0"/>
        <pt x="809" y="1076" on="1"/>
        <pt x="809" y="1212" on="0"/>
        <pt x="666" y="1350" on="0"/>
        <pt x="530" y="1350" on="1"/>
        <pt x="284" y="1350" on="1"/>
      </contour>
    </TTGlyph>
    <TTGlyph name="B.smcp" xMin="144" yMin="0" xMax="853" yMax="1165">
      <contour>
        <pt x="144" y="0" on="1"/>
        <pt x="144" y="1165" on="1"/>
        <pt x="459" y="1165" on="1"/>
        <pt x="630" y="1165" on="0"/>
        <pt x="820" y="1010" on="0"/>
        <pt x="820" y="855" on="1"/>
        <pt x="820" y="765" on="0"/>
        <pt x="732" y="627" on="0"/>
        <pt x="654" y="598" on="1"/>
        <pt x="745" y="577" on="0"/>
        <pt x="853" y="423" on="0"/>
        <pt x="853" y="321" on="1"/>
        <pt x="853" y="164" on="0"/>
        <pt x="674" y="0" on="0"/>
        <pt x="517" y="0" on="1"/>
      </contour>
      <contour>
        <pt x="264" y="541" on="1"/>
        <pt x="264" y="102" on="1"/>
        <pt x="517" y="102" on="1"/>
        <pt x="621" y="102" on="0"/>
        <pt x="733" y="216" on="0"/>
        <pt x="733" y="323" on="1"/>
        <pt x="733" y="420" on="0"/>
        <pt x="625" y="538" on="0"/>
        <pt x="527" y="541" on="1"/>
        <pt x="517" y="541" on="1"/>
      </contour>
      <contour>
        <pt x="264" y="639" on="1"/>
        <pt x="459" y="639" on="1"/>
        <pt x="577" y="639" on="0"/>
        <pt x="699" y="747" on="0"/>
        <pt x="699" y="851" on="1"/>
        <pt x="699" y="956" on="0"/>
        <pt x="580" y="1051" on="0"/>
        <pt x="459" y="1051" on="1"/>
        <pt x="264" y="1051" on="1"/>
      </contour>
    </TTGlyph>
    <TTGlyph name="Beta" xMin="164" yMin="0" xMax="980" yMax="1456">
      <component glyphName="B" x="0" y="0" flags="0x204"/>
    </TTGlyph>
    <TTGlyph name="C" xMin="110" yMin="-21" xMax="962" yMax="1477">
      <contour>
        <pt x="959" y="423" on="1"/>
        <pt x="962" y="417" on="1"/>
        <pt x="960" y="204" on="0"/>
        <pt x="740" y="-21" on="0"/>
        <pt x="547" y="-21" on="1"/>
        <pt x="346" y="-21" on="0"/>
        <pt x="110" y="263" on="0"/>
        <pt x="110" y="526" on="1"/>
        <pt x="110" y="929" on="1"/>
        <pt x="110" y="1190" on="0"/>
        <pt x="347" y="1477" on="0"/>
        <pt x="547" y="1477" on="1"/>
        <pt x="742" y="1477" on="0"/>
        <pt x="960" y="1257" on="0"/>
        <pt x="962" y="1039" on="1"/>
        <pt x="959" y="1033" on="1"/>
        <pt x="848" y="1033" on="1"/>
        <pt x="843" y="1206" on="0"/>
        <pt x="693" y="1371" on="0"/>
        <pt x="547" y="1371" on="1"/>
        <pt x="397" y="1371" on="0"/>
        <pt x="229" y="1145" on="0"/>
        <pt x="229" y="932" on="1"/>
        <pt x="229" y="526" on="1"/>
        <pt x="229" y="309" on="0"/>
        <pt x="397" y="83" on="0"/>
        <pt x="547" y="83" on="1"/>
        <pt x="693" y="83" on="0"/>
        <pt x="843" y="244" on="0"/>
        <pt x="848" y="423" on="1"/>
      </contour>
    </TTGlyph>
    <TTGlyph name="C.smcp" xMin="110" yMin="-17" xMax="874" yMax="1181">
      <contour>
        <pt x="868" y="369" on="1"/>
        <pt x="871" y="363" on="1"/>
        <pt x="874" y="179" on="0"/>
        <pt x="668" y="-17" on="0"/>
        <pt x="499" y="-17" on="1"/>
        <pt x="328" y="-17" on="0"/>
        <pt x="110" y="249" on="0"/>
        <pt x="110" y="461" on="1"/>
        <pt x="110" y="704" on="1"/>
        <pt x="110" y="915" on="0"/>
        <pt x="328" y="1181" on="0"/>
        <pt x="499" y="1181" on="1"/>
        <pt x="671" y="1181" on="0"/>
        <pt x="874" y="984" on="0"/>
        <pt x="871" y="801" on="1"/>
        <pt x="868" y="795" on="1"/>
        <pt x="755" y="795" on="1"/>
        <pt x="755" y="934" on="0"/>
        <pt x="621" y="1077" on="0"/>
        <pt x="499" y="1077" on="1"/>
        <pt x="380" y="1077" on="0"/>
        <pt x="230" y="868" on="0"/>
        <pt x="230" y="705" on="1"/>
        <pt x="230" y="461" on="1"/>
        <pt x="230" y="295" on="0"/>
        <pt x="380" y="86" on="0"/>
        <pt x="499" y="86" on="1"/>
        <pt x="621" y="86" on="0"/>
        <pt x="755" y="226" on="0"/>
        <pt x="755" y="369" on="1"/>
      </contour>
    </TTGlyph>
    <TTGlyph name="Cacute" xMin="110" yMin="-21" xMax="962" yMax="1844">
      <component glyphName="C" x="0" y="0" flags="0x204"/>
      <component glyphName="acute" x="368" y="366" flags="0x4"/>
    </TTGlyph>
    <TTGlyph name="Cacute.smcp" xMin="110" yMin="-17" xMax="874" yMax="1516">
      <component glyphName="C.smcp" x="0" y="0" flags="0x204"/>
      <component glyphName="acute" x="304" y="38" flags="0x4"/>
    </TTGlyph>
    <TTGlyph name="Ccaron" xMin="110" yMin="-21" xMax="962" yMax="1867">
      <component glyphName="C" x="0" y="0" flags="0x204"/>
      <component glyphName="caron" x="186" y="372" flags="0x4"/>
    </TTGlyph>
    <TTGlyph name="Ccaron.smcp" xMin="110" yMin="-17" xMax="874" yMax="1539">
      <component glyphName="C.smcp" x="0" y="0" flags="0x204"/>
      <component glyphName="caron" x="122" y="44" flags="0x4"/>
    </TTGlyph>
    <TTGlyph name="Ccedilla" xMin="110" yMin="-443" xMax="962" yMax="1477">
      <component glyphName="C" x="0" y="0" flags="0x204"/>
      <component glyphName="cedilla" x="374" y="-8" flags="0x4"/>
    </TTGlyph>
    <TTGlyph name="Ccedilla.smcp" xMin="110" yMin="-440" xMax="874" yMax="1181">
      <component glyphName="C.smcp" x="0" y="0" flags="0x204"/>
      <component glyphName="cedilla" x="310" y="-5" flags="0x4"/>
    </TTGlyph>
    <TTGlyph name="Ccircumflex" xMin="110" yMin="-21" xMax="962" yMax="1865">
      <component glyphName="C" x="0" y="0" flags="0x204"/>
      <component glyphName="circumflex" x="169" y="370" flags="0x4"/>
    </TTGlyph>
    <TTGlyph name="Ccircumflex.smcp" xMin="110" yMin="-17" xMax="874" yMax="1537">
      <component glyphName="C.smcp" x="0" y="0" flags="0x204"/>
      <component glyphName="circumflex" x="105" y="42" flags="0x4"/>
    </TTGlyph>
    <TTGlyph name="Chi" xMin="59" yMin="0" xMax="1015" yMax="1456">
      <component glyphName="X" x="0" y="0" flags="0x204"/>
    </TTGlyph>
    <TTGlyph name="D" xMin="164" yMin="0" xMax="1036" yMax="1456">
      <contour>
        <pt x="164" y="0" on="1"/>
        <pt x="164" y="1456" on="1"/>
        <pt x="521" y="1456" on="1"/>
        <pt x="748" y="1456" on="0"/>
        <pt x="1036" y="1100" on="0"/>
        <pt x="1036" y="821" on="1"/>
        <pt x="1036" y="633" on="1"/>
        <pt x="1036" y="353" on="0"/>
        <pt x="748" y="0" on="0"/>
        <pt x="521" y="0" on="1"/>
      </contour>
      <contour>
        <pt x="284" y="1350" on="1"/>
        <pt x="284" y="104" on="1"/>
        <pt x="521" y="104" on="1"/>
        <pt x="697" y="104" on="0"/>
        <pt x="916" y="402" on="0"/>
        <pt x="916" y="633" on="1"/>
        <pt x="916" y="824" on="1"/>
        <pt x="916" y="1053" on="0"/>
        <pt x="697" y="1350" on="0"/>
        <pt x="521" y="1350" on="1"/>
      </contour>
    </TTGlyph>
    <TTGlyph name="D.smcp" xMin="144" yMin="0" xMax="882" yMax="1165">
      <contour>
        <pt x="144" y="0" on="1"/>
        <pt x="144" y="1165" on="1"/>
        <pt x="479" y="1165" on="1"/>
        <pt x="649" y="1165" on="0"/>
        <pt x="882" y="896" on="0"/>
        <pt x="882" y="687" on="1"/>
        <pt x="882" y="477" on="1"/>
        <pt x="882" y="268" on="0"/>
        <pt x="649" y="0" on="0"/>
        <pt x="479" y="0" on="1"/>
      </contour>
      <contour>
        <pt x="264" y="1061" on="1"/>
        <pt x="264" y="102" on="1"/>
        <pt x="479" y="102" on="1"/>
        <pt x="597" y="102" on="0"/>
        <pt x="761" y="316" on="0"/>
        <pt x="761" y="477" on="1"/>
        <pt x="761" y="688" on="1"/>
        <pt x="761" y="847" on="0"/>
        <pt x="597" y="1061" on="0"/>
        <pt x="479" y="1061" on="1"/>
      </contour>
    </TTGlyph>
    <TTGlyph name="Dcaron" xMin="164" yMin="0" xMax="1036" yMax="1846">
      <component glyphName="D" x="0" y="0" flags="0x204"/>
      <component glyphName="caron" x="150" y="351" flags="0x4"/>
    </TTGlyph>
    <TTGlyph name="Dcaron.smcp" xMin="144" yMin="0" xMax="882" yMax="1523">
      <component glyphName="D.smcp" x="0" y="0" flags="0x204"/>
      <component glyphName="caron" x="52" y="28" flags="0x4"/>
    </TTGlyph>
    <TTGlyph name="Dcroat" xMin="63" yMin="0" xMax="1066" yMax="1456">
      <contour>
        <pt x="194" y="0" on="1"/>
        <pt x="194" y="688" on="1"/>
        <pt x="63" y="688" on="1"/>
        <pt x="63" y="792" on="1"/>
        <pt x="194" y="792" on="1"/>
        <pt x="194" y="1456" on="1"/>
        <pt x="551" y="1456" on="1"/>
        <pt x="778" y="1456" on="0"/>
        <pt x="1066" y="1100" on="0"/>
        <pt x="1066" y="821" on="1"/>
        <pt x="1066" y="633" on="1"/>
        <pt x="1066" y="353" on="0"/>
        <pt x="778" y="0" on="0"/>
        <pt x="551" y="0" on="1"/>
      </contour>
      <contour>
        <pt x="578" y="688" on="1"/>
        <pt x="314" y="688" on="1"/>
        <pt x="314" y="104" on="1"/>
        <pt x="551" y="104" on="1"/>
        <pt x="727" y="104" on="0"/>
        <pt x="946" y="402" on="0"/>
        <pt x="946" y="633" on="1"/>
        <pt x="946" y="824" on="1"/>
        <pt x="946" y="1053" on="0"/>
        <pt x="727" y="1350" on="0"/>
        <pt x="551" y="1350" on="1"/>
        <pt x="314" y="1350" on="1"/>
        <pt x="314" y="792" on="1"/>
        <pt x="578" y="792" on="1"/>
      </contour>
    </TTGlyph>
    <TTGlyph name="Dcroat.smcp" xMin="-5" yMin="0" xMax="882" yMax="1165">
      <contour>
        <pt x="144" y="0" on="1"/>
        <pt x="144" y="541" on="1"/>
        <pt x="-5" y="541" on="1"/>
        <pt x="-5" y="645" on="1"/>
        <pt x="144" y="645" on="1"/>
        <pt x="144" y="1165" on="1"/>
        <pt x="479" y="1165" on="1"/>
        <pt x="649" y="1165" on="0"/>
        <pt x="882" y="896" on="0"/>
        <pt x="882" y="687" on="1"/>
        <pt x="882" y="477" on="1"/>
        <pt x="882" y="268" on="0"/>
        <pt x="649" y="0" on="0"/>
        <pt x="479" y="0" on="1"/>
      </contour>
      <contour>
        <pt x="510" y="541" on="1"/>
        <pt x="264" y="541" on="1"/>
        <pt x="264" y="102" on="1"/>
        <pt x="479" y="102" on="1"/>
        <pt x="597" y="102" on="0"/>
        <pt x="761" y="316" on="0"/>
        <pt x="761" y="477" on="1"/>
        <pt x="761" y="688" on="1"/>
        <pt x="761" y="847" on="0"/>
        <pt x="597" y="1061" on="0"/>
        <pt x="479" y="1061" on="1"/>
        <pt x="264" y="1061" on="1"/>
        <pt x="264" y="645" on="1"/>
        <pt x="510" y="645" on="1"/>
      </contour>
    </TTGlyph>
    <TTGlyph name="Delta" xMin="42" yMin="0" xMax="1152" yMax="1456">
      <contour>
        <pt x="662" y="1456" on="1"/>
        <pt x="1152" y="0" on="1"/>
        <pt x="42" y="0" on="1"/>
        <pt x="553" y="1456" on="1"/>
      </contour>
      <contour>
        <pt x="201" y="104" on="1"/>
        <pt x="994" y="104" on="1"/>
        <pt x="609" y="1272" on="1"/>
        <pt x="603" y="1272" on="1"/>
      </contour>
    </TTGlyph>
    <TTGlyph name="E" xMin="164" yMin="0" xMax="941" yMax="1456">
      <contour>
        <pt x="856" y="703" on="1"/>
        <pt x="284" y="703" on="1"/>
        <pt x="284" y="104" on="1"/>
        <pt x="941" y="104" on="1"/>
        <pt x="941" y="0" on="1"/>
        <pt x="164" y="0" on="1"/>
        <pt x="164" y="1456" on="1"/>
        <pt x="935" y="1456" on="1"/>
        <pt x="935" y="1350" on="1"/>
        <pt x="284" y="1350" on="1"/>
        <pt x="284" y="807" on="1"/>
        <pt x="856" y="807" on="1"/>
      </contour>
    </TTGlyph>
    <TTGlyph name="E.smcp" xMin="144" yMin="0" xMax="806" yMax="1165">
      <contour>
        <pt x="734" y="554" on="1"/>
        <pt x="264" y="554" on="1"/>
        <pt x="264" y="102" on="1"/>
        <pt x="806" y="102" on="1"/>
        <pt x="806" y="0" on="1"/>
        <pt x="144" y="0" on="1"/>
        <pt x="144" y="1165" on="1"/>
        <pt x="806" y="1165" on="1"/>
        <pt x="806" y="1061" on="1"/>
        <pt x="264" y="1061" on="1"/>
        <pt x="264" y="658" on="1"/>
        <pt x="734" y="658" on="1"/>
      </contour>
    </TTGlyph>
    <TTGlyph name="Eacute" xMin="164" yMin="0" xMax="941" yMax="1823">
      <component glyphName="E" x="0" y="0" flags="0x204"/>
      <component glyphName="acute" x="344" y="345" flags="0x4"/>
    </TTGlyph>
    <TTGlyph name="Eacute.smcp" xMin="144" yMin="0" xMax="806" yMax="1500">
      <component glyphName="E.smcp" x="0" y="0" flags="0x204"/>
      <component glyphName="acute" x="276" y="22" flags="0x4"/>
    </TTGlyph>
    <TTGlyph name="Ebreve" xMin="164" yMin="0" xMax="941" yMax="1855">
      <component glyphName="E" x="0" y="0" flags="0x204"/>
      <component glyphName="breve" x="144" y="399" flags="0x4"/>
    </TTGlyph>
    <TTGlyph name="Ebreve.smcp" xMin="144" yMin="0" xMax="806" yMax="1532">
      <component glyphName="E.smcp" x="0" y="0" flags="0x204"/>
      <component glyphName="breve" x="76" y="76" flags="0x4"/>
    </TTGlyph>
    <TTGlyph name="Ecaron" xMin="164" yMin="0" xMax="941" yMax="1846">
      <component glyphName="E" x="0" y="0" flags="0x204"/>
      <component glyphName="caron" x="162" y="351" flags="0x4"/>
    </TTGlyph>
    <TTGlyph name="Ecaron.smcp" xMin="144" yMin="0" xMax="806" yMax="1523">
      <component glyphName="E.smcp" x="0" y="0" flags="0x204"/>
      <component glyphName="caron" x="94" y="28" flags="0x4"/>
    </TTGlyph>
    <TTGlyph name="Ecircumflex" xMin="164" yMin="0" xMax="941" yMax="1844">
      <component glyphName="E" x="0" y="0" flags="0x204"/>
      <component glyphName="circumflex" x="145" y="349" flags="0x4"/>
    </TTGlyph>
    <TTGlyph name="Ecircumflex.smcp" xMin="144" yMin="0" xMax="806" yMax="1521">
      <component glyphName="E.smcp" x="0" y="0" flags="0x204"/>
      <component glyphName="circumflex" x="77" y="26" flags="0x4"/>
    </TTGlyph>
    <TTGlyph name="Edieresis" xMin="164" yMin="0" xMax="941" yMax="1798">
      <component glyphName="E" x="0" y="0" flags="0x204"/>
      <component glyphName="dieresis" x="91" y="342" flags="0x4"/>
    </TTGlyph>
    <TTGlyph name="Edieresis.smcp" xMin="144" yMin="0" xMax="806" yMax="1475">
      <component glyphName="E.smcp" x="0" y="0" flags="0x204"/>
      <component glyphName="dieresis" x="23" y="19" flags="0x4"/>
    </TTGlyph>
    <TTGlyph name="Edotaccent" xMin="164" yMin="0" xMax="941" yMax="1805">
      <component glyphName="E" x="0" y="0" flags="0x204"/>
      <component glyphName="dotaccent" x="314" y="349" flags="0x4"/>
    </TTGlyph>
    <TTGlyph name="Edotaccent.smcp" xMin="144" yMin="0" xMax="806" yMax="1482">
      <component glyphName="E.smcp" x="0" y="0" flags="0x204"/>
      <component glyphName="dotaccent" x="246" y="26" flags="0x4"/>
    </TTGlyph>
    <TTGlyph name="Egrave" xMin="164" yMin="0" xMax="941" yMax="1827">
      <component glyphName="E" x="0" y="0" flags="0x204"/>
      <component glyphName="grave" x="179" y="351" flags="0x4"/>
    </TTGlyph>
    <TTGlyph name="Egrave.smcp" xMin="144" yMin="0" xMax="806" yMax="1504">
      <component glyphName="E.smcp" x="0" y="0" flags="0x204"/>
      <component glyphName="grave" x="111" y="28" flags="0x4"/>
    </TTGlyph>
    <TTGlyph name="Emacron" xMin="164" yMin="0" xMax="941" yMax="1786">
      <component glyphName="E" x="0" y="0" flags="0x204"/>
      <component glyphName="macron" x="124" y="330" flags="0x4"/>
    </TTGlyph>
    <TTGlyph name="Emacron.smcp" xMin="144" yMin="0" xMax="806" yMax="1463">
      <component glyphName="E.smcp" x="0" y="0" flags="0x204"/>
      <component glyphName="macron" x="56" y="7" flags="0x4"/>
    </TTGlyph>
    <TTGlyph name="Eng" xMin="154" yMin="-437" xMax="1052" yMax="1456">
      <contour>
        <pt x="1052" y="1456" on="1"/>
        <pt x="1052" y="-89" on="1"/>
        <pt x="1052" y="-256" on="0"/>
        <pt x="915" y="-437" on="0"/>
        <pt x="793" y="-437" on="1"/>
        <pt x="768" y="-437" on="0"/>
        <pt x="725" y="-427" on="0"/>
        <pt x="700" y="-418" on="1"/>
        <pt x="712" y="-316" on="1"/>
        <pt x="724" y="-321" on="0"/>
        <pt x="776" y="-331" on="0"/>
        <pt x="793" y="-331" on="1"/>
        <pt x="858" y="-331" on="0"/>
        <pt x="931" y="-203" on="0"/>
        <pt x="931" y="-89" on="1"/>
        <pt x="931" y="0" on="1"/>
        <pt x="281" y="1210" on="1"/>
        <pt x="275" y="1209" on="1"/>
        <pt x="275" y="0" on="1"/>
        <pt x="154" y="0" on="1"/>
        <pt x="154" y="1456" on="1"/>
        <pt x="275" y="1456" on="1"/>
        <pt x="925" y="243" on="1"/>
        <pt x="931" y="244" on="1"/>
        <pt x="931" y="1456" on="1"/>
      </contour>
    </TTGlyph>
    <TTGlyph name="Eogonek" xMin="164" yMin="-394" xMax="941" yMax="1456">
      <component glyphName="E" x="0" y="0" flags="0x204"/>
      <component glyphName="ogonek" x="277" y="0" flags="0x4"/>
    </TTGlyph>
    <TTGlyph name="Eogonek.smcp" xMin="144" yMin="-394" xMax="806" yMax="1165">
      <component glyphName="E.smcp" x="0" y="0" flags="0x204"/>
      <component glyphName="ogonek" x="231" y="0" flags="0x4"/>
    </TTGlyph>
    <TTGlyph name="Epsilon" xMin="164" yMin="0" xMax="941" yMax="1456">
      <component glyphName="E" x="0" y="0" flags="0x204"/>
    </TTGlyph>
    <TTGlyph name="Epsilontonos" xMin="12" yMin="0" xMax="1041" yMax="1620">
      <component glyphName="E" x="100" y="0" flags="0x4"/>
      <component glyphName="tonos" x="-156" y="2" flags="0x4"/>
    </TTGlyph>
    <TTGlyph name="Eta" xMin="164" yMin="0" xMax="1057" yMax="1456">
      <component glyphName="H" x="0" y="0" flags="0x204"/>
    </TTGlyph>
    <TTGlyph name="Etatonos" xMin="41" yMin="0" xMax="1157" yMax="1620">
      <component glyphName="H" x="100" y="0" flags="0x4"/>
      <component glyphName="tonos" x="-127" y="2" flags="0x4"/>
    </TTGlyph>
    <TTGlyph name="Eth" xMin="63" yMin="0" xMax="1066" yMax="1456">
      <contour>
        <pt x="194" y="0" on="1"/>
        <pt x="194" y="688" on="1"/>
        <pt x="63" y="688" on="1"/>
        <pt x="63" y="792" on="1"/>
        <pt x="194" y="792" on="1"/>
        <pt x="194" y="1456" on="1"/>
        <pt x="551" y="1456" on="1"/>
        <pt x="778" y="1456" on="0"/>
        <pt x="1066" y="1100" on="0"/>
        <pt x="1066" y="821" on="1"/>
        <pt x="1066" y="633" on="1"/>
        <pt x="1066" y="353" on="0"/>
        <pt x="778" y="0" on="0"/>
        <pt x="551" y="0" on="1"/>
      </contour>
      <contour>
        <pt x="578" y="688" on="1"/>
        <pt x="314" y="688" on="1"/>
        <pt x="314" y="104" on="1"/>
        <pt x="551" y="104" on="1"/>
        <pt x="727" y="104" on="0"/>
        <pt x="946" y="402" on="0"/>
        <pt x="946" y="633" on="1"/>
        <pt x="946" y="824" on="1"/>
        <pt x="946" y="1053" on="0"/>
        <pt x="727" y="1350" on="0"/>
        <pt x="551" y="1350" on="1"/>
        <pt x="314" y="1350" on="1"/>
        <pt x="314" y="792" on="1"/>
        <pt x="578" y="792" on="1"/>
      </contour>
    </TTGlyph>
    <TTGlyph name="Eth.smcp" xMin="-5" yMin="0" xMax="882" yMax="1165">
      <contour>
        <pt x="144" y="0" on="1"/>
        <pt x="144" y="541" on="1"/>
        <pt x="-5" y="541" on="1"/>
        <pt x="-5" y="645" on="1"/>
        <pt x="144" y="645" on="1"/>
        <pt x="144" y="1165" on="1"/>
        <pt x="479" y="1165" on="1"/>
        <pt x="649" y="1165" on="0"/>
        <pt x="882" y="896" on="0"/>
        <pt x="882" y="687" on="1"/>
        <pt x="882" y="477" on="1"/>
        <pt x="882" y="268" on="0"/>
        <pt x="649" y="0" on="0"/>
        <pt x="479" y="0" on="1"/>
      </contour>
      <contour>
        <pt x="510" y="541" on="1"/>
        <pt x="264" y="541" on="1"/>
        <pt x="264" y="102" on="1"/>
        <pt x="479" y="102" on="1"/>
        <pt x="597" y="102" on="0"/>
        <pt x="761" y="316" on="0"/>
        <pt x="761" y="477" on="1"/>
        <pt x="761" y="688" on="1"/>
        <pt x="761" y="847" on="0"/>
        <pt x="597" y="1061" on="0"/>
        <pt x="479" y="1061" on="1"/>
        <pt x="264" y="1061" on="1"/>
        <pt x="264" y="645" on="1"/>
        <pt x="510" y="645" on="1"/>
      </contour>
    </TTGlyph>
    <TTGlyph name="Euro" xMin="75" yMin="-21" xMax="817" yMax="1477">
      <contour>
        <pt x="766" y="531" on="1"/>
        <pt x="329" y="531" on="1"/>
        <pt x="329" y="514" on="1"/>
        <pt x="329" y="317" on="0"/>
        <pt x="488" y="83" on="0"/>
        <pt x="623" y="83" on="1"/>
        <pt x="671" y="83" on="0"/>
        <pt x="764" y="100" on="0"/>
        <pt x="806" y="117" on="1"/>
        <pt x="817" y="10" on="1"/>
        <pt x="771" y="-5" on="0"/>
        <pt x="673" y="-21" on="0"/>
        <pt x="623" y="-21" on="1"/>
        <pt x="438" y="-21" on="0"/>
        <pt x="209" y="269" on="0"/>
        <pt x="209" y="514" on="1"/>
        <pt x="209" y="531" on="1"/>
        <pt x="75" y="531" on="1"/>
        <pt x="75" y="635" on="1"/>
        <pt x="209" y="635" on="1"/>
        <pt x="209" y="802" on="1"/>
        <pt x="75" y="802" on="1"/>
        <pt x="75" y="906" on="1"/>
        <pt x="209" y="906" on="1"/>
        <pt x="209" y="942" on="1"/>
        <pt x="209" y="1186" on="0"/>
        <pt x="437" y="1477" on="0"/>
        <pt x="622" y="1477" on="1"/>
        <pt x="670" y="1477" on="0"/>
        <pt x="763" y="1461" on="0"/>
        <pt x="817" y="1446" on="1"/>
        <pt x="806" y="1336" on="1"/>
        <pt x="762" y="1352" on="0"/>
        <pt x="669" y="1371" on="0"/>
        <pt x="622" y="1371" on="1"/>
        <pt x="486" y="1371" on="0"/>
        <pt x="329" y="1141" on="0"/>
        <pt x="329" y="944" on="1"/>
        <pt x="329" y="906" on="1"/>
        <pt x="766" y="906" on="1"/>
        <pt x="766" y="802" on="1"/>
        <pt x="329" y="802" on="1"/>
        <pt x="329" y="635" on="1"/>
        <pt x="766" y="635" on="1"/>
      </contour>
    </TTGlyph>
    <TTGlyph name="F" xMin="164" yMin="0" xMax="944" yMax="1456">
      <contour>
        <pt x="859" y="679" on="1"/>
        <pt x="284" y="679" on="1"/>
        <pt x="284" y="0" on="1"/>
        <pt x="164" y="0" on="1"/>
        <pt x="164" y="1456" on="1"/>
        <pt x="944" y="1456" on="1"/>
        <pt x="944" y="1350" on="1"/>
        <pt x="284" y="1350" on="1"/>
        <pt x="284" y="785" on="1"/>
        <pt x="859" y="785" on="1"/>
      </contour>
    </TTGlyph>
    <TTGlyph name="F.smcp" xMin="144" yMin="0" xMax="806" yMax="1165">
      <contour>
        <pt x="735" y="533" on="1"/>
        <pt x="264" y="533" on="1"/>
        <pt x="264" y="0" on="1"/>
        <pt x="144" y="0" on="1"/>
        <pt x="144" y="1165" on="1"/>
        <pt x="806" y="1165" on="1"/>
        <pt x="806" y="1061" on="1"/>
        <pt x="264" y="1061" on="1"/>
        <pt x="264" y="638" on="1"/>
        <pt x="735" y="638" on="1"/>
      </contour>
    </TTGlyph>
    <TTGlyph name="G" xMin="123" yMin="-21" xMax="1030" yMax="1477">
      <contour>
        <pt x="1030" y="198" on="1"/>
        <pt x="990" y="116" on="0"/>
        <pt x="775" y="-21" on="0"/>
        <pt x="609" y="-21" on="1"/>
        <pt x="390" y="-21" on="0"/>
        <pt x="123" y="257" on="0"/>
        <pt x="123" y="517" on="1"/>
        <pt x="123" y="950" on="1"/>
        <pt x="123" y="1205" on="0"/>
        <pt x="375" y="1477" on="0"/>
        <pt x="586" y="1477" on="1"/>
        <pt x="792" y="1477" on="0"/>
        <pt x="1018" y="1262" on="0"/>
        <pt x="1023" y="1070" on="1"/>
        <pt x="1021" y="1064" on="1"/>
        <pt x="909" y="1064" on="1"/>
        <pt x="903" y="1211" on="0"/>
        <pt x="743" y="1371" on="0"/>
        <pt x="586" y="1371" on="1"/>
        <pt x="427" y="1371" on="0"/>
        <pt x="243" y="1156" on="0"/>
        <pt x="243" y="952" on="1"/>
        <pt x="243" y="517" on="1"/>
        <pt x="243" y="305" on="0"/>
        <pt x="441" y="83" on="0"/>
        <pt x="609" y="83" on="1"/>
        <pt x="732" y="83" on="0"/>
        <pt x="880" y="171" on="0"/>
        <pt x="909" y="234" on="1"/>
        <pt x="909" y="612" on="1"/>
        <pt x="607" y="612" on="1"/>
        <pt x="607" y="717" on="1"/>
        <pt x="1030" y="717" on="1"/>
      </contour>
    </TTGlyph>
    <TTGlyph name="G.smcp" xMin="110" yMin="-17" xMax="904" yMax="1181">
      <contour>
        <pt x="904" y="156" on="1"/>
        <pt x="868" y="93" on="0"/>
        <pt x="673" y="-17" on="0"/>
        <pt x="529" y="-17" on="1"/>
        <pt x="342" y="-17" on="0"/>
        <pt x="110" y="248" on="0"/>
        <pt x="110" y="461" on="1"/>
        <pt x="110" y="704" on="1"/>
        <pt x="110" y="915" on="0"/>
        <pt x="341" y="1181" on="0"/>
        <pt x="522" y="1181" on="1"/>
        <pt x="702" y="1181" on="0"/>
        <pt x="894" y="996" on="0"/>
        <pt x="896" y="837" on="1"/>
        <pt x="894" y="832" on="1"/>
        <pt x="782" y="828" on="1"/>
        <pt x="776" y="950" on="0"/>
        <pt x="647" y="1077" on="0"/>
        <pt x="522" y="1077" on="1"/>
        <pt x="392" y="1077" on="0"/>
        <pt x="230" y="866" on="0"/>
        <pt x="230" y="705" on="1"/>
        <pt x="230" y="461" on="1"/>
        <pt x="230" y="295" on="0"/>
        <pt x="393" y="86" on="0"/>
        <pt x="529" y="86" on="1"/>
        <pt x="629" y="86" on="0"/>
        <pt x="759" y="149" on="0"/>
        <pt x="785" y="190" on="1"/>
        <pt x="785" y="467" on="1"/>
        <pt x="549" y="467" on="1"/>
        <pt x="549" y="572" on="1"/>
        <pt x="904" y="572" on="1"/>
      </contour>
    </TTGlyph>
    <TTGlyph name="Gamma" xMin="162" yMin="0" xMax="893" yMax="1456">
      <contour>
        <pt x="893" y="1350" on="1"/>
        <pt x="282" y="1350" on="1"/>
        <pt x="282" y="0" on="1"/>
        <pt x="162" y="0" on="1"/>
        <pt x="162" y="1456" on="1"/>
        <pt x="893" y="1456" on="1"/>
      </contour>
    </TTGlyph>
    <TTGlyph name="Gbreve" xMin="123" yMin="-21" xMax="1030" yMax="1876">
      <component glyphName="G" x="0" y="0" flags="0x204"/>
      <component glyphName="breve" x="191" y="420" flags="0x4"/>
    </TTGlyph>
    <TTGlyph name="Gbreve.smcp" xMin="110" yMin="-17" xMax="904" yMax="1548">
      <component glyphName="G.smcp" x="0" y="0" flags="0x204"/>
      <component glyphName="breve" x="103" y="92" flags="0x4"/>
    </TTGlyph>
    <TTGlyph name="Gcircumflex" xMin="123" yMin="-21" xMax="1030" yMax="1865">
      <component glyphName="G" x="0" y="0" flags="0x204"/>
      <component glyphName="circumflex" x="192" y="370" flags="0x4"/>
    </TTGlyph>
    <TTGlyph name="Gcircumflex.smcp" xMin="110" yMin="-17" xMax="904" yMax="1537">
      <component glyphName="G.smcp" x="0" y="0" flags="0x204"/>
      <component glyphName="circumflex" x="104" y="42" flags="0x4"/>
    </TTGlyph>
    <TTGlyph name="Gcommaaccent" xMin="123" yMin="-462" xMax="1030" yMax="1477">
      <component glyphName="G" x="0" y="0" flags="0x204"/>
      <component glyphName="commaaccent" x="367" y="-309" flags="0x4"/>
    </TTGlyph>
    <TTGlyph name="Gcommaaccent.smcp" xMin="110" yMin="-462" xMax="904" yMax="1181">
      <component glyphName="G.smcp" x="0" y="0" flags="0x204"/>
      <component glyphName="commaaccent" x="287" y="-309" flags="0x4"/>
    </TTGlyph>
    <TTGlyph name="H" xMin="164" yMin="0" xMax="1057" yMax="1456">
      <contour>
        <pt x="1057" y="0" on="1"/>
        <pt x="938" y="0" on="1"/>
        <pt x="938" y="669" on="1"/>
        <pt x="284" y="669" on="1"/>
        <pt x="284" y="0" on="1"/>
        <pt x="164" y="0" on="1"/>
        <pt x="164" y="1456" on="1"/>
        <pt x="284" y="1456" on="1"/>
        <pt x="284" y="773" on="1"/>
        <pt x="938" y="773" on="1"/>
        <pt x="938" y="1456" on="1"/>
        <pt x="1057" y="1456" on="1"/>
      </contour>
    </TTGlyph>
    <TTGlyph name="H.smcp" xMin="144" yMin="0" xMax="914" yMax="1165">
      <contour>
        <pt x="914" y="0" on="1"/>
        <pt x="792" y="0" on="1"/>
        <pt x="792" y="519" on="1"/>
        <pt x="264" y="519" on="1"/>
        <pt x="264" y="0" on="1"/>
        <pt x="144" y="0" on="1"/>
        <pt x="144" y="1165" on="1"/>
        <pt x="264" y="1165" on="1"/>
        <pt x="264" y="623" on="1"/>
        <pt x="792" y="623" on="1"/>
        <pt x="792" y="1165" on="1"/>
        <pt x="914" y="1165" on="1"/>
      </contour>
    </TTGlyph>
    <TTGlyph name="Hbar" xMin="32" yMin="0" xMax="1168" yMax="1456">
      <contour>
        <pt x="1043" y="1125" on="1"/>
        <pt x="1168" y="1125" on="1"/>
        <pt x="1168" y="1026" on="1"/>
        <pt x="1043" y="1026" on="1"/>
        <pt x="1043" y="0" on="1"/>
        <pt x="924" y="0" on="1"/>
        <pt x="924" y="669" on="1"/>
        <pt x="270" y="669" on="1"/>
        <pt x="270" y="0" on="1"/>
        <pt x="150" y="0" on="1"/>
        <pt x="150" y="1026" on="1"/>
        <pt x="32" y="1026" on="1"/>
        <pt x="32" y="1125" on="1"/>
        <pt x="150" y="1125" on="1"/>
        <pt x="150" y="1456" on="1"/>
        <pt x="270" y="1456" on="1"/>
        <pt x="270" y="1125" on="1"/>
        <pt x="924" y="1125" on="1"/>
        <pt x="924" y="1456" on="1"/>
        <pt x="1043" y="1456" on="1"/>
      </contour>
      <contour>
        <pt x="270" y="773" on="1"/>
        <pt x="924" y="773" on="1"/>
        <pt x="924" y="1026" on="1"/>
        <pt x="270" y="1026" on="1"/>
      </contour>
    </TTGlyph>
    <TTGlyph name="Hcircumflex" xMin="164" yMin="0" xMax="1057" yMax="1844">
      <component glyphName="H" x="0" y="0" flags="0x204"/>
      <component glyphName="circumflex" x="224" y="349" flags="0x4"/>
    </TTGlyph>
    <TTGlyph name="Hcircumflex.smcp" xMin="144" yMin="0" xMax="914" yMax="1521">
      <component glyphName="H.smcp" x="0" y="0" flags="0x204"/>
      <component glyphName="circumflex" x="121" y="26" flags="0x4"/>
    </TTGlyph>
    <TTGlyph name="I" xMin="181" yMin="0" xMax="302" yMax="1456">
      <contour>
        <pt x="302" y="0" on="1"/>
        <pt x="181" y="0" on="1"/>
        <pt x="181" y="1456" on="1"/>
        <pt x="302" y="1456" on="1"/>
      </contour>
    </TTGlyph>
    <TTGlyph name="I.smcp" xMin="144" yMin="0" xMax="263" yMax="1165">
      <contour>
        <pt x="263" y="0" on="1"/>
        <pt x="144" y="0" on="1"/>
        <pt x="144" y="1165" on="1"/>
        <pt x="263" y="1165" on="1"/>
      </contour>
    </TTGlyph>
    <TTGlyph name="IJ" xMin="181" yMin="-21" xMax="1280" yMax="1456">
      <component glyphName="I" x="0" y="0" flags="0x4"/>
      <component glyphName="J" x="484" y="0" flags="0x4"/>
    </TTGlyph>
    <TTGlyph name="Iacute" xMin="174" yMin="0" xMax="498" yMax="1823">
      <component glyphName="I" x="0" y="0" flags="0x204"/>
      <component glyphName="acute" x="60" y="345" flags="0x4"/>
    </TTGlyph>
    <TTGlyph name="Iacute.smcp" xMin="135" yMin="0" xMax="459" yMax="1500">
      <component glyphName="I.smcp" x="0" y="0" flags="0x204"/>
      <component glyphName="acute" x="21" y="22" flags="0x4"/>
    </TTGlyph>
    <TTGlyph name="Ibreve" xMin="-10" yMin="0" xMax="497" yMax="1855">
      <component glyphName="I" x="0" y="0" flags="0x204"/>
      <component glyphName="breve" x="-138" y="399" flags="0x4"/>
    </TTGlyph>
    <TTGlyph name="Ibreve.smcp" xMin="-49" yMin="0" xMax="458" yMax="1532">
      <component glyphName="I.smcp" x="0" y="0" flags="0x204"/>
      <component glyphName="breve" x="-177" y="76" flags="0x4"/>
    </TTGlyph>
    <TTGlyph name="Icircumflex" xMin="8" yMin="0" xMax="484" yMax="1844">
      <component glyphName="I" x="0" y="0" flags="0x204"/>
      <component glyphName="circumflex" x="-137" y="349" flags="0x4"/>
    </TTGlyph>
    <TTGlyph name="Icircumflex.smcp" xMin="-31" yMin="0" xMax="445" yMax="1521">
      <component glyphName="I.smcp" x="0" y="0" flags="0x204"/>
      <component glyphName="circumflex" x="-176" y="26" flags="0x4"/>
    </TTGlyph>
    <TTGlyph name="Idieresis" xMin="-39" yMin="0" xMax="532" yMax="1798">
      <component glyphName="I" x="0" y="0" flags="0x204"/>
      <component glyphName="dieresis" x="-191" y="342" flags="0x4"/>
    </TTGlyph>
    <TTGlyph name="Idieresis.smcp" xMin="-78" yMin="0" xMax="493" yMax="1475">
      <component glyphName="I.smcp" x="0" y="0" flags="0x204"/>
      <component glyphName="dieresis" x="-230" y="19" flags="0x4"/>
    </TTGlyph>
    <TTGlyph name="Idotaccent" xMin="170" yMin="0" xMax="313" yMax="1805">
      <component glyphName="I" x="0" y="0" flags="0x204"/>
      <component glyphName="dotaccent" x="30" y="349" flags="0x4"/>
    </TTGlyph>
    <TTGlyph name="Idotaccent.smcp" xMin="133" yMin="0" xMax="276" yMax="1482">
      <component glyphName="I.smcp" x="0" y="0" flags="0x204"/>
      <component glyphName="dotaccent" x="-7" y="26" flags="0x4"/>
    </TTGlyph>
    <TTGlyph name="Igrave" xMin="-16" yMin="0" xMax="309" yMax="1827">
      <component glyphName="I" x="0" y="0" flags="0x204"/>
      <component glyphName="grave" x="-103" y="351" flags="0x4"/>
    </TTGlyph>
    <TTGlyph name="Igrave.smcp" xMin="-55" yMin="0" xMax="270" yMax="1504">
      <component glyphName="I.smcp" x="0" y="0" flags="0x204"/>
      <component glyphName="grave" x="-142" y="28" flags="0x4"/>
    </TTGlyph>
    <TTGlyph name="Imacron" xMin="-52" yMin="0" xMax="543" yMax="1786">
      <component glyphName="I" x="0" y="0" flags="0x204"/>
      <component glyphName="macron" x="-158" y="330" flags="0x4"/>
    </TTGlyph>
    <TTGlyph name="Imacron.smcp" xMin="-91" yMin="0" xMax="504" yMax="1463">
      <component glyphName="I.smcp" x="0" y="0" flags="0x204"/>
      <component glyphName="macron" x="-197" y="7" flags="0x4"/>
    </TTGlyph>
    <TTGlyph name="Iogonek" xMin="61" yMin="-394" xMax="350" yMax="1456">
      <component glyphName="I" x="0" y="0" flags="0x204"/>
      <component glyphName="ogonek" x="-18" y="0" flags="0x4"/>
    </TTGlyph>
    <TTGlyph name="Iogonek.smcp" xMin="22" yMin="-394" xMax="311" yMax="1165">
      <component glyphName="I.smcp" x="0" y="0" flags="0x204"/>
      <component glyphName="ogonek" x="-57" y="0" flags="0x4"/>
    </TTGlyph>
    <TTGlyph name="Iota" xMin="181" yMin="0" xMax="302" yMax="1456">
      <component glyphName="I" x="0" y="0" flags="0x204"/>
    </TTGlyph>
    <TTGlyph name="Iotadieresis" xMin="-39" yMin="0" xMax="532" yMax="1798">
      <component glyphName="I" x="0" y="0" flags="0x204"/>
      <component glyphName="dieresis" x="-191" y="342" flags="0x4"/>
    </TTGlyph>
    <TTGlyph name="Iotatonos" xMin="52" yMin="0" xMax="402" yMax="1618">
      <component glyphName="I" x="100" y="0" flags="0x4"/>
      <component glyphName="tonos" x="-116" y="0" flags="0x4"/>
    </TTGlyph>
    <TTGlyph name="Itilde" xMin="-42" yMin="0" xMax="518" yMax="1844">
      <component glyphName="I" x="0" y="0" flags="0x204"/>
      <component glyphName="tilde" x="-144" y="342" flags="0x4"/>
    </TTGlyph>
    <TTGlyph name="Itilde.smcp" xMin="-81" yMin="0" xMax="479" yMax="1521">
      <component glyphName="I.smcp" x="0" y="0" flags="0x204"/>
      <component glyphName="tilde" x="-183" y="19" flags="0x4"/>
    </TTGlyph>
    <TTGlyph name="J" xMin="68" yMin="-21" xMax="796" yMax="1456">
      <contour>
        <pt x="676" y="1456" on="1"/>
        <pt x="796" y="1456" on="1"/>
        <pt x="796" y="412" on="1"/>
        <pt x="796" y="212" on="0"/>
        <pt x="598" y="-21" on="0"/>
        <pt x="439" y="-21" on="1"/>
        <pt x="268" y="-21" on="0"/>
        <pt x="68" y="192" on="0"/>
        <pt x="72" y="396" on="1"/>
        <pt x="74" y="401" on="1"/>
        <pt x="188" y="401" on="1"/>
        <pt x="188" y="244" on="0"/>
        <pt x="318" y="83" on="0"/>
        <pt x="439" y="83" on="1"/>
        <pt x="542" y="83" on="0"/>
        <pt x="676" y="261" on="0"/>
        <pt x="676" y="412" on="1"/>
      </contour>
    </TTGlyph>
    <TTGlyph name="J.smcp" xMin="70" yMin="-17" xMax="723" yMax="1165">
      <contour>
        <pt x="603" y="1165" on="1"/>
        <pt x="723" y="1165" on="1"/>
        <pt x="723" y="345" on="1"/>
        <pt x="723" y="179" on="0"/>
        <pt x="543" y="-17" on="0"/>
        <pt x="404" y="-17" on="1"/>
        <pt x="249" y="-17" on="0"/>
        <pt x="70" y="157" on="0"/>
        <pt x="74" y="322" on="1"/>
        <pt x="77" y="328" on="1"/>
        <pt x="190" y="328" on="1"/>
        <pt x="190" y="205" on="0"/>
        <pt x="300" y="86" on="0"/>
        <pt x="404" y="86" on="1"/>
        <pt x="489" y="86" on="0"/>
        <pt x="603" y="227" on="0"/>
        <pt x="603" y="345" on="1"/>
      </contour>
    </TTGlyph>
    <TTGlyph name="Jcircumflex" xMin="68" yMin="-21" xMax="972" yMax="1822">
      <component glyphName="J" x="0" y="0" flags="0x204"/>
      <component glyphName="circumflex" x="351" y="327" flags="0x4"/>
    </TTGlyph>
    <TTGlyph name="Jcircumflex.smcp" xMin="70" yMin="-17" xMax="897" yMax="1504">
      <component glyphName="J.smcp" x="0" y="0" flags="0x204"/>
      <component glyphName="circumflex" x="276" y="9" flags="0x4"/>
    </TTGlyph>
    <TTGlyph name="K" xMin="164" yMin="0" xMax="1073" yMax="1456">
      <contour>
        <pt x="440" y="683" on="1"/>
        <pt x="284" y="683" on="1"/>
        <pt x="284" y="0" on="1"/>
        <pt x="164" y="0" on="1"/>
        <pt x="164" y="1456" on="1"/>
        <pt x="284" y="1456" on="1"/>
        <pt x="284" y="787" on="1"/>
        <pt x="436" y="787" on="1"/>
        <pt x="897" y="1456" on="1"/>
        <pt x="1037" y="1456" on="1"/>
        <pt x="537" y="741" on="1"/>
        <pt x="1073" y="0" on="1"/>
        <pt x="924" y="0" on="1"/>
      </contour>
    </TTGlyph>
    <TTGlyph name="K.smcp" xMin="144" yMin="0" xMax="897" yMax="1165">
      <contour>
        <pt x="364" y="535" on="1"/>
        <pt x="264" y="535" on="1"/>
        <pt x="264" y="0" on="1"/>
        <pt x="144" y="0" on="1"/>
        <pt x="144" y="1165" on="1"/>
        <pt x="264" y="1165" on="1"/>
        <pt x="264" y="640" on="1"/>
        <pt x="362" y="640" on="1"/>
        <pt x="714" y="1165" on="1"/>
        <pt x="860" y="1165" on="1"/>
        <pt x="461" y="602" on="1"/>
        <pt x="897" y="0" on="1"/>
        <pt x="744" y="0" on="1"/>
      </contour>
    </TTGlyph>
    <TTGlyph name="Kappa" xMin="164" yMin="0" xMax="1073" yMax="1456">
      <component glyphName="K" x="0" y="0" flags="0x204"/>
    </TTGlyph>
    <TTGlyph name="Kcommaaccent" xMin="164" yMin="-462" xMax="1073" yMax="1456">
      <component glyphName="K" x="0" y="0" flags="0x204"/>
      <component glyphName="commaaccent" x="317" y="-309" flags="0x4"/>
    </TTGlyph>
    <TTGlyph name="Kcommaaccent.smcp" xMin="144" yMin="-462" xMax="897" yMax="1165">
      <component glyphName="K.smcp" x="0" y="0" flags="0x204"/>
      <component glyphName="commaaccent" x="218" y="-309" flags="0x4"/>
    </TTGlyph>
    <TTGlyph name="L" xMin="164" yMin="0" xMax="873" yMax="1456">
      <contour>
        <pt x="285" y="104" on="1"/>
        <pt x="873" y="104" on="1"/>
        <pt x="873" y="0" on="1"/>
        <pt x="164" y="0" on="1"/>
        <pt x="164" y="1456" on="1"/>
        <pt x="285" y="1456" on="1"/>
      </contour>
    </TTGlyph>
    <TTGlyph name="L.smcp" xMin="144" yMin="0" xMax="729" yMax="1165">
      <contour>
        <pt x="264" y="102" on="1"/>
        <pt x="729" y="102" on="1"/>
        <pt x="729" y="0" on="1"/>
        <pt x="144" y="0" on="1"/>
        <pt x="144" y="1165" on="1"/>
        <pt x="264" y="1165" on="1"/>
      </contour>
    </TTGlyph>
    <TTGlyph name="Lacute" xMin="155" yMin="0" xMax="873" yMax="1760">
      <component glyphName="L" x="0" y="0" flags="0x204"/>
      <component glyphName="acute" x="41" y="282" flags="0x4"/>
    </TTGlyph>
    <TTGlyph name="Lacute.smcp" xMin="137" yMin="0" xMax="729" yMax="1477">
      <component glyphName="L.smcp" x="0" y="0" flags="0x204"/>
      <component glyphName="acute" x="23" y="-1" flags="0x4"/>
    </TTGlyph>
    <TTGlyph name="Lambda" xMin="61" yMin="0" xMax="1055" yMax="1456">
      <contour>
        <pt x="560" y="1245" on="1"/>
        <pt x="554" y="1245" on="1"/>
        <pt x="185" y="0" on="1"/>
        <pt x="61" y="0" on="1"/>
        <pt x="503" y="1456" on="1"/>
        <pt x="613" y="1456" on="1"/>
        <pt x="1055" y="0" on="1"/>
        <pt x="932" y="0" on="1"/>
      </contour>
    </TTGlyph>
    <TTGlyph name="Lcaron" xMin="164" yMin="0" xMax="873" yMax="1456">
      <component glyphName="L" x="0" y="0" flags="0x204"/>
      <component glyphName="commaaccent" x="372" y="1277" flags="0x4"/>
    </TTGlyph>
    <TTGlyph name="Lcaron.smcp" xMin="144" yMin="0" xMax="729" yMax="1165">
      <component glyphName="L.smcp" x="0" y="0" flags="0x204"/>
      <component glyphName="commaaccent" x="254" y="986" flags="0x4"/>
    </TTGlyph>
    <TTGlyph name="Lcommaaccent" xMin="164" yMin="-462" xMax="873" yMax="1456">
      <component glyphName="L" x="0" y="0" flags="0x204"/>
      <component glyphName="commaaccent" x="314" y="-309" flags="0x4"/>
    </TTGlyph>
    <TTGlyph name="Lcommaaccent.smcp" xMin="144" yMin="-462" xMax="729" yMax="1165">
      <component glyphName="L.smcp" x="0" y="0" flags="0x204"/>
      <component glyphName="commaaccent" x="192" y="-309" flags="0x4"/>
    </TTGlyph>
    <TTGlyph name="Ldot" xMin="164" yMin="0" xMax="873" yMax="1456">
      <component glyphName="L" x="0" y="0" flags="0x204"/>
      <component glyphName="dotaccent" x="374" y="-599" flags="0x4"/>
    </TTGlyph>
    <TTGlyph name="Ldot.smcp" xMin="144" yMin="0" xMax="729" yMax="1165">
      <component glyphName="L.smcp" x="0" y="0" flags="0x204"/>
      <component glyphName="dotaccent" x="254" y="-754" flags="0x4"/>
    </TTGlyph>
    <TTGlyph name="Lslash" xMin="33" yMin="0" xMax="862" yMax="1456">
      <contour>
        <pt x="274" y="820" on="1"/>
        <pt x="521" y="915" on="1"/>
        <pt x="521" y="804" on="1"/>
        <pt x="274" y="709" on="1"/>
        <pt x="274" y="104" on="1"/>
        <pt x="862" y="104" on="1"/>
        <pt x="862" y="0" on="1"/>
        <pt x="153" y="0" on="1"/>
        <pt x="153" y="663" on="1"/>
        <pt x="33" y="617" on="1"/>
        <pt x="33" y="728" on="1"/>
        <pt x="153" y="774" on="1"/>
        <pt x="153" y="1456" on="1"/>
        <pt x="274" y="1456" on="1"/>
      </contour>
    </TTGlyph>
    <TTGlyph name="M" xMin="158" yMin="0" xMax="1284" yMax="1456">
      <contour>
        <pt x="312" y="1456" on="1"/>
        <pt x="717" y="181" on="1"/>
        <pt x="723" y="181" on="1"/>
        <pt x="1129" y="1456" on="1"/>
        <pt x="1284" y="1456" on="1"/>
        <pt x="1284" y="0" on="1"/>
        <pt x="1165" y="0" on="1"/>
        <pt x="1165" y="639" on="1"/>
        <pt x="1177" y="1234" on="1"/>
        <pt x="1171" y="1235" on="1"/>
        <pt x="760" y="0" on="1"/>
        <pt x="680" y="0" on="1"/>
        <pt x="270" y="1233" on="1"/>
        <pt x="264" y="1232" on="1"/>
        <pt x="276" y="639" on="1"/>
        <pt x="276" y="0" on="1"/>
        <pt x="158" y="0" on="1"/>
        <pt x="158" y="1456" on="1"/>
      </contour>
    </TTGlyph>
    <TTGlyph name="M.smcp" xMin="144" yMin="0" xMax="1122" yMax="1165">
      <contour>
        <pt x="633" y="175" on="1"/>
        <pt x="639" y="175" on="1"/>
        <pt x="972" y="1165" on="1"/>
        <pt x="1122" y="1165" on="1"/>
        <pt x="1122" y="0" on="1"/>
        <pt x="1001" y="0" on="1"/>
        <pt x="1001" y="895" on="1"/>
        <pt x="995" y="896" on="1"/>
        <pt x="678" y="0" on="1"/>
        <pt x="594" y="0" on="1"/>
        <pt x="270" y="920" on="1"/>
        <pt x="264" y="919" on="1"/>
        <pt x="264" y="0" on="1"/>
        <pt x="144" y="0" on="1"/>
        <pt x="144" y="1165" on="1"/>
        <pt x="301" y="1165" on="1"/>
      </contour>
    </TTGlyph>
    <TTGlyph name="Mu" xMin="158" yMin="0" xMax="1284" yMax="1456">
      <component glyphName="M" x="0" y="0" flags="0x204"/>
    </TTGlyph>
    <TTGlyph name="N" xMin="164" yMin="0" xMax="1061" yMax="1456">
      <contour>
        <pt x="1061" y="0" on="1"/>
        <pt x="941" y="0" on="1"/>
        <pt x="291" y="1219" on="1"/>
        <pt x="285" y="1218" on="1"/>
        <pt x="285" y="0" on="1"/>
        <pt x="164" y="0" on="1"/>
        <pt x="164" y="1456" on="1"/>
        <pt x="285" y="1456" on="1"/>
        <pt x="935" y="237" on="1"/>
        <pt x="941" y="238" on="1"/>
        <pt x="941" y="1456" on="1"/>
        <pt x="1061" y="1456" on="1"/>
      </contour>
    </TTGlyph>
    <TTGlyph name="N.smcp" xMin="144" yMin="0" xMax="941" yMax="1165">
      <contour>
        <pt x="941" y="0" on="1"/>
        <pt x="821" y="0" on="1"/>
        <pt x="270" y="942" on="1"/>
        <pt x="264" y="941" on="1"/>
        <pt x="264" y="0" on="1"/>
        <pt x="144" y="0" on="1"/>
        <pt x="144" y="1165" on="1"/>
        <pt x="264" y="1165" on="1"/>
        <pt x="815" y="222" on="1"/>
        <pt x="821" y="223" on="1"/>
        <pt x="821" y="1165" on="1"/>
        <pt x="941" y="1165" on="1"/>
      </contour>
    </TTGlyph>
    <TTGlyph name="Nacute" xMin="164" yMin="0" xMax="1061" yMax="1823">
      <component glyphName="N" x="0" y="0" flags="0x204"/>
      <component glyphName="acute" x="430" y="345" flags="0x4"/>
    </TTGlyph>
    <TTGlyph name="Nacute.smcp" xMin="144" yMin="0" xMax="941" yMax="1500">
      <component glyphName="N.smcp" x="0" y="0" flags="0x204"/>
      <component glyphName="acute" x="343" y="22" flags="0x4"/>
    </TTGlyph>
    <TTGlyph name="Ncaron" xMin="164" yMin="0" xMax="1061" yMax="1846">
      <component glyphName="N" x="0" y="0" flags="0x204"/>
      <component glyphName="caron" x="248" y="351" flags="0x4"/>
    </TTGlyph>
    <TTGlyph name="Ncaron.smcp" xMin="144" yMin="0" xMax="941" yMax="1523">
      <component glyphName="N.smcp" x="0" y="0" flags="0x204"/>
      <component glyphName="caron" x="161" y="28" flags="0x4"/>
    </TTGlyph>
    <TTGlyph name="Ncommaaccent" xMin="164" yMin="-462" xMax="1061" yMax="1456">
      <component glyphName="N" x="0" y="0" flags="0x204"/>
      <component glyphName="commaaccent" x="398" y="-309" flags="0x4"/>
    </TTGlyph>
    <TTGlyph name="Ncommaaccent.smcp" xMin="144" yMin="-462" xMax="941" yMax="1165">
      <component glyphName="N.smcp" x="0" y="0" flags="0x204"/>
      <component glyphName="commaaccent" x="311" y="-309" flags="0x4"/>
    </TTGlyph>
    <TTGlyph name="Ntilde" xMin="164" yMin="0" xMax="1061" yMax="1844">
      <component glyphName="N" x="0" y="0" flags="0x204"/>
      <component glyphName="tilde" x="224" y="342" flags="0x4"/>
    </TTGlyph>
    <TTGlyph name="Ntilde.smcp" xMin="144" yMin="0" xMax="941" yMax="1521">
      <component glyphName="N.smcp" x="0" y="0" flags="0x204"/>
      <component glyphName="tilde" x="137" y="19" flags="0x4"/>
    </TTGlyph>
    <TTGlyph name="Nu" xMin="164" yMin="0" xMax="1061" yMax="1456">
      <component glyphName="N" x="0" y="0" flags="0x204"/>
    </TTGlyph>
    <TTGlyph name="O" xMin="105" yMin="-21" xMax="1019" yMax="1477">
      <contour>
        <pt x="1019" y="523" on="1"/>
        <pt x="1019" y="258" on="0"/>
        <pt x="772" y="-21" on="0"/>
        <pt x="557" y="-21" on="1"/>
        <pt x="346" y="-21" on="0"/>
        <pt x="105" y="258" on="0"/>
        <pt x="105" y="523" on="1"/>
        <pt x="105" y="931" on="1"/>
        <pt x="105" y="1196" on="0"/>
        <pt x="345" y="1477" on="0"/>
        <pt x="556" y="1477" on="1"/>
        <pt x="771" y="1477" on="0"/>
        <pt x="1019" y="1195" on="0"/>
        <pt x="1019" y="931" on="1"/>
      </contour>
      <contour>
        <pt x="900" y="934" on="1"/>
        <pt x="900" y="1150" on="0"/>
        <pt x="722" y="1368" on="0"/>
        <pt x="556" y="1368" on="1"/>
        <pt x="395" y="1368" on="0"/>
        <pt x="223" y="1150" on="0"/>
        <pt x="223" y="934" on="1"/>
        <pt x="223" y="523" on="1"/>
        <pt x="223" y="304" on="0"/>
        <pt x="395" y="86" on="0"/>
        <pt x="557" y="86" on="1"/>
        <pt x="723" y="86" on="0"/>
        <pt x="900" y="304" on="0"/>
        <pt x="900" y="523" on="1"/>
      </contour>
    </TTGlyph>
    <TTGlyph name="O.smcp" xMin="110" yMin="-17" xMax="918" yMax="1181">
      <contour>
        <pt x="918" y="461" on="1"/>
        <pt x="918" y="243" on="0"/>
        <pt x="696" y="-17" on="0"/>
        <pt x="515" y="-17" on="1"/>
        <pt x="333" y="-17" on="0"/>
        <pt x="110" y="243" on="0"/>
        <pt x="110" y="461" on="1"/>
        <pt x="110" y="704" on="1"/>
        <pt x="110" y="920" on="0"/>
        <pt x="332" y="1181" on="0"/>
        <pt x="513" y="1181" on="1"/>
        <pt x="694" y="1181" on="0"/>
        <pt x="918" y="920" on="0"/>
        <pt x="918" y="704" on="1"/>
      </contour>
      <contour>
        <pt x="798" y="705" on="1"/>
        <pt x="798" y="883" on="0"/>
        <pt x="646" y="1077" on="0"/>
        <pt x="513" y="1077" on="1"/>
        <pt x="380" y="1077" on="0"/>
        <pt x="230" y="883" on="0"/>
        <pt x="230" y="705" on="1"/>
        <pt x="230" y="461" on="1"/>
        <pt x="230" y="280" on="0"/>
        <pt x="381" y="86" on="0"/>
        <pt x="515" y="86" on="1"/>
        <pt x="647" y="86" on="0"/>
        <pt x="798" y="280" on="0"/>
        <pt x="798" y="461" on="1"/>
      </contour>
    </TTGlyph>
    <TTGlyph name="OE" xMin="98" yMin="-21" xMax="1529" yMax="1477">
      <contour>
        <pt x="1529" y="0" on="1"/>
        <pt x="802" y="0" on="1"/>
        <pt x="722" y="-10" on="0"/>
        <pt x="608" y="-21" on="0"/>
        <pt x="550" y="-21" on="1"/>
        <pt x="349" y="-21" on="0"/>
        <pt x="98" y="311" on="0"/>
        <pt x="98" y="576" on="1"/>
        <pt x="98" y="880" on="1"/>
        <pt x="98" y="1145" on="0"/>
        <pt x="347" y="1477" on="0"/>
        <pt x="549" y="1477" on="1"/>
        <pt x="609" y="1477" on="0"/>
        <pt x="733" y="1465" on="0"/>
        <pt x="802" y="1456" on="1"/>
        <pt x="1523" y="1456" on="1"/>
        <pt x="1523" y="1350" on="1"/>
        <pt x="872" y="1350" on="1"/>
        <pt x="872" y="807" on="1"/>
        <pt x="1444" y="807" on="1"/>
        <pt x="1444" y="703" on="1"/>
        <pt x="872" y="703" on="1"/>
        <pt x="872" y="104" on="1"/>
        <pt x="1529" y="104" on="1"/>
      </contour>
      <contour>
        <pt x="550" y="83" on="1"/>
        <pt x="602" y="83" on="0"/>
        <pt x="705" y="90" on="0"/>
        <pt x="752" y="98" on="1"/>
        <pt x="752" y="1358" on="1"/>
        <pt x="704" y="1365" on="0"/>
        <pt x="602" y="1373" on="0"/>
        <pt x="549" y="1373" on="1"/>
        <pt x="396" y="1373" on="0"/>
        <pt x="218" y="1110" on="0"/>
        <pt x="218" y="882" on="1"/>
        <pt x="218" y="576" on="1"/>
        <pt x="218" y="349" on="0"/>
        <pt x="398" y="83" on="0"/>
      </contour>
    </TTGlyph>
    <TTGlyph name="Oacute" xMin="105" yMin="-21" xMax="1019" yMax="1844">
      <component glyphName="O" x="0" y="0" flags="0x204"/>
      <component glyphName="acute" x="378" y="366" flags="0x4"/>
    </TTGlyph>
    <TTGlyph name="Oacute.smcp" xMin="110" yMin="-17" xMax="918" yMax="1516">
      <component glyphName="O.smcp" x="0" y="0" flags="0x204"/>
      <component glyphName="acute" x="316" y="38" flags="0x4"/>
    </TTGlyph>
    <TTGlyph name="Obreve" xMin="105" yMin="-21" xMax="1019" yMax="1876">
      <component glyphName="O" x="0" y="0" flags="0x204"/>
      <component glyphName="breve" x="178" y="420" flags="0x4"/>
    </TTGlyph>
    <TTGlyph name="Obreve.smcp" xMin="110" yMin="-17" xMax="918" yMax="1548">
      <component glyphName="O.smcp" x="0" y="0" flags="0x204"/>
      <component glyphName="breve" x="116" y="92" flags="0x4"/>
    </TTGlyph>
    <TTGlyph name="Ocircumflex" xMin="105" yMin="-21" xMax="1019" yMax="1865">
      <component glyphName="O" x="0" y="0" flags="0x204"/>
      <component glyphName="circumflex" x="179" y="370" flags="0x4"/>
    </TTGlyph>
    <TTGlyph name="Ocircumflex.smcp" xMin="110" yMin="-17" xMax="918" yMax="1537">
      <component glyphName="O.smcp" x="0" y="0" flags="0x204"/>
      <component glyphName="circumflex" x="117" y="42" flags="0x4"/>
    </TTGlyph>
    <TTGlyph name="Odieresis" xMin="105" yMin="-21" xMax="1019" yMax="1819">
      <component glyphName="O" x="0" y="0" flags="0x204"/>
      <component glyphName="dieresis" x="125" y="363" flags="0x4"/>
    </TTGlyph>
    <TTGlyph name="Odieresis.smcp" xMin="110" yMin="-17" xMax="918" yMax="1491">
      <component glyphName="O.smcp" x="0" y="0" flags="0x204"/>
      <component glyphName="dieresis" x="63" y="35" flags="0x4"/>
    </TTGlyph>
    <TTGlyph name="Ograve" xMin="105" yMin="-21" xMax="1019" yMax="1848">
      <component glyphName="O" x="0" y="0" flags="0x204"/>
      <component glyphName="grave" x="213" y="372" flags="0x4"/>
    </TTGlyph>
    <TTGlyph name="Ograve.smcp" xMin="110" yMin="-17" xMax="918" yMax="1520">
      <component glyphName="O.smcp" x="0" y="0" flags="0x204"/>
      <component glyphName="grave" x="151" y="44" flags="0x4"/>
    </TTGlyph>
    <TTGlyph name="Ohorn" xMin="112" yMin="-21" xMax="1280" yMax="1627">
      <contour>
        <pt x="1026" y="523" on="1"/>
        <pt x="1026" y="258" on="0"/>
        <pt x="779" y="-21" on="0"/>
        <pt x="564" y="-21" on="1"/>
        <pt x="353" y="-21" on="0"/>
        <pt x="112" y="258" on="0"/>
        <pt x="112" y="523" on="1"/>
        <pt x="112" y="931" on="1"/>
        <pt x="112" y="1196" on="0"/>
        <pt x="352" y="1477" on="0"/>
        <pt x="563" y="1477" on="1"/>
        <pt x="688" y="1477" on="0"/>
        <pt x="882" y="1378" on="0"/>
        <pt x="941" y="1283" on="1"/>
        <pt x="1048" y="1294" on="0"/>
        <pt x="1159" y="1471" on="0"/>
        <pt x="1159" y="1627" on="1"/>
        <pt x="1280" y="1627" on="1"/>
        <pt x="1280" y="1436" on="0"/>
        <pt x="1128" y="1206" on="0"/>
        <pt x="988" y="1182" on="1"/>
        <pt x="1006" y="1128" on="0"/>
        <pt x="1026" y="1002" on="0"/>
        <pt x="1026" y="931" on="1"/>
      </contour>
      <contour>
        <pt x="907" y="934" on="1"/>
        <pt x="907" y="1150" on="0"/>
        <pt x="729" y="1368" on="0"/>
        <pt x="563" y="1368" on="1"/>
        <pt x="402" y="1368" on="0"/>
        <pt x="230" y="1150" on="0"/>
        <pt x="230" y="934" on="1"/>
        <pt x="230" y="523" on="1"/>
        <pt x="230" y="304" on="0"/>
        <pt x="402" y="86" on="0"/>
        <pt x="564" y="86" on="1"/>
        <pt x="730" y="86" on="0"/>
        <pt x="907" y="304" on="0"/>
        <pt x="907" y="523" on="1"/>
      </contour>
    </TTGlyph>
    <TTGlyph name="Ohungarumlaut" xMin="105" yMin="-21" xMax="1019" yMax="1888">
      <component glyphName="O" x="0" y="0" flags="0x204"/>
      <component glyphName="hungarumlaut" x="273" y="370" flags="0x4"/>
    </TTGlyph>
    <TTGlyph name="Ohungarumlaut.smcp" xMin="110" yMin="-17" xMax="918" yMax="1560">
      <component glyphName="O.smcp" x="0" y="0" flags="0x204"/>
      <component glyphName="hungarumlaut" x="211" y="42" flags="0x4"/>
    </TTGlyph>
    <TTGlyph name="Omacron" xMin="105" yMin="-21" xMax="1019" yMax="1807">
      <component glyphName="O" x="0" y="0" flags="0x204"/>
      <component glyphName="macron" x="158" y="351" flags="0x4"/>
    </TTGlyph>
    <TTGlyph name="Omacron.smcp" xMin="110" yMin="-17" xMax="918" yMax="1479">
      <component glyphName="O.smcp" x="0" y="0" flags="0x204"/>
      <component glyphName="macron" x="96" y="23" flags="0x4"/>
    </TTGlyph>
    <TTGlyph name="Omega" xMin="107" yMin="0" xMax="1018" yMax="1477">
      <contour>
        <pt x="626" y="118" on="1"/>
        <pt x="745" y="165" on="0"/>
        <pt x="891" y="465" on="0"/>
        <pt x="891" y="727" on="1"/>
        <pt x="891" y="845" on="1"/>
        <pt x="891" y="1084" on="0"/>
        <pt x="711" y="1371" on="0"/>
        <pt x="560" y="1371" on="1"/>
        <pt x="408" y="1371" on="0"/>
        <pt x="230" y="1084" on="0"/>
        <pt x="230" y="845" on="1"/>
        <pt x="230" y="727" on="1"/>
        <pt x="230" y="464" on="0"/>
        <pt x="379" y="164" on="0"/>
        <pt x="500" y="118" on="1"/>
        <pt x="500" y="0" on="1"/>
        <pt x="107" y="0" on="1"/>
        <pt x="107" y="104" on="1"/>
        <pt x="353" y="104" on="1"/>
        <pt x="241" y="194" on="0"/>
        <pt x="110" y="518" on="0"/>
        <pt x="110" y="727" on="1"/>
        <pt x="110" y="843" on="1"/>
        <pt x="110" y="1126" on="0"/>
        <pt x="358" y="1477" on="0"/>
        <pt x="560" y="1477" on="1"/>
        <pt x="760" y="1477" on="0"/>
        <pt x="1012" y="1126" on="0"/>
        <pt x="1012" y="843" on="1"/>
        <pt x="1012" y="727" on="1"/>
        <pt x="1012" y="519" on="0"/>
        <pt x="879" y="194" on="0"/>
        <pt x="770" y="104" on="1"/>
        <pt x="1018" y="104" on="1"/>
        <pt x="1018" y="0" on="1"/>
        <pt x="626" y="0" on="1"/>
      </contour>
    </TTGlyph>
    <TTGlyph name="Omegatonos" xMin="78" yMin="0" xMax="1038" yMax="1618">
      <component glyphName="Omega" x="20" y="0" flags="0x4"/>
      <component glyphName="tonos" x="-90" y="0" flags="0x4"/>
    </TTGlyph>
    <TTGlyph name="Omicron" xMin="105" yMin="-21" xMax="1019" yMax="1477">
      <component glyphName="O" x="0" y="0" flags="0x204"/>
    </TTGlyph>
    <TTGlyph name="Omicrontonos" xMin="59" yMin="-21" xMax="1039" yMax="1618">
      <component glyphName="O" x="20" y="0" flags="0x4"/>
      <component glyphName="tonos" x="-109" y="0" flags="0x4"/>
    </TTGlyph>
    <TTGlyph name="Oslash" xMin="105" yMin="-85" xMax="1047" yMax="1506">
      <contour>
        <pt x="1019" y="523" on="1"/>
        <pt x="1019" y="258" on="0"/>
        <pt x="772" y="-21" on="0"/>
        <pt x="557" y="-21" on="1"/>
        <pt x="484" y="-21" on="0"/>
        <pt x="359" y="12" on="0"/>
        <pt x="308" y="46" on="1"/>
        <pt x="242" y="-85" on="1"/>
        <pt x="144" y="-85" on="1"/>
        <pt x="239" y="103" on="1"/>
        <pt x="173" y="172" on="0"/>
        <pt x="105" y="383" on="0"/>
        <pt x="105" y="523" on="1"/>
        <pt x="105" y="931" on="1"/>
        <pt x="105" y="1196" on="0"/>
        <pt x="345" y="1477" on="0"/>
        <pt x="556" y="1477" on="1"/>
        <pt x="653" y="1477" on="0"/>
        <pt x="813" y="1417" on="0"/>
        <pt x="873" y="1359" on="1"/>
        <pt x="948" y="1506" on="1"/>
        <pt x="1047" y="1506" on="1"/>
        <pt x="934" y="1283" on="1"/>
        <pt x="975" y="1216" on="0"/>
        <pt x="1019" y="1039" on="0"/>
        <pt x="1019" y="931" on="1"/>
      </contour>
      <contour>
        <pt x="223" y="523" on="1"/>
        <pt x="223" y="422" on="0"/>
        <pt x="258" y="270" on="0"/>
        <pt x="293" y="223" on="1"/>
        <pt x="299" y="222" on="1"/>
        <pt x="818" y="1250" on="1"/>
        <pt x="773" y="1308" on="0"/>
        <pt x="641" y="1368" on="0"/>
        <pt x="556" y="1368" on="1"/>
        <pt x="395" y="1368" on="0"/>
        <pt x="223" y="1150" on="0"/>
        <pt x="223" y="934" on="1"/>
      </contour>
      <contour>
        <pt x="900" y="934" on="1"/>
        <pt x="900" y="998" on="0"/>
        <pt x="884" y="1105" on="0"/>
        <pt x="869" y="1143" on="1"/>
        <pt x="864" y="1144" on="1"/>
        <pt x="359" y="145" on="1"/>
        <pt x="397" y="115" on="0"/>
        <pt x="497" y="86" on="0"/>
        <pt x="557" y="86" on="1"/>
        <pt x="723" y="86" on="0"/>
        <pt x="900" y="304" on="0"/>
        <pt x="900" y="523" on="1"/>
      </contour>
    </TTGlyph>
    <TTGlyph name="Oslashacute" xMin="105" yMin="-85" xMax="1047" yMax="1885">
      <component glyphName="Oslash" x="0" y="0" flags="0x204"/>
      <component glyphName="acute" x="410" y="407" flags="0x4"/>
    </TTGlyph>
    <TTGlyph name="Otilde" xMin="105" yMin="-21" xMax="1019" yMax="1865">
      <component glyphName="O" x="0" y="0" flags="0x204"/>
      <component glyphName="tilde" x="172" y="363" flags="0x4"/>
    </TTGlyph>
    <TTGlyph name="Otilde.smcp" xMin="110" yMin="-17" xMax="918" yMax="1537">
      <component glyphName="O.smcp" x="0" y="0" flags="0x204"/>
      <component glyphName="tilde" x="110" y="35" flags="0x4"/>
    </TTGlyph>
    <TTGlyph name="P" xMin="164" yMin="0" xMax="996" yMax="1456">
      <contour>
        <pt x="284" y="603" on="1"/>
        <pt x="284" y="0" on="1"/>
        <pt x="164" y="0" on="1"/>
        <pt x="164" y="1456" on="1"/>
        <pt x="595" y="1456" on="1"/>
        <pt x="786" y="1456" on="0"/>
        <pt x="996" y="1222" on="0"/>
        <pt x="996" y="1030" on="1"/>
        <pt x="996" y="836" on="0"/>
        <pt x="786" y="603" on="0"/>
        <pt x="595" y="603" on="1"/>
      </contour>
      <contour>
        <pt x="284" y="708" on="1"/>
        <pt x="595" y="708" on="1"/>
        <pt x="735" y="708" on="0"/>
        <pt x="875" y="891" on="0"/>
        <pt x="875" y="1028" on="1"/>
        <pt x="875" y="1167" on="0"/>
        <pt x="735" y="1350" on="0"/>
        <pt x="595" y="1350" on="1"/>
        <pt x="284" y="1350" on="1"/>
      </contour>
    </TTGlyph>
    <TTGlyph name="P.smcp" xMin="144" yMin="0" xMax="863" yMax="1165">
      <contour>
        <pt x="264" y="435" on="1"/>
        <pt x="264" y="0" on="1"/>
        <pt x="144" y="0" on="1"/>
        <pt x="144" y="1165" on="1"/>
        <pt x="517" y="1165" on="1"/>
        <pt x="678" y="1165" on="0"/>
        <pt x="863" y="960" on="0"/>
        <pt x="863" y="799" on="1"/>
        <pt x="863" y="637" on="0"/>
        <pt x="678" y="435" on="0"/>
        <pt x="517" y="435" on="1"/>
      </contour>
      <contour>
        <pt x="264" y="539" on="1"/>
        <pt x="517" y="539" on="1"/>
        <pt x="628" y="539" on="0"/>
        <pt x="742" y="689" on="0"/>
        <pt x="742" y="797" on="1"/>
        <pt x="742" y="909" on="0"/>
        <pt x="628" y="1061" on="0"/>
        <pt x="517" y="1061" on="1"/>
        <pt x="264" y="1061" on="1"/>
      </contour>
    </TTGlyph>
    <TTGlyph name="Phi" xMin="79" yMin="0" xMax="1152" yMax="1456">
      <contour>
        <pt x="676" y="1268" on="1"/>
        <pt x="678" y="1268" on="1"/>
        <pt x="885" y="1268" on="0"/>
        <pt x="1152" y="962" on="0"/>
        <pt x="1152" y="731" on="1"/>
        <pt x="1152" y="498" on="0"/>
        <pt x="885" y="191" on="0"/>
        <pt x="678" y="191" on="1"/>
        <pt x="676" y="191" on="1"/>
        <pt x="676" y="0" on="1"/>
        <pt x="556" y="0" on="1"/>
        <pt x="556" y="191" on="1"/>
        <pt x="551" y="191" on="1"/>
        <pt x="344" y="191" on="0"/>
        <pt x="79" y="496" on="0"/>
        <pt x="79" y="729" on="1"/>
        <pt x="79" y="960" on="0"/>
        <pt x="344" y="1268" on="0"/>
        <pt x="551" y="1268" on="1"/>
        <pt x="556" y="1268" on="1"/>
        <pt x="556" y="1456" on="1"/>
        <pt x="676" y="1456" on="1"/>
      </contour>
      <contour>
        <pt x="551" y="1163" on="1"/>
        <pt x="386" y="1163" on="0"/>
        <pt x="198" y="922" on="0"/>
        <pt x="198" y="729" on="1"/>
        <pt x="198" y="534" on="0"/>
        <pt x="385" y="296" on="0"/>
        <pt x="551" y="296" on="1"/>
        <pt x="556" y="296" on="1"/>
        <pt x="556" y="1163" on="1"/>
      </contour>
      <contour>
        <pt x="676" y="1163" on="1"/>
        <pt x="676" y="296" on="1"/>
        <pt x="680" y="296" on="1"/>
        <pt x="844" y="296" on="0"/>
        <pt x="1032" y="536" on="0"/>
        <pt x="1032" y="731" on="1"/>
        <pt x="1032" y="923" on="0"/>
        <pt x="844" y="1163" on="0"/>
        <pt x="680" y="1163" on="1"/>
      </contour>
    </TTGlyph>
    <TTGlyph name="Pi" xMin="164" yMin="0" xMax="1059" yMax="1456">
      <contour>
        <pt x="1059" y="0" on="1"/>
        <pt x="938" y="0" on="1"/>
        <pt x="938" y="1350" on="1"/>
        <pt x="284" y="1350" on="1"/>
        <pt x="284" y="0" on="1"/>
        <pt x="164" y="0" on="1"/>
        <pt x="164" y="1456" on="1"/>
        <pt x="1059" y="1456" on="1"/>
      </contour>
    </TTGlyph>
    <TTGlyph name="Psi" xMin="102" yMin="0" xMax="1082" yMax="1456">
      <contour>
        <pt x="647" y="463" on="1"/>
        <pt x="653" y="461" on="1"/>
        <pt x="790" y="474" on="0"/>
        <pt x="962" y="705" on="0"/>
        <pt x="962" y="895" on="1"/>
        <pt x="962" y="1456" on="1"/>
        <pt x="1082" y="1456" on="1"/>
        <pt x="1082" y="895" on="1"/>
        <pt x="1082" y="652" on="0"/>
        <pt x="842" y="364" on="0"/>
        <pt x="647" y="347" on="1"/>
        <pt x="647" y="0" on="1"/>
        <pt x="527" y="0" on="1"/>
        <pt x="527" y="347" on="1"/>
        <pt x="335" y="365" on="0"/>
        <pt x="102" y="653" on="0"/>
        <pt x="102" y="895" on="1"/>
        <pt x="102" y="1456" on="1"/>
        <pt x="222" y="1456" on="1"/>
        <pt x="222" y="895" on="1"/>
        <pt x="222" y="707" on="0"/>
        <pt x="387" y="475" on="0"/>
        <pt x="521" y="462" on="1"/>
        <pt x="527" y="464" on="1"/>
        <pt x="527" y="1456" on="1"/>
        <pt x="647" y="1456" on="1"/>
      </contour>
    </TTGlyph>
    <TTGlyph name="Q" xMin="105" yMin="-213" xMax="1091" yMax="1477">
      <contour>
        <pt x="1019" y="523" on="1"/>
        <pt x="1019" y="382" on="0"/>
        <pt x="946" y="170" on="0"/>
        <pt x="879" y="101" on="1"/>
        <pt x="1091" y="-136" on="1"/>
        <pt x="1009" y="-213" on="1"/>
        <pt x="789" y="33" on="1"/>
        <pt x="739" y="6" on="0"/>
        <pt x="623" y="-21" on="0"/>
        <pt x="557" y="-21" on="1"/>
        <pt x="346" y="-21" on="0"/>
        <pt x="105" y="258" on="0"/>
        <pt x="105" y="523" on="1"/>
        <pt x="105" y="931" on="1"/>
        <pt x="105" y="1196" on="0"/>
        <pt x="345" y="1477" on="0"/>
        <pt x="556" y="1477" on="1"/>
        <pt x="771" y="1477" on="0"/>
        <pt x="1019" y="1195" on="0"/>
        <pt x="1019" y="931" on="1"/>
      </contour>
      <contour>
        <pt x="900" y="934" on="1"/>
        <pt x="900" y="1150" on="0"/>
        <pt x="722" y="1368" on="0"/>
        <pt x="556" y="1368" on="1"/>
        <pt x="395" y="1368" on="0"/>
        <pt x="223" y="1150" on="0"/>
        <pt x="223" y="934" on="1"/>
        <pt x="223" y="523" on="1"/>
        <pt x="223" y="304" on="0"/>
        <pt x="395" y="86" on="0"/>
        <pt x="557" y="86" on="1"/>
        <pt x="723" y="86" on="0"/>
        <pt x="900" y="304" on="0"/>
        <pt x="900" y="523" on="1"/>
      </contour>
    </TTGlyph>
    <TTGlyph name="Q.smcp" xMin="110" yMin="-111" xMax="984" yMax="1181">
      <contour>
        <pt x="918" y="461" on="1"/>
        <pt x="918" y="363" on="0"/>
        <pt x="871" y="201" on="0"/>
        <pt x="828" y="140" on="1"/>
        <pt x="984" y="-35" on="1"/>
        <pt x="901" y="-111" on="1"/>
        <pt x="748" y="58" on="1"/>
        <pt x="699" y="21" on="0"/>
        <pt x="582" y="-17" on="0"/>
        <pt x="515" y="-17" on="1"/>
        <pt x="333" y="-17" on="0"/>
        <pt x="110" y="243" on="0"/>
        <pt x="110" y="461" on="1"/>
        <pt x="110" y="704" on="1"/>
        <pt x="110" y="920" on="0"/>
        <pt x="332" y="1181" on="0"/>
        <pt x="513" y="1181" on="1"/>
        <pt x="694" y="1181" on="0"/>
        <pt x="918" y="920" on="0"/>
        <pt x="918" y="704" on="1"/>
      </contour>
      <contour>
        <pt x="798" y="705" on="1"/>
        <pt x="798" y="883" on="0"/>
        <pt x="646" y="1077" on="0"/>
        <pt x="513" y="1077" on="1"/>
        <pt x="380" y="1077" on="0"/>
        <pt x="230" y="883" on="0"/>
        <pt x="230" y="705" on="1"/>
        <pt x="230" y="461" on="1"/>
        <pt x="230" y="280" on="0"/>
        <pt x="381" y="86" on="0"/>
        <pt x="515" y="86" on="1"/>
        <pt x="647" y="86" on="0"/>
        <pt x="798" y="280" on="0"/>
        <pt x="798" y="461" on="1"/>
      </contour>
    </TTGlyph>
    <TTGlyph name="R" xMin="162" yMin="0" xMax="1038" yMax="1455">
      <contour>
        <pt x="282" y="657" on="1"/>
        <pt x="282" y="0" on="1"/>
        <pt x="162" y="0" on="1"/>
        <pt x="162" y="1455" on="1"/>
        <pt x="580" y="1455" on="1"/>
        <pt x="776" y="1455" on="0"/>
        <pt x="984" y="1249" on="0"/>
        <pt x="984" y="1052" on="1"/>
        <pt x="984" y="936" on="0"/>
        <pt x="874" y="755" on="0"/>
        <pt x="773" y="712" on="1"/>
        <pt x="884" y="678" on="0"/>
        <pt x="981" y="502" on="0"/>
        <pt x="981" y="371" on="1"/>
        <pt x="981" y="234" on="1"/>
        <pt x="981" y="166" on="0"/>
        <pt x="1007" y="58" on="0"/>
        <pt x="1038" y="24" on="1"/>
        <pt x="1038" y="0" on="1"/>
        <pt x="915" y="0" on="1"/>
        <pt x="884" y="36" on="0"/>
        <pt x="861" y="164" on="0"/>
        <pt x="861" y="236" on="1"/>
        <pt x="861" y="369" on="1"/>
        <pt x="861" y="501" on="0"/>
        <pt x="727" y="657" on="0"/>
        <pt x="610" y="657" on="1"/>
      </contour>
      <contour>
        <pt x="282" y="761" on="1"/>
        <pt x="566" y="761" on="1"/>
        <pt x="720" y="761" on="0"/>
        <pt x="863" y="918" on="0"/>
        <pt x="863" y="1053" on="1"/>
        <pt x="863" y="1196" on="0"/>
        <pt x="723" y="1350" on="0"/>
        <pt x="580" y="1350" on="1"/>
        <pt x="282" y="1350" on="1"/>
      </contour>
    </TTGlyph>
    <TTGlyph name="R.smcp" xMin="144" yMin="0" xMax="878" yMax="1165">
      <contour>
        <pt x="264" y="507" on="1"/>
        <pt x="264" y="0" on="1"/>
        <pt x="144" y="0" on="1"/>
        <pt x="144" y="1165" on="1"/>
        <pt x="516" y="1165" on="1"/>
        <pt x="681" y="1165" on="0"/>
        <pt x="859" y="993" on="0"/>
        <pt x="859" y="835" on="1"/>
        <pt x="859" y="738" on="0"/>
        <pt x="775" y="600" on="0"/>
        <pt x="693" y="564" on="1"/>
        <pt x="781" y="536" on="0"/>
        <pt x="858" y="395" on="0"/>
        <pt x="858" y="290" on="1"/>
        <pt x="858" y="172" on="1"/>
        <pt x="858" y="123" on="0"/>
        <pt x="866" y="41" on="0"/>
        <pt x="878" y="19" on="1"/>
        <pt x="878" y="0" on="1"/>
        <pt x="753" y="0" on="1"/>
        <pt x="743" y="23" on="0"/>
        <pt x="738" y="121" on="0"/>
        <pt x="738" y="173" on="1"/>
        <pt x="738" y="289" on="1"/>
        <pt x="738" y="392" on="0"/>
        <pt x="637" y="507" on="0"/>
        <pt x="544" y="507" on="1"/>
      </contour>
      <contour>
        <pt x="264" y="611" on="1"/>
        <pt x="516" y="611" on="1"/>
        <pt x="632" y="611" on="0"/>
        <pt x="738" y="722" on="0"/>
        <pt x="738" y="831" on="1"/>
        <pt x="738" y="942" on="0"/>
        <pt x="632" y="1061" on="0"/>
        <pt x="516" y="1061" on="1"/>
        <pt x="264" y="1061" on="1"/>
      </contour>
    </TTGlyph>
    <TTGlyph name="Racute" xMin="162" yMin="0" xMax="1038" yMax="1823">
      <component glyphName="R" x="0" y="0" flags="0x204"/>
      <component glyphName="acute" x="336" y="345" flags="0x4"/>
    </TTGlyph>
    <TTGlyph name="Racute.smcp" xMin="144" yMin="0" xMax="878" yMax="1500">
      <component glyphName="R.smcp" x="0" y="0" flags="0x204"/>
      <component glyphName="acute" x="241" y="22" flags="0x4"/>
    </TTGlyph>
    <TTGlyph name="Rcaron" xMin="162" yMin="0" xMax="1038" yMax="1846">
      <component glyphName="R" x="0" y="0" flags="0x204"/>
      <component glyphName="caron" x="154" y="351" flags="0x4"/>
    </TTGlyph>
    <TTGlyph name="Rcaron.smcp" xMin="144" yMin="0" xMax="878" yMax="1523">
      <component glyphName="R.smcp" x="0" y="0" flags="0x204"/>
      <component glyphName="caron" x="59" y="28" flags="0x4"/>
    </TTGlyph>
    <TTGlyph name="Rcommaaccent" xMin="162" yMin="-462" xMax="1038" yMax="1455">
      <component glyphName="R" x="0" y="0" flags="0x204"/>
      <component glyphName="commaaccent" x="304" y="-309" flags="0x4"/>
    </TTGlyph>
    <TTGlyph name="Rcommaaccent.smcp" xMin="144" yMin="-462" xMax="878" yMax="1165">
      <component glyphName="R.smcp" x="0" y="0" flags="0x204"/>
      <component glyphName="commaaccent" x="209" y="-309" flags="0x4"/>
    </TTGlyph>
    <TTGlyph name="Rho" xMin="164" yMin="0" xMax="996" yMax="1456">
      <component glyphName="P" x="0" y="0" flags="0x204"/>
    </TTGlyph>
    <TTGlyph name="S" xMin="86" yMin="-21" xMax="963" yMax="1477">
      <contour>
        <pt x="842" y="357" on="1"/>
        <pt x="842" y="476" on="0"/>
        <pt x="703" y="625" on="0"/>
        <pt x="528" y="682" on="1"/>
        <pt x="329" y="743" on="0"/>
        <pt x="124" y="936" on="0"/>
        <pt x="124" y="1098" on="1"/>
        <pt x="124" y="1265" on="0"/>
        <pt x="353" y="1477" on="0"/>
        <pt x="534" y="1477" on="1"/>
        <pt x="724" y="1477" on="0"/>
        <pt x="955" y="1227" on="0"/>
        <pt x="952" y="1047" on="1"/>
        <pt x="949" y="1041" on="1"/>
        <pt x="836" y="1041" on="1"/>
        <pt x="836" y="1186" on="0"/>
        <pt x="675" y="1371" on="0"/>
        <pt x="534" y="1371" on="1"/>
        <pt x="397" y="1371" on="0"/>
        <pt x="245" y="1217" on="0"/>
        <pt x="245" y="1101" on="1"/>
        <pt x="245" y="993" on="0"/>
        <pt x="392" y="846" on="0"/>
        <pt x="568" y="791" on="1"/>
        <pt x="762" y="731" on="0"/>
        <pt x="963" y="526" on="0"/>
        <pt x="963" y="359" on="1"/>
        <pt x="963" y="184" on="0"/>
        <pt x="726" y="-21" on="0"/>
        <pt x="540" y="-21" on="1"/>
        <pt x="357" y="-21" on="0"/>
        <pt x="86" y="199" on="0"/>
        <pt x="91" y="408" on="1"/>
        <pt x="93" y="414" on="1"/>
        <pt x="205" y="414" on="1"/>
        <pt x="205" y="244" on="0"/>
        <pt x="402" y="83" on="0"/>
        <pt x="540" y="83" on="1"/>
        <pt x="676" y="83" on="0"/>
        <pt x="842" y="233" on="0"/>
      </contour>
    </TTGlyph>
    <TTGlyph name="S.smcp" xMin="92" yMin="-17" xMax="856" yMax="1181">
      <contour>
        <pt x="735" y="291" on="1"/>
        <pt x="735" y="376" on="0"/>
        <pt x="622" y="479" on="0"/>
        <pt x="471" y="529" on="1"/>
        <pt x="291" y="586" on="0"/>
        <pt x="125" y="730" on="0"/>
        <pt x="125" y="872" on="1"/>
        <pt x="125" y="1013" on="0"/>
        <pt x="319" y="1181" on="0"/>
        <pt x="484" y="1181" on="1"/>
        <pt x="652" y="1181" on="0"/>
        <pt x="841" y="998" on="0"/>
        <pt x="837" y="834" on="1"/>
        <pt x="835" y="828" on="1"/>
        <pt x="723" y="828" on="1"/>
        <pt x="723" y="938" on="0"/>
        <pt x="597" y="1077" on="0"/>
        <pt x="484" y="1077" on="1"/>
        <pt x="366" y="1077" on="0"/>
        <pt x="246" y="961" on="0"/>
        <pt x="246" y="873" on="1"/>
        <pt x="246" y="786" on="0"/>
        <pt x="350" y="686" on="0"/>
        <pt x="510" y="635" on="1"/>
        <pt x="688" y="578" on="0"/>
        <pt x="856" y="431" on="0"/>
        <pt x="856" y="292" on="1"/>
        <pt x="856" y="147" on="0"/>
        <pt x="649" y="-17" on="0"/>
        <pt x="475" y="-17" on="1"/>
        <pt x="312" y="-17" on="0"/>
        <pt x="92" y="150" on="0"/>
        <pt x="97" y="330" on="1"/>
        <pt x="99" y="336" on="1"/>
        <pt x="212" y="336" on="1"/>
        <pt x="212" y="205" on="0"/>
        <pt x="365" y="86" on="0"/>
        <pt x="475" y="86" on="1"/>
        <pt x="597" y="86" on="0"/>
        <pt x="735" y="203" on="0"/>
      </contour>
    </TTGlyph>
    <TTGlyph name="Sacute" xMin="86" yMin="-21" xMax="963" yMax="1844">
      <component glyphName="S" x="0" y="0" flags="0x204"/>
      <component glyphName="acute" x="337" y="366" flags="0x4"/>
    </TTGlyph>
    <TTGlyph name="Sacute.smcp" xMin="92" yMin="-17" xMax="856" yMax="1516">
      <component glyphName="S.smcp" x="0" y="0" flags="0x204"/>
      <component glyphName="acute" x="287" y="38" flags="0x4"/>
    </TTGlyph>
    <TTGlyph name="Scaron" xMin="86" yMin="-21" xMax="963" yMax="1867">
      <component glyphName="S" x="0" y="0" flags="0x204"/>
      <component glyphName="caron" x="155" y="372" flags="0x4"/>
    </TTGlyph>
    <TTGlyph name="Scaron.smcp" xMin="92" yMin="-17" xMax="856" yMax="1539">
      <component glyphName="S.smcp" x="0" y="0" flags="0x204"/>
      <component glyphName="caron" x="105" y="44" flags="0x4"/>
    </TTGlyph>
    <TTGlyph name="Scedilla" xMin="86" yMin="-443" xMax="963" yMax="1477">
      <component glyphName="S" x="0" y="0" flags="0x204"/>
      <component glyphName="cedilla" x="343" y="-8" flags="0x4"/>
    </TTGlyph>
    <TTGlyph name="Scedilla.smcp" xMin="92" yMin="-440" xMax="856" yMax="1181">
      <component glyphName="S.smcp" x="0" y="0" flags="0x204"/>
      <component glyphName="cedilla" x="293" y="-5" flags="0x4"/>
    </TTGlyph>
    <TTGlyph name="Scircumflex" xMin="86" yMin="-21" xMax="963" yMax="1865">
      <component glyphName="S" x="0" y="0" flags="0x204"/>
      <component glyphName="circumflex" x="138" y="370" flags="0x4"/>
    </TTGlyph>
    <TTGlyph name="Scircumflex.smcp" xMin="92" yMin="-17" xMax="856" yMax="1537">
      <component glyphName="S.smcp" x="0" y="0" flags="0x204"/>
      <component glyphName="circumflex" x="88" y="42" flags="0x4"/>
    </TTGlyph>
    <TTGlyph name="Sigma" xMin="63" yMin="0" xMax="903" yMax="1456">
      <contour>
        <pt x="607" y="741" on="1"/>
        <pt x="200" y="104" on="1"/>
        <pt x="903" y="104" on="1"/>
        <pt x="903" y="0" on="1"/>
        <pt x="63" y="0" on="1"/>
        <pt x="63" y="95" on="1"/>
        <pt x="480" y="757" on="1"/>
        <pt x="63" y="1360" on="1"/>
        <pt x="63" y="1456" on="1"/>
        <pt x="859" y="1456" on="1"/>
        <pt x="859" y="1351" on="1"/>
        <pt x="207" y="1351" on="1"/>
        <pt x="607" y="776" on="1"/>
      </contour>
    </TTGlyph>
    <TTGlyph name="T" xMin="43" yMin="0" xMax="976" yMax="1456">
      <contour>
        <pt x="976" y="1350" on="1"/>
        <pt x="569" y="1350" on="1"/>
        <pt x="569" y="0" on="1"/>
        <pt x="449" y="0" on="1"/>
        <pt x="449" y="1350" on="1"/>
        <pt x="43" y="1350" on="1"/>
        <pt x="43" y="1456" on="1"/>
        <pt x="976" y="1456" on="1"/>
      </contour>
    </TTGlyph>
    <TTGlyph name="T.smcp" xMin="68" yMin="0" xMax="812" yMax="1165">
      <contour>
        <pt x="812" y="1061" on="1"/>
        <pt x="495" y="1061" on="1"/>
        <pt x="495" y="0" on="1"/>
        <pt x="375" y="0" on="1"/>
        <pt x="375" y="1061" on="1"/>
        <pt x="68" y="1061" on="1"/>
        <pt x="68" y="1165" on="1"/>
        <pt x="812" y="1165" on="1"/>
      </contour>
    </TTGlyph>
    <TTGlyph name="Tau" xMin="43" yMin="0" xMax="976" yMax="1456">
      <component glyphName="T" x="0" y="0" flags="0x204"/>
    </TTGlyph>
    <TTGlyph name="Tbar" xMin="43" yMin="0" xMax="976" yMax="1456">
      <contour>
        <pt x="759" y="833" on="1"/>
        <pt x="569" y="833" on="1"/>
        <pt x="569" y="0" on="1"/>
        <pt x="449" y="0" on="1"/>
        <pt x="449" y="833" on="1"/>
        <pt x="244" y="833" on="1"/>
        <pt x="244" y="937" on="1"/>
        <pt x="449" y="937" on="1"/>
        <pt x="449" y="1350" on="1"/>
        <pt x="43" y="1350" on="1"/>
        <pt x="43" y="1456" on="1"/>
        <pt x="976" y="1456" on="1"/>
        <pt x="976" y="1350" on="1"/>
        <pt x="569" y="1350" on="1"/>
        <pt x="569" y="937" on="1"/>
        <pt x="759" y="937" on="1"/>
      </contour>
    </TTGlyph>
    <TTGlyph name="Tbar.smcp" xMin="68" yMin="0" xMax="812" yMax="1165">
      <contour>
        <pt x="687" y="656" on="1"/>
        <pt x="495" y="656" on="1"/>
        <pt x="495" y="0" on="1"/>
        <pt x="375" y="0" on="1"/>
        <pt x="375" y="656" on="1"/>
        <pt x="172" y="656" on="1"/>
        <pt x="172" y="760" on="1"/>
        <pt x="375" y="760" on="1"/>
        <pt x="375" y="1061" on="1"/>
        <pt x="68" y="1061" on="1"/>
        <pt x="68" y="1165" on="1"/>
        <pt x="812" y="1165" on="1"/>
        <pt x="812" y="1061" on="1"/>
        <pt x="495" y="1061" on="1"/>
        <pt x="495" y="760" on="1"/>
        <pt x="687" y="760" on="1"/>
      </contour>
    </TTGlyph>
    <TTGlyph name="Tcaron" xMin="43" yMin="0" xMax="976" yMax="1841">
      <component glyphName="T" x="0" y="0" flags="0x204"/>
      <component glyphName="caron" x="146" y="346" flags="0x4"/>
    </TTGlyph>
    <TTGlyph name="Tcaron.smcp" xMin="68" yMin="0" xMax="812" yMax="1519">
      <component glyphName="T.smcp" x="0" y="0" flags="0x204"/>
      <component glyphName="caron" x="71" y="24" flags="0x4"/>
    </TTGlyph>
    <TTGlyph name="Tcommaaccent.smcp" xMin="68" yMin="-462" xMax="812" yMax="1165">
      <component glyphName="T.smcp" x="0" y="0" flags="0x204"/>
      <component glyphName="commaaccent" x="221" y="-309" flags="0x4"/>
    </TTGlyph>
    <TTGlyph name="Theta" xMin="105" yMin="-21" xMax="1019" yMax="1477">
      <contour>
        <pt x="808" y="675" on="1"/>
        <pt x="361" y="675" on="1"/>
        <pt x="361" y="779" on="1"/>
        <pt x="808" y="779" on="1"/>
      </contour>
      <contour>
        <pt x="1019" y="523" on="1"/>
        <pt x="1019" y="258" on="0"/>
        <pt x="772" y="-21" on="0"/>
        <pt x="557" y="-21" on="1"/>
        <pt x="346" y="-21" on="0"/>
        <pt x="105" y="258" on="0"/>
        <pt x="105" y="523" on="1"/>
        <pt x="105" y="931" on="1"/>
        <pt x="105" y="1196" on="0"/>
        <pt x="345" y="1477" on="0"/>
        <pt x="556" y="1477" on="1"/>
        <pt x="771" y="1477" on="0"/>
        <pt x="1019" y="1195" on="0"/>
        <pt x="1019" y="931" on="1"/>
      </contour>
      <contour>
        <pt x="900" y="934" on="1"/>
        <pt x="900" y="1150" on="0"/>
        <pt x="722" y="1368" on="0"/>
        <pt x="556" y="1368" on="1"/>
        <pt x="395" y="1368" on="0"/>
        <pt x="223" y="1150" on="0"/>
        <pt x="223" y="934" on="1"/>
        <pt x="223" y="523" on="1"/>
        <pt x="223" y="304" on="0"/>
        <pt x="395" y="86" on="0"/>
        <pt x="557" y="86" on="1"/>
        <pt x="723" y="86" on="0"/>
        <pt x="900" y="304" on="0"/>
        <pt x="900" y="523" on="1"/>
      </contour>
    </TTGlyph>
    <TTGlyph name="Thorn" xMin="155" yMin="0" xMax="924" yMax="1456">
      <contour>
        <pt x="275" y="1456" on="1"/>
        <pt x="275" y="1153" on="1"/>
        <pt x="529" y="1153" on="1"/>
        <pt x="715" y="1153" on="0"/>
        <pt x="924" y="922" on="0"/>
        <pt x="924" y="738" on="1"/>
        <pt x="924" y="552" on="0"/>
        <pt x="715" y="323" on="0"/>
        <pt x="529" y="323" on="1"/>
        <pt x="275" y="323" on="1"/>
        <pt x="275" y="0" on="1"/>
        <pt x="155" y="0" on="1"/>
        <pt x="155" y="1456" on="1"/>
      </contour>
      <contour>
        <pt x="275" y="1048" on="1"/>
        <pt x="275" y="427" on="1"/>
        <pt x="529" y="427" on="1"/>
        <pt x="665" y="427" on="0"/>
        <pt x="803" y="609" on="0"/>
        <pt x="803" y="736" on="1"/>
        <pt x="803" y="865" on="0"/>
        <pt x="665" y="1048" on="0"/>
        <pt x="529" y="1048" on="1"/>
      </contour>
    </TTGlyph>
    <TTGlyph name="U" xMin="137" yMin="-21" xMax="985" yMax="1456">
      <contour>
        <pt x="985" y="1456" on="1"/>
        <pt x="985" y="437" on="1"/>
        <pt x="985" y="214" on="0"/>
        <pt x="747" y="-21" on="0"/>
        <pt x="556" y="-21" on="1"/>
        <pt x="369" y="-21" on="0"/>
        <pt x="137" y="214" on="0"/>
        <pt x="137" y="437" on="1"/>
        <pt x="137" y="1456" on="1"/>
        <pt x="255" y="1456" on="1"/>
        <pt x="255" y="437" on="1"/>
        <pt x="255" y="266" on="0"/>
        <pt x="422" y="83" on="0"/>
        <pt x="556" y="83" on="1"/>
        <pt x="697" y="83" on="0"/>
        <pt x="866" y="258" on="0"/>
        <pt x="866" y="437" on="1"/>
        <pt x="866" y="1456" on="1"/>
      </contour>
    </TTGlyph>
    <TTGlyph name="U.smcp" xMin="133" yMin="-17" xMax="941" yMax="1165">
      <contour>
        <pt x="941" y="1165" on="1"/>
        <pt x="941" y="394" on="1"/>
        <pt x="941" y="201" on="0"/>
        <pt x="716" y="-17" on="0"/>
        <pt x="537" y="-17" on="1"/>
        <pt x="358" y="-17" on="0"/>
        <pt x="133" y="201" on="0"/>
        <pt x="133" y="394" on="1"/>
        <pt x="133" y="1165" on="1"/>
        <pt x="253" y="1165" on="1"/>
        <pt x="253" y="394" on="1"/>
        <pt x="253" y="252" on="0"/>
        <pt x="412" y="86" on="0"/>
        <pt x="537" y="86" on="1"/>
        <pt x="663" y="86" on="0"/>
        <pt x="821" y="251" on="0"/>
        <pt x="821" y="394" on="1"/>
        <pt x="821" y="1165" on="1"/>
      </contour>
    </TTGlyph>
    <TTGlyph name="Uacute" xMin="137" yMin="-21" xMax="985" yMax="1823">
      <component glyphName="U" x="0" y="0" flags="0x204"/>
      <component glyphName="acute" x="383" y="345" flags="0x4"/>
    </TTGlyph>
    <TTGlyph name="Uacute.smcp" xMin="133" yMin="-17" xMax="941" yMax="1501">
      <component glyphName="U.smcp" x="0" y="0" flags="0x204"/>
      <component glyphName="acute" x="348" y="23" flags="0x4"/>
    </TTGlyph>
    <TTGlyph name="Ubreve" xMin="137" yMin="-21" xMax="985" yMax="1855">
      <component glyphName="U" x="0" y="0" flags="0x204"/>
      <component glyphName="breve" x="183" y="399" flags="0x4"/>
    </TTGlyph>
    <TTGlyph name="Ubreve.smcp" xMin="133" yMin="-17" xMax="941" yMax="1533">
      <component glyphName="U.smcp" x="0" y="0" flags="0x204"/>
      <component glyphName="breve" x="148" y="77" flags="0x4"/>
    </TTGlyph>
    <TTGlyph name="Ucircumflex" xMin="137" yMin="-21" xMax="985" yMax="1844">
      <component glyphName="U" x="0" y="0" flags="0x204"/>
      <component glyphName="circumflex" x="184" y="349" flags="0x4"/>
    </TTGlyph>
    <TTGlyph name="Ucircumflex.smcp" xMin="133" yMin="-17" xMax="941" yMax="1522">
      <component glyphName="U.smcp" x="0" y="0" flags="0x204"/>
      <component glyphName="circumflex" x="149" y="27" flags="0x4"/>
    </TTGlyph>
    <TTGlyph name="Udieresis" xMin="137" yMin="-21" xMax="985" yMax="1798">
      <component glyphName="U" x="0" y="0" flags="0x204"/>
      <component glyphName="dieresis" x="130" y="342" flags="0x4"/>
    </TTGlyph>
    <TTGlyph name="Udieresis.smcp" xMin="133" yMin="-17" xMax="941" yMax="1476">
      <component glyphName="U.smcp" x="0" y="0" flags="0x204"/>
      <component glyphName="dieresis" x="95" y="20" flags="0x4"/>
    </TTGlyph>
    <TTGlyph name="Ugrave" xMin="137" yMin="-21" xMax="985" yMax="1827">
      <component glyphName="U" x="0" y="0" flags="0x204"/>
      <component glyphName="grave" x="218" y="351" flags="0x4"/>
    </TTGlyph>
    <TTGlyph name="Ugrave.smcp" xMin="133" yMin="-17" xMax="941" yMax="1505">
      <component glyphName="U.smcp" x="0" y="0" flags="0x204"/>
      <component glyphName="grave" x="183" y="29" flags="0x4"/>
    </TTGlyph>
    <TTGlyph name="Uhorn" xMin="137" yMin="-21" xMax="1336" yMax="1590">
      <contour>
        <pt x="985" y="1456" on="1"/>
        <pt x="985" y="1248" on="1"/>
        <pt x="991" y="1246" on="1"/>
        <pt x="1099" y="1255" on="0"/>
        <pt x="1215" y="1434" on="0"/>
        <pt x="1215" y="1590" on="1"/>
        <pt x="1336" y="1590" on="1"/>
        <pt x="1336" y="1386" on="0"/>
        <pt x="1153" y="1154" on="0"/>
        <pt x="985" y="1140" on="1"/>
        <pt x="985" y="437" on="1"/>
        <pt x="985" y="214" on="0"/>
        <pt x="747" y="-21" on="0"/>
        <pt x="556" y="-21" on="1"/>
        <pt x="369" y="-21" on="0"/>
        <pt x="137" y="214" on="0"/>
        <pt x="137" y="437" on="1"/>
        <pt x="137" y="1456" on="1"/>
        <pt x="255" y="1456" on="1"/>
        <pt x="255" y="437" on="1"/>
        <pt x="255" y="266" on="0"/>
        <pt x="422" y="83" on="0"/>
        <pt x="556" y="83" on="1"/>
        <pt x="697" y="83" on="0"/>
        <pt x="866" y="258" on="0"/>
        <pt x="866" y="437" on="1"/>
        <pt x="866" y="1456" on="1"/>
      </contour>
    </TTGlyph>
    <TTGlyph name="Uhungarumlaut" xMin="137" yMin="-21" xMax="985" yMax="1867">
      <component glyphName="U" x="0" y="0" flags="0x204"/>
      <component glyphName="hungarumlaut" x="278" y="349" flags="0x4"/>
    </TTGlyph>
    <TTGlyph name="Uhungarumlaut.smcp" xMin="133" yMin="-17" xMax="941" yMax="1545">
      <component glyphName="U.smcp" x="0" y="0" flags="0x204"/>
      <component glyphName="hungarumlaut" x="243" y="27" flags="0x4"/>
    </TTGlyph>
    <TTGlyph name="Umacron" xMin="137" yMin="-21" xMax="985" yMax="1786">
      <component glyphName="U" x="0" y="0" flags="0x204"/>
      <component glyphName="macron" x="163" y="330" flags="0x4"/>
    </TTGlyph>
    <TTGlyph name="Umacron.smcp" xMin="133" yMin="-17" xMax="941" yMax="1464">
      <component glyphName="U.smcp" x="0" y="0" flags="0x204"/>
      <component glyphName="macron" x="128" y="8" flags="0x4"/>
    </TTGlyph>
    <TTGlyph name="Uogonek" xMin="137" yMin="-394" xMax="985" yMax="1456">
      <component glyphName="U" x="0" y="0" flags="0x204"/>
      <component glyphName="ogonek" x="336" y="0" flags="0x4"/>
    </TTGlyph>
    <TTGlyph name="Uogonek.smcp" xMin="133" yMin="-394" xMax="941" yMax="1165">
      <component glyphName="U.smcp" x="0" y="0" flags="0x204"/>
      <component glyphName="ogonek" x="314" y="0" flags="0x4"/>
    </TTGlyph>
    <TTGlyph name="Upsilon" xMin="35" yMin="0" xMax="1019" yMax="1456">
      <component glyphName="Y" x="0" y="0" flags="0x204"/>
    </TTGlyph>
    <TTGlyph name="Upsilondieresis" xMin="35" yMin="0" xMax="1019" yMax="1791">
      <component glyphName="Y" x="0" y="0" flags="0x204"/>
      <component glyphName="dieresis" x="92" y="335" flags="0x4"/>
    </TTGlyph>
    <TTGlyph name="Upsilontonos" xMin="-64" yMin="0" xMax="1119" yMax="1618">
      <component glyphName="Y" x="100" y="0" flags="0x4"/>
      <component glyphName="tonos" x="-232" y="0" flags="0x4"/>
    </TTGlyph>
    <TTGlyph name="Uring" xMin="137" yMin="-21" xMax="985" yMax="1899">
      <component glyphName="U" x="0" y="0" flags="0x204"/>
      <component glyphName="ring" x="259" y="408" flags="0x4"/>
    </TTGlyph>
    <TTGlyph name="Uring.smcp" xMin="133" yMin="-17" xMax="941" yMax="1577">
      <component glyphName="U.smcp" x="0" y="0" flags="0x204"/>
      <component glyphName="ring" x="224" y="86" flags="0x4"/>
    </TTGlyph>
    <TTGlyph name="Utilde" xMin="137" yMin="-21" xMax="985" yMax="1844">
      <component glyphName="U" x="0" y="0" flags="0x204"/>
      <component glyphName="tilde" x="177" y="342" flags="0x4"/>
    </TTGlyph>
    <TTGlyph name="Utilde.smcp" xMin="133" yMin="-17" xMax="941" yMax="1522">
      <component glyphName="U.smcp" x="0" y="0" flags="0x204"/>
      <component glyphName="tilde" x="142" y="20" flags="0x4"/>
    </TTGlyph>
    <TTGlyph name="V" xMin="35" yMin="0" xMax="1042" yMax="1456">
      <contour>
        <pt x="512" y="252" on="1"/>
        <pt x="536" y="162" on="1"/>
        <pt x="542" y="162" on="1"/>
        <pt x="567" y="252" on="1"/>
        <pt x="912" y="1456" on="1"/>
        <pt x="1042" y="1456" on="1"/>
        <pt x="593" y="0" on="1"/>
        <pt x="484" y="0" on="1"/>
        <pt x="35" y="1456" on="1"/>
        <pt x="165" y="1456" on="1"/>
      </contour>
    </TTGlyph>
    <TTGlyph name="V.smcp" xMin="52" yMin="0" xMax="945" yMax="1165">
      <contour>
        <pt x="478" y="212" on="1"/>
        <pt x="495" y="144" on="1"/>
        <pt x="501" y="144" on="1"/>
        <pt x="520" y="211" on="1"/>
        <pt x="816" y="1165" on="1"/>
        <pt x="945" y="1165" on="1"/>
        <pt x="556" y="0" on="1"/>
        <pt x="441" y="0" on="1"/>
        <pt x="52" y="1165" on="1"/>
        <pt x="182" y="1165" on="1"/>
      </contour>
    </TTGlyph>
    <TTGlyph name="W" xMin="56" yMin="0" xMax="1469" yMax="1456">
      <contour>
        <pt x="385" y="417" on="1"/>
        <pt x="416" y="220" on="1"/>
        <pt x="422" y="219" on="1"/>
        <pt x="463" y="417" on="1"/>
        <pt x="707" y="1456" on="1"/>
        <pt x="817" y="1456" on="1"/>
        <pt x="1063" y="417" on="1"/>
        <pt x="1103" y="217" on="1"/>
        <pt x="1109" y="217" on="1"/>
        <pt x="1142" y="417" on="1"/>
        <pt x="1347" y="1456" on="1"/>
        <pt x="1469" y="1456" on="1"/>
        <pt x="1165" y="0" on="1"/>
        <pt x="1054" y="0" on="1"/>
        <pt x="794" y="1111" on="1"/>
        <pt x="766" y="1246" on="1"/>
        <pt x="760" y="1246" on="1"/>
        <pt x="734" y="1111" on="1"/>
        <pt x="470" y="0" on="1"/>
        <pt x="359" y="0" on="1"/>
        <pt x="56" y="1456" on="1"/>
        <pt x="177" y="1456" on="1"/>
      </contour>
    </TTGlyph>
    <TTGlyph name="W.smcp" xMin="69" yMin="0" xMax="1229" yMax="1165">
      <contour>
        <pt x="371" y="277" on="1"/>
        <pt x="382" y="198" on="1"/>
        <pt x="388" y="198" on="1"/>
        <pt x="400" y="279" on="1"/>
        <pt x="592" y="1165" on="1"/>
        <pt x="707" y="1165" on="1"/>
        <pt x="900" y="277" on="1"/>
        <pt x="911" y="192" on="1"/>
        <pt x="917" y="192" on="1"/>
        <pt x="931" y="279" on="1"/>
        <pt x="1100" y="1165" on="1"/>
        <pt x="1229" y="1165" on="1"/>
        <pt x="974" y="0" on="1"/>
        <pt x="861" y="0" on="1"/>
        <pt x="657" y="915" on="1"/>
        <pt x="653" y="943" on="1"/>
        <pt x="647" y="943" on="1"/>
        <pt x="643" y="915" on="1"/>
        <pt x="437" y="0" on="1"/>
        <pt x="323" y="0" on="1"/>
        <pt x="69" y="1165" on="1"/>
        <pt x="197" y="1165" on="1"/>
      </contour>
    </TTGlyph>
    <TTGlyph name="Wacute" xMin="56" yMin="0" xMax="1469" yMax="1823">
      <component glyphName="W" x="0" y="0" flags="0x204"/>
      <component glyphName="acute" x="580" y="345" flags="0x4"/>
    </TTGlyph>
    <TTGlyph name="Wcircumflex" xMin="56" yMin="0" xMax="1469" yMax="1844">
      <component glyphName="W" x="0" y="0" flags="0x204"/>
      <component glyphName="circumflex" x="381" y="349" flags="0x4"/>
    </TTGlyph>
    <TTGlyph name="Wcircumflex.smcp" xMin="69" yMin="0" xMax="1229" yMax="1521">
      <component glyphName="W.smcp" x="0" y="0" flags="0x204"/>
      <component glyphName="circumflex" x="260" y="26" flags="0x4"/>
    </TTGlyph>
    <TTGlyph name="Wdieresis" xMin="56" yMin="0" xMax="1469" yMax="1798">
      <component glyphName="W" x="0" y="0" flags="0x204"/>
      <component glyphName="dieresis" x="327" y="342" flags="0x4"/>
    </TTGlyph>
    <TTGlyph name="Wgrave" xMin="56" yMin="0" xMax="1469" yMax="1827">
      <component glyphName="W" x="0" y="0" flags="0x204"/>
      <component glyphName="grave" x="415" y="351" flags="0x4"/>
    </TTGlyph>
    <TTGlyph name="X" xMin="59" yMin="0" xMax="1015" yMax="1456">
      <contour>
        <pt x="536" y="836" on="1"/>
        <pt x="857" y="1456" on="1"/>
        <pt x="1002" y="1456" on="1"/>
        <pt x="607" y="738" on="1"/>
        <pt x="1015" y="0" on="1"/>
        <pt x="871" y="0" on="1"/>
        <pt x="538" y="639" on="1"/>
        <pt x="205" y="0" on="1"/>
        <pt x="59" y="0" on="1"/>
        <pt x="467" y="738" on="1"/>
        <pt x="71" y="1456" on="1"/>
        <pt x="216" y="1456" on="1"/>
      </contour>
    </TTGlyph>
    <TTGlyph name="X.smcp" xMin="57" yMin="0" xMax="897" yMax="1165">
      <contour>
        <pt x="476" y="687" on="1"/>
        <pt x="744" y="1165" on="1"/>
        <pt x="887" y="1165" on="1"/>
        <pt x="549" y="590" on="1"/>
        <pt x="897" y="0" on="1"/>
        <pt x="756" y="0" on="1"/>
        <pt x="477" y="491" on="1"/>
        <pt x="201" y="0" on="1"/>
        <pt x="57" y="0" on="1"/>
        <pt x="406" y="590" on="1"/>
        <pt x="67" y="1165" on="1"/>
        <pt x="210" y="1165" on="1"/>
      </contour>
    </TTGlyph>
    <TTGlyph name="Xi" xMin="107" yMin="0" xMax="874" yMax="1456">
      <contour>
        <pt x="107" y="104" on="1"/>
        <pt x="874" y="104" on="1"/>
        <pt x="874" y="0" on="1"/>
        <pt x="107" y="0" on="1"/>
      </contour>
      <contour>
        <pt x="184" y="786" on="1"/>
        <pt x="791" y="786" on="1"/>
        <pt x="791" y="682" on="1"/>
        <pt x="184" y="682" on="1"/>
      </contour>
      <contour>
        <pt x="114" y="1456" on="1"/>
        <pt x="857" y="1456" on="1"/>
        <pt x="857" y="1351" on="1"/>
        <pt x="114" y="1351" on="1"/>
      </contour>
    </TTGlyph>
    <TTGlyph name="Y" xMin="35" yMin="0" xMax="1019" yMax="1456">
      <contour>
        <pt x="524" y="685" on="1"/>
        <pt x="530" y="685" on="1"/>
        <pt x="882" y="1456" on="1"/>
        <pt x="1019" y="1456" on="1"/>
        <pt x="586" y="534" on="1"/>
        <pt x="586" y="0" on="1"/>
        <pt x="466" y="0" on="1"/>
        <pt x="466" y="540" on="1"/>
        <pt x="35" y="1456" on="1"/>
        <pt x="174" y="1456" on="1"/>
      </contour>
    </TTGlyph>
    <TTGlyph name="Y.smcp" xMin="42" yMin="0" xMax="887" yMax="1165">
      <contour>
        <pt x="461" y="561" on="1"/>
        <pt x="467" y="561" on="1"/>
        <pt x="750" y="1165" on="1"/>
        <pt x="887" y="1165" on="1"/>
        <pt x="523" y="424" on="1"/>
        <pt x="523" y="0" on="1"/>
        <pt x="402" y="0" on="1"/>
        <pt x="402" y="428" on="1"/>
        <pt x="42" y="1165" on="1"/>
        <pt x="178" y="1165" on="1"/>
      </contour>
    </TTGlyph>
    <TTGlyph name="Yacute" xMin="35" yMin="0" xMax="1019" yMax="1816">
      <component glyphName="Y" x="0" y="0" flags="0x204"/>
      <component glyphName="acute" x="345" y="338" flags="0x4"/>
    </TTGlyph>
    <TTGlyph name="Yacute.smcp" xMin="42" yMin="0" xMax="887" yMax="1495">
      <component glyphName="Y.smcp" x="0" y="0" flags="0x204"/>
      <component glyphName="acute" x="276" y="17" flags="0x4"/>
    </TTGlyph>
    <TTGlyph name="Ycircumflex" xMin="35" yMin="0" xMax="1019" yMax="1837">
      <component glyphName="Y" x="0" y="0" flags="0x204"/>
      <component glyphName="circumflex" x="146" y="342" flags="0x4"/>
    </TTGlyph>
    <TTGlyph name="Ycircumflex.smcp" xMin="42" yMin="0" xMax="887" yMax="1516">
      <component glyphName="Y.smcp" x="0" y="0" flags="0x204"/>
      <component glyphName="circumflex" x="77" y="21" flags="0x4"/>
    </TTGlyph>
    <TTGlyph name="Ydieresis" xMin="35" yMin="0" xMax="1019" yMax="1791">
      <component glyphName="Y" x="0" y="0" flags="0x204"/>
      <component glyphName="dieresis" x="92" y="335" flags="0x4"/>
    </TTGlyph>
    <TTGlyph name="Ydieresis.smcp" xMin="42" yMin="0" xMax="887" yMax="1470">
      <component glyphName="Y.smcp" x="0" y="0" flags="0x204"/>
      <component glyphName="dieresis" x="23" y="14" flags="0x4"/>
    </TTGlyph>
    <TTGlyph name="Ygrave" xMin="35" yMin="0" xMax="1019" yMax="1820">
      <component glyphName="Y" x="0" y="0" flags="0x204"/>
      <component glyphName="grave" x="180" y="344" flags="0x4"/>
    </TTGlyph>
    <TTGlyph name="Z" xMin="86" yMin="0" xMax="913" yMax="1456">
      <contour>
        <pt x="213" y="104" on="1"/>
        <pt x="913" y="104" on="1"/>
        <pt x="913" y="0" on="1"/>
        <pt x="86" y="0" on="1"/>
        <pt x="86" y="95" on="1"/>
        <pt x="757" y="1351" on="1"/>
        <pt x="102" y="1351" on="1"/>
        <pt x="102" y="1456" on="1"/>
        <pt x="887" y="1456" on="1"/>
        <pt x="887" y="1366" on="1"/>
      </contour>
    </TTGlyph>
    <TTGlyph name="Z.smcp" xMin="72" yMin="0" xMax="825" yMax="1165">
      <contour>
        <pt x="213" y="102" on="1"/>
        <pt x="825" y="102" on="1"/>
        <pt x="825" y="0" on="1"/>
        <pt x="72" y="0" on="1"/>
        <pt x="72" y="82" on="1"/>
        <pt x="661" y="1061" on="1"/>
        <pt x="100" y="1061" on="1"/>
        <pt x="100" y="1165" on="1"/>
        <pt x="805" y="1165" on="1"/>
        <pt x="805" y="1087" on="1"/>
      </contour>
    </TTGlyph>
    <TTGlyph name="Zacute" xMin="86" yMin="0" xMax="913" yMax="1823">
      <component glyphName="Z" x="0" y="0" flags="0x204"/>
      <component glyphName="acute" x="312" y="345" flags="0x4"/>
    </TTGlyph>
    <TTGlyph name="Zacute.smcp" xMin="72" yMin="0" xMax="825" yMax="1500">
      <component glyphName="Z.smcp" x="0" y="0" flags="0x204"/>
      <component glyphName="acute" x="251" y="22" flags="0x4"/>
    </TTGlyph>
    <TTGlyph name="Zcaron" xMin="86" yMin="0" xMax="913" yMax="1846">
      <component glyphName="Z" x="0" y="0" flags="0x204"/>
      <component glyphName="caron" x="130" y="351" flags="0x4"/>
    </TTGlyph>
    <TTGlyph name="Zcaron.smcp" xMin="72" yMin="0" xMax="825" yMax="1523">
      <component glyphName="Z.smcp" x="0" y="0" flags="0x204"/>
      <component glyphName="caron" x="69" y="28" flags="0x4"/>
    </TTGlyph>
    <TTGlyph name="Zdotaccent" xMin="86" yMin="0" xMax="913" yMax="1805">
      <component glyphName="Z" x="0" y="0" flags="0x204"/>
      <component glyphName="dotaccent" x="282" y="349" flags="0x4"/>
    </TTGlyph>
    <TTGlyph name="Zdotaccent.smcp" xMin="72" yMin="0" xMax="825" yMax="1482">
      <component glyphName="Z.smcp" x="0" y="0" flags="0x204"/>
      <component glyphName="dotaccent" x="221" y="26" flags="0x4"/>
    </TTGlyph>
    <TTGlyph name="Zeta" xMin="86" yMin="0" xMax="913" yMax="1456">
      <component glyphName="Z" x="0" y="0" flags="0x204"/>
    </TTGlyph>
    <TTGlyph name="a" xMin="98" yMin="-21" xMax="823" yMax="1102">
      <contour>
        <pt x="698" y="0" on="1"/>
        <pt x="689" y="56" on="0"/>
        <pt x="680" y="128" on="0"/>
        <pt x="680" y="165" on="1"/>
        <pt x="631" y="84" on="0"/>
        <pt x="474" y="-21" on="0"/>
        <pt x="378" y="-21" on="1"/>
        <pt x="244" y="-21" on="0"/>
        <pt x="98" y="146" on="0"/>
        <pt x="98" y="288" on="1"/>
        <pt x="98" y="439" on="0"/>
        <pt x="310" y="618" on="0"/>
        <pt x="491" y="618" on="1"/>
        <pt x="680" y="618" on="1"/>
        <pt x="680" y="751" on="1"/>
        <pt x="680" y="866" on="0"/>
        <pt x="564" y="996" on="0"/>
        <pt x="460" y="996" on="1"/>
        <pt x="363" y="996" on="0"/>
        <pt x="238" y="872" on="0"/>
        <pt x="238" y="782" on="1"/>
        <pt x="126" y="783" on="1"/>
        <pt x="124" y="789" on="1"/>
        <pt x="119" y="911" on="0"/>
        <pt x="314" y="1102" on="0"/>
        <pt x="466" y="1102" on="1"/>
        <pt x="616" y="1102" on="0"/>
        <pt x="800" y="919" on="0"/>
        <pt x="800" y="749" on="1"/>
        <pt x="800" y="218" on="1"/>
        <pt x="800" y="160" on="0"/>
        <pt x="810" y="52" on="0"/>
        <pt x="823" y="0" on="1"/>
      </contour>
      <contour>
        <pt x="393" y="87" on="1"/>
        <pt x="493" y="87" on="0"/>
        <pt x="648" y="202" on="0"/>
        <pt x="680" y="291" on="1"/>
        <pt x="680" y="525" on="1"/>
        <pt x="488" y="525" on="1"/>
        <pt x="365" y="525" on="0"/>
        <pt x="218" y="386" on="0"/>
        <pt x="218" y="284" on="1"/>
        <pt x="218" y="197" on="0"/>
        <pt x="310" y="87" on="0"/>
      </contour>
    </TTGlyph>
    <TTGlyph name="aacute" xMin="98" yMin="-21" xMax="823" yMax="1501">
      <component glyphName="a" x="0" y="0" flags="0x204"/>
      <component glyphName="acute" x="280" y="23" flags="0x4"/>
    </TTGlyph>
    <TTGlyph name="abreve" xMin="98" yMin="-21" xMax="823" yMax="1533">
      <component glyphName="a" x="0" y="0" flags="0x204"/>
      <component glyphName="breve" x="80" y="77" flags="0x4"/>
    </TTGlyph>
    <TTGlyph name="acircumflex" xMin="98" yMin="-21" xMax="823" yMax="1522">
      <component glyphName="a" x="0" y="0" flags="0x204"/>
      <component glyphName="circumflex" x="81" y="27" flags="0x4"/>
    </TTGlyph>
    <TTGlyph name="acute" xMin="114" yMin="1212" xMax="438" yMax="1478">
      <contour>
        <pt x="289" y="1478" on="1"/>
        <pt x="436" y="1478" on="1"/>
        <pt x="438" y="1473" on="1"/>
        <pt x="217" y="1212" on="1"/>
        <pt x="114" y="1212" on="1"/>
      </contour>
    </TTGlyph>
    <TTGlyph name="acutecomb" xMin="-507" yMin="1215" xMax="-278" yMax="1534">
      <contour>
        <pt x="-395" y="1534" on="1"/>
        <pt x="-278" y="1534" on="1"/>
        <pt x="-425" y="1215" on="1"/>
        <pt x="-507" y="1215" on="1"/>
      </contour>
    </TTGlyph>
    <TTGlyph name="adieresis" xMin="98" yMin="-21" xMax="823" yMax="1476">
      <component glyphName="a" x="0" y="0" flags="0x204"/>
      <component glyphName="dieresis" x="27" y="20" flags="0x4"/>
    </TTGlyph>
    <TTGlyph name="ae" xMin="67" yMin="-21" xMax="1383" yMax="1102">
      <contour>
        <pt x="1056" y="-21" on="1"/>
        <pt x="942" y="-21" on="0"/>
        <pt x="772" y="85" on="0"/>
        <pt x="720" y="183" on="1"/>
        <pt x="676" y="98" on="0"/>
        <pt x="492" y="-21" on="0"/>
        <pt x="361" y="-21" on="1"/>
        <pt x="221" y="-21" on="0"/>
        <pt x="67" y="148" on="0"/>
        <pt x="67" y="294" on="1"/>
        <pt x="67" y="451" on="0"/>
        <pt x="256" y="632" on="0"/>
        <pt x="434" y="632" on="1"/>
        <pt x="643" y="632" on="1"/>
        <pt x="643" y="720" on="1"/>
        <pt x="643" y="851" on="0"/>
        <pt x="544" y="996" on="0"/>
        <pt x="449" y="996" on="1"/>
        <pt x="345" y="996" on="0"/>
        <pt x="225" y="864" on="0"/>
        <pt x="225" y="764" on="1"/>
        <pt x="113" y="777" on="1"/>
        <pt x="111" y="783" on="1"/>
        <pt x="107" y="921" on="0"/>
        <pt x="293" y="1102" on="0"/>
        <pt x="449" y="1102" on="1"/>
        <pt x="549" y="1102" on="0"/>
        <pt x="694" y="1005" on="0"/>
        <pt x="731" y="911" on="1"/>
        <pt x="782" y="1001" on="0"/>
        <pt x="936" y="1102" on="0"/>
        <pt x="1027" y="1102" on="1"/>
        <pt x="1197" y="1102" on="0"/>
        <pt x="1383" y="853" on="0"/>
        <pt x="1383" y="636" on="1"/>
        <pt x="1383" y="535" on="1"/>
        <pt x="769" y="535" on="1"/>
        <pt x="769" y="510" on="1"/>
        <pt x="769" y="319" on="0"/>
        <pt x="911" y="83" on="0"/>
        <pt x="1056" y="83" on="1"/>
        <pt x="1142" y="83" on="0"/>
        <pt x="1270" y="147" on="0"/>
        <pt x="1322" y="201" on="1"/>
        <pt x="1366" y="111" on="1"/>
        <pt x="1324" y="58" on="0"/>
        <pt x="1171" y="-21" on="0"/>
      </contour>
      <contour>
        <pt x="383" y="82" on="1"/>
        <pt x="459" y="82" on="0"/>
        <pt x="610" y="181" on="0"/>
        <pt x="643" y="241" on="1"/>
        <pt x="643" y="533" on="1"/>
        <pt x="435" y="533" on="1"/>
        <pt x="316" y="533" on="0"/>
        <pt x="188" y="393" on="0"/>
        <pt x="188" y="290" on="1"/>
        <pt x="188" y="194" on="0"/>
        <pt x="287" y="82" on="0"/>
      </contour>
      <contour>
        <pt x="1027" y="996" on="1"/>
        <pt x="919" y="996" on="0"/>
        <pt x="785" y="795" on="0"/>
        <pt x="772" y="636" on="1"/>
        <pt x="1263" y="636" on="1"/>
        <pt x="1263" y="667" on="1"/>
        <pt x="1263" y="813" on="0"/>
        <pt x="1145" y="996" on="0"/>
      </contour>
    </TTGlyph>
    <TTGlyph name="aeacute" xMin="67" yMin="-21" xMax="1383" yMax="1502">
      <component glyphName="ae" x="0" y="0" flags="0x204"/>
      <component glyphName="acute" x="539" y="24" flags="0x4"/>
    </TTGlyph>
    <TTGlyph name="agrave" xMin="98" yMin="-21" xMax="823" yMax="1505">
      <component glyphName="a" x="0" y="0" flags="0x204"/>
      <component glyphName="grave" x="115" y="29" flags="0x4"/>
    </TTGlyph>
    <TTGlyph name="alpha" xMin="97" yMin="-21" xMax="958" yMax="1102">
      <contour>
        <pt x="829" y="1082" on="1"/>
        <pt x="829" y="275" on="1"/>
        <pt x="829" y="173" on="0"/>
        <pt x="869" y="90" on="0"/>
        <pt x="905" y="90" on="1"/>
        <pt x="914" y="90" on="0"/>
        <pt x="926" y="92" on="0"/>
        <pt x="942" y="97" on="1"/>
        <pt x="958" y="3" on="1"/>
        <pt x="936" y="-10" on="0"/>
        <pt x="893" y="-21" on="0"/>
        <pt x="868" y="-21" on="1"/>
        <pt x="805" y="-21" on="0"/>
        <pt x="728" y="63" on="0"/>
        <pt x="715" y="156" on="1"/>
        <pt x="670" y="70" on="0"/>
        <pt x="534" y="-21" on="0"/>
        <pt x="442" y="-21" on="1"/>
        <pt x="280" y="-21" on="0"/>
        <pt x="97" y="268" on="0"/>
        <pt x="97" y="510" on="1"/>
        <pt x="97" y="531" on="1"/>
        <pt x="97" y="791" on="0"/>
        <pt x="279" y="1102" on="0"/>
        <pt x="443" y="1102" on="1"/>
        <pt x="534" y="1102" on="0"/>
        <pt x="670" y="1007" on="0"/>
        <pt x="714" y="920" on="1"/>
        <pt x="727" y="1082" on="1"/>
      </contour>
      <contour>
        <pt x="219" y="510" on="1"/>
        <pt x="219" y="315" on="0"/>
        <pt x="342" y="83" on="0"/>
        <pt x="468" y="83" on="1"/>
        <pt x="556" y="83" on="0"/>
        <pt x="673" y="197" on="0"/>
        <pt x="708" y="299" on="1"/>
        <pt x="708" y="760" on="1"/>
        <pt x="672" y="866" on="0"/>
        <pt x="556" y="996" on="0"/>
        <pt x="470" y="996" on="1"/>
        <pt x="343" y="996" on="0"/>
        <pt x="219" y="738" on="0"/>
        <pt x="219" y="531" on="1"/>
      </contour>
    </TTGlyph>
    <TTGlyph name="alpha.alt" xMin="97" yMin="-21" xMax="913" yMax="1102">
      <contour>
        <pt x="759" y="278" on="1"/>
        <pt x="718" y="138" on="0"/>
        <pt x="559" y="-21" on="0"/>
        <pt x="442" y="-21" on="1"/>
        <pt x="280" y="-21" on="0"/>
        <pt x="97" y="268" on="0"/>
        <pt x="97" y="510" on="1"/>
        <pt x="97" y="531" on="1"/>
        <pt x="97" y="791" on="0"/>
        <pt x="279" y="1102" on="0"/>
        <pt x="443" y="1102" on="1"/>
        <pt x="558" y="1102" on="0"/>
        <pt x="715" y="943" on="0"/>
        <pt x="756" y="803" on="1"/>
        <pt x="790" y="1082" on="1"/>
        <pt x="907" y="1082" on="1"/>
        <pt x="824" y="540" on="1"/>
        <pt x="913" y="0" on="1"/>
        <pt x="796" y="0" on="1"/>
      </contour>
      <contour>
        <pt x="219" y="510" on="1"/>
        <pt x="219" y="315" on="0"/>
        <pt x="342" y="83" on="0"/>
        <pt x="468" y="83" on="1"/>
        <pt x="570" y="83" on="0"/>
        <pt x="697" y="310" on="0"/>
        <pt x="722" y="495" on="1"/>
        <pt x="722" y="572" on="1"/>
        <pt x="701" y="744" on="0"/>
        <pt x="577" y="996" on="0"/>
        <pt x="470" y="996" on="1"/>
        <pt x="343" y="996" on="0"/>
        <pt x="219" y="738" on="0"/>
        <pt x="219" y="531" on="1"/>
      </contour>
    </TTGlyph>
    <TTGlyph name="alphatonos" xMin="97" yMin="-21" xMax="958" yMax="1582">
      <component glyphName="alpha" x="0" y="0" flags="0x204"/>
      <component glyphName="tonos" x="308" y="-36" flags="0x4"/>
    </TTGlyph>
    <TTGlyph name="amacron" xMin="98" yMin="-21" xMax="823" yMax="1464">
      <component glyphName="a" x="0" y="0" flags="0x204"/>
      <component glyphName="macron" x="60" y="8" flags="0x4"/>
    </TTGlyph>
    <TTGlyph name="ampersand" xMin="82" yMin="-21" xMax="1072" yMax="1477">
      <contour>
        <pt x="342" y="791" on="1"/>
        <pt x="269" y="893" on="0"/>
        <pt x="199" y="1058" on="0"/>
        <pt x="199" y="1145" on="1"/>
        <pt x="199" y="1304" on="0"/>
        <pt x="358" y="1477" on="0"/>
        <pt x="497" y="1477" on="1"/>
        <pt x="626" y="1477" on="0"/>
        <pt x="781" y="1314" on="0"/>
        <pt x="781" y="1191" on="1"/>
        <pt x="781" y="1100" on="0"/>
        <pt x="698" y="969" on="0"/>
        <pt x="620" y="904" on="1"/>
        <pt x="488" y="787" on="1"/>
        <pt x="833" y="322" on="1"/>
        <pt x="839" y="323" on="1"/>
        <pt x="877" y="387" on="0"/>
        <pt x="921" y="556" on="0"/>
        <pt x="921" y="652" on="1"/>
        <pt x="1034" y="652" on="1"/>
        <pt x="1034" y="524" on="0"/>
        <pt x="968" y="309" on="0"/>
        <pt x="906" y="223" on="1"/>
        <pt x="1072" y="0" on="1"/>
        <pt x="925" y="0" on="1"/>
        <pt x="828" y="132" on="1"/>
        <pt x="754" y="58" on="0"/>
        <pt x="579" y="-21" on="0"/>
        <pt x="481" y="-21" on="1"/>
        <pt x="297" y="-21" on="0"/>
        <pt x="82" y="194" on="0"/>
        <pt x="82" y="372" on="1"/>
        <pt x="82" y="493" on="0"/>
        <pt x="211" y="686" on="0"/>
        <pt x="335" y="785" on="1"/>
      </contour>
      <contour>
        <pt x="481" y="83" on="1"/>
        <pt x="558" y="83" on="0"/>
        <pt x="705" y="152" on="0"/>
        <pt x="765" y="216" on="1"/>
        <pt x="410" y="699" on="1"/>
        <pt x="401" y="710" on="1"/>
        <pt x="365" y="678" on="1"/>
        <pt x="269" y="585" on="0"/>
        <pt x="204" y="436" on="0"/>
        <pt x="204" y="372" on="1"/>
        <pt x="204" y="248" on="0"/>
        <pt x="346" y="83" on="0"/>
      </contour>
      <contour>
        <pt x="323" y="1147" on="1"/>
        <pt x="323" y="1083" on="0"/>
        <pt x="376" y="943" on="0"/>
        <pt x="430" y="867" on="1"/>
        <pt x="574" y="993" on="1"/>
        <pt x="624" y="1037" on="0"/>
        <pt x="666" y="1135" on="0"/>
        <pt x="666" y="1191" on="1"/>
        <pt x="666" y="1268" on="0"/>
        <pt x="575" y="1371" on="0"/>
        <pt x="497" y="1371" on="1"/>
        <pt x="413" y="1371" on="0"/>
        <pt x="323" y="1243" on="0"/>
      </contour>
    </TTGlyph>
    <TTGlyph name="anoteleia" xMin="145" yMin="624" xMax="285" yMax="805">
      <component glyphName="periodcentered" x="0" y="0" flags="0x204"/>
    </TTGlyph>
    <TTGlyph name="aogonek" xMin="98" yMin="-394" xMax="869" yMax="1102">
      <component glyphName="a" x="0" y="0" flags="0x204"/>
      <component glyphName="ogonek" x="501" y="0" flags="0x4"/>
    </TTGlyph>
    <TTGlyph name="approxequal" xMin="93" yMin="327" xMax="874" yMax="1005">
      <contour>
        <pt x="101" y="855" on="1"/>
        <pt x="140" y="923" on="0"/>
        <pt x="242" y="1001" on="0"/>
        <pt x="297" y="1001" on="1"/>
        <pt x="353" y="1002" on="0"/>
        <pt x="409" y="977" on="0"/>
        <pt x="490" y="928" on="1"/>
        <pt x="563" y="882" on="0"/>
        <pt x="618" y="857" on="0"/>
        <pt x="672" y="857" on="1"/>
        <pt x="725" y="857" on="0"/>
        <pt x="826" y="935" on="0"/>
        <pt x="866" y="1005" on="1"/>
        <pt x="874" y="885" on="1"/>
        <pt x="834" y="816" on="0"/>
        <pt x="732" y="739" on="0"/>
        <pt x="678" y="739" on="1"/>
        <pt x="624" y="739" on="0"/>
        <pt x="568" y="764" on="0"/>
        <pt x="498" y="808" on="1"/>
        <pt x="404" y="863" on="0"/>
        <pt x="359" y="884" on="0"/>
        <pt x="302" y="883" on="1"/>
        <pt x="248" y="883" on="0"/>
        <pt x="147" y="804" on="0"/>
        <pt x="108" y="735" on="1"/>
      </contour>
      <contour>
        <pt x="93" y="447" on="1"/>
        <pt x="132" y="516" on="0"/>
        <pt x="233" y="593" on="0"/>
        <pt x="288" y="593" on="1"/>
        <pt x="345" y="594" on="0"/>
        <pt x="397" y="570" on="0"/>
        <pt x="482" y="520" on="1"/>
        <pt x="559" y="472" on="0"/>
        <pt x="609" y="448" on="0"/>
        <pt x="664" y="448" on="1"/>
        <pt x="716" y="448" on="0"/>
        <pt x="818" y="527" on="0"/>
        <pt x="858" y="597" on="1"/>
        <pt x="865" y="477" on="1"/>
        <pt x="825" y="408" on="0"/>
        <pt x="723" y="331" on="0"/>
        <pt x="669" y="331" on="1"/>
        <pt x="615" y="331" on="0"/>
        <pt x="562" y="355" on="0"/>
        <pt x="489" y="400" on="1"/>
        <pt x="400" y="452" on="0"/>
        <pt x="350" y="476" on="0"/>
        <pt x="293" y="475" on="1"/>
        <pt x="240" y="475" on="0"/>
        <pt x="139" y="396" on="0"/>
        <pt x="99" y="327" on="1"/>
      </contour>
    </TTGlyph>
    <TTGlyph name="aring" xMin="98" yMin="-21" xMax="823" yMax="1577">
      <component glyphName="a" x="0" y="0" flags="0x204"/>
      <component glyphName="ring" x="156" y="86" flags="0x4"/>
    </TTGlyph>
    <TTGlyph name="aringacute" xMin="98" yMin="-21" xMax="823" yMax="1760">
      <component glyphName="a" x="0" y="0" flags="0x204"/>
      <component glyphName="ringacute" x="181" y="72" flags="0x4"/>
    </TTGlyph>
    <TTGlyph name="asciicircum" xMin="68" yMin="729" xMax="650" yMax="1456">
      <contour>
        <pt x="183" y="729" on="1"/>
        <pt x="68" y="729" on="1"/>
        <pt x="316" y="1456" on="1"/>
        <pt x="403" y="1456" on="1"/>
        <pt x="650" y="729" on="1"/>
        <pt x="536" y="729" on="1"/>
        <pt x="381" y="1210" on="1"/>
        <pt x="361" y="1297" on="1"/>
        <pt x="355" y="1297" on="1"/>
        <pt x="335" y="1210" on="1"/>
      </contour>
    </TTGlyph>
    <TTGlyph name="asciitilde" xMin="124" yMin="421" xMax="1053" yMax="788">
      <contour>
        <pt x="1053" y="740" on="1"/>
        <pt x="1053" y="610" on="0"/>
        <pt x="915" y="421" on="0"/>
        <pt x="813" y="421" on="1"/>
        <pt x="739" y="421" on="0"/>
        <pt x="619" y="492" on="0"/>
        <pt x="545" y="571" on="1"/>
        <pt x="494" y="624" on="0"/>
        <pt x="407" y="678" on="0"/>
        <pt x="362" y="678" on="1"/>
        <pt x="300" y="678" on="0"/>
        <pt x="216" y="557" on="0"/>
        <pt x="216" y="458" on="1"/>
        <pt x="124" y="474" on="1"/>
        <pt x="124" y="606" on="0"/>
        <pt x="257" y="788" on="0"/>
        <pt x="362" y="788" on="1"/>
        <pt x="434" y="788" on="0"/>
        <pt x="558" y="713" on="0"/>
        <pt x="630" y="639" on="1"/>
        <pt x="681" y="582" on="0"/>
        <pt x="766" y="531" on="0"/>
        <pt x="813" y="531" on="1"/>
        <pt x="873" y="531" on="0"/>
        <pt x="959" y="658" on="0"/>
        <pt x="959" y="755" on="1"/>
      </contour>
    </TTGlyph>
    <TTGlyph name="asterisk" xMin="34" yMin="635" xMax="745" yMax="1456">
      <contour>
        <pt x="314" y="999" on="1"/>
        <pt x="34" y="1105" on="1"/>
        <pt x="66" y="1209" on="1"/>
        <pt x="346" y="1087" on="1"/>
        <pt x="342" y="1456" on="1"/>
        <pt x="446" y="1456" on="1"/>
        <pt x="438" y="1084" on="1"/>
        <pt x="714" y="1210" on="1"/>
        <pt x="745" y="1106" on="1"/>
        <pt x="462" y="992" on="1"/>
        <pt x="651" y="699" on="1"/>
        <pt x="565" y="635" on="1"/>
        <pt x="387" y="939" on="1"/>
        <pt x="215" y="637" on="1"/>
        <pt x="130" y="700" on="1"/>
      </contour>
    </TTGlyph>
    <TTGlyph name="at" xMin="98" yMin="-453" xMax="1545" yMax="1421">
      <contour>
        <pt x="1530" y="512" on="1"/>
        <pt x="1522" y="295" on="0"/>
        <pt x="1334" y="-21" on="0"/>
        <pt x="1151" y="-21" on="1"/>
        <pt x="1083" y="-21" on="0"/>
        <pt x="989" y="77" on="0"/>
        <pt x="974" y="165" on="1"/>
        <pt x="928" y="72" on="0"/>
        <pt x="796" y="-21" on="0"/>
        <pt x="709" y="-21" on="1"/>
        <pt x="597" y="-21" on="0"/>
        <pt x="478" y="219" on="0"/>
        <pt x="494" y="416" on="1"/>
        <pt x="514" y="670" on="0"/>
        <pt x="718" y="978" on="0"/>
        <pt x="864" y="978" on="1"/>
        <pt x="948" y="978" on="0"/>
        <pt x="1051" y="925" on="0"/>
        <pt x="1113" y="870" on="1"/>
        <pt x="1111" y="868" on="1"/>
        <pt x="1114" y="868" on="1"/>
        <pt x="1070" y="293" on="1"/>
        <pt x="1062" y="161" on="0"/>
        <pt x="1126" y="66" on="0"/>
        <pt x="1174" y="66" on="1"/>
        <pt x="1293" y="66" on="0"/>
        <pt x="1432" y="314" on="0"/>
        <pt x="1441" y="512" on="1"/>
        <pt x="1457" y="900" on="0"/>
        <pt x="1168" y="1332" on="0"/>
        <pt x="858" y="1332" on="1"/>
        <pt x="580" y="1332" on="0"/>
        <pt x="226" y="862" on="0"/>
        <pt x="211" y="478" on="1"/>
        <pt x="194" y="99" on="0"/>
        <pt x="505" y="-366" on="0"/>
        <pt x="793" y="-366" on="1"/>
        <pt x="870" y="-366" on="0"/>
        <pt x="1027" y="-323" on="0"/>
        <pt x="1082" y="-287" on="1"/>
        <pt x="1110" y="-364" on="1"/>
        <pt x="1053" y="-405" on="0"/>
        <pt x="874" y="-453" on="0"/>
        <pt x="790" y="-453" on="1"/>
        <pt x="459" y="-453" on="0"/>
        <pt x="98" y="46" on="0"/>
        <pt x="114" y="478" on="1"/>
        <pt x="129" y="902" on="0"/>
        <pt x="535" y="1421" on="0"/>
        <pt x="862" y="1421" on="1"/>
        <pt x="1200" y="1421" on="0"/>
        <pt x="1545" y="936" on="0"/>
      </contour>
      <contour>
        <pt x="605" y="416" on="1"/>
        <pt x="593" y="261" on="0"/>
        <pt x="662" y="79" on="0"/>
        <pt x="740" y="79" on="1"/>
        <pt x="809" y="79" on="0"/>
        <pt x="924" y="157" on="0"/>
        <pt x="967" y="259" on="1"/>
        <pt x="967" y="266" on="0"/>
        <pt x="967" y="280" on="0"/>
        <pt x="969" y="293" on="1"/>
        <pt x="1011" y="841" on="1"/>
        <pt x="984" y="861" on="0"/>
        <pt x="920" y="885" on="0"/>
        <pt x="883" y="885" on="1"/>
        <pt x="768" y="885" on="0"/>
        <pt x="624" y="649" on="0"/>
      </contour>
    </TTGlyph>
    <TTGlyph name="atilde" xMin="98" yMin="-21" xMax="823" yMax="1522">
      <component glyphName="a" x="0" y="0" flags="0x204"/>
      <component glyphName="tilde" x="74" y="20" flags="0x4"/>
    </TTGlyph>
    <TTGlyph name="b" xMin="136" yMin="-21" xMax="873" yMax="1560">
      <contour>
        <pt x="873" y="446" on="1"/>
        <pt x="873" y="233" on="0"/>
        <pt x="690" y="-21" on="0"/>
        <pt x="529" y="-21" on="1"/>
        <pt x="434" y="-21" on="0"/>
        <pt x="295" y="65" on="0"/>
        <pt x="251" y="145" on="1"/>
        <pt x="239" y="0" on="1"/>
        <pt x="136" y="0" on="1"/>
        <pt x="136" y="1560" on="1"/>
        <pt x="256" y="1560" on="1"/>
        <pt x="256" y="935" on="1"/>
        <pt x="300" y="1015" on="0"/>
        <pt x="436" y="1102" on="0"/>
        <pt x="527" y="1102" on="1"/>
        <pt x="689" y="1102" on="0"/>
        <pt x="873" y="833" on="0"/>
        <pt x="873" y="610" on="1"/>
      </contour>
      <contour>
        <pt x="752" y="610" on="1"/>
        <pt x="752" y="781" on="0"/>
        <pt x="625" y="994" on="0"/>
        <pt x="500" y="994" on="1"/>
        <pt x="407" y="994" on="0"/>
        <pt x="288" y="880" on="0"/>
        <pt x="256" y="789" on="1"/>
        <pt x="256" y="275" on="1"/>
        <pt x="289" y="188" on="0"/>
        <pt x="411" y="86" on="0"/>
        <pt x="502" y="86" on="1"/>
        <pt x="627" y="86" on="0"/>
        <pt x="752" y="282" on="0"/>
        <pt x="752" y="446" on="1"/>
      </contour>
    </TTGlyph>
    <TTGlyph name="backslash" xMin="46" yMin="-125" xMax="667" yMax="1456">
      <contour>
        <pt x="46" y="1456" on="1"/>
        <pt x="162" y="1456" on="1"/>
        <pt x="667" y="-125" on="1"/>
        <pt x="550" y="-125" on="1"/>
      </contour>
    </TTGlyph>
    <TTGlyph name="bar" xMin="155" yMin="-270" xMax="254" yMax="1456">
      <contour>
        <pt x="254" y="-270" on="1"/>
        <pt x="155" y="-270" on="1"/>
        <pt x="155" y="1456" on="1"/>
        <pt x="254" y="1456" on="1"/>
      </contour>
    </TTGlyph>
    <TTGlyph name="beta" xMin="150" yMin="-398" xMax="916" yMax="1477">
      <contour>
        <pt x="505" y="1477" on="1"/>
        <pt x="660" y="1477" on="0"/>
        <pt x="850" y="1262" on="0"/>
        <pt x="850" y="1092" on="1"/>
        <pt x="850" y="991" on="0"/>
        <pt x="761" y="827" on="0"/>
        <pt x="682" y="782" on="1"/>
        <pt x="794" y="743" on="0"/>
        <pt x="916" y="541" on="0"/>
        <pt x="916" y="405" on="1"/>
        <pt x="916" y="205" on="0"/>
        <pt x="709" y="-21" on="0"/>
        <pt x="542" y="-21" on="1"/>
        <pt x="466" y="-21" on="0"/>
        <pt x="322" y="36" on="0"/>
        <pt x="271" y="92" on="1"/>
        <pt x="271" y="-398" on="1"/>
        <pt x="150" y="-398" on="1"/>
        <pt x="150" y="1063" on="1"/>
        <pt x="150" y="1237" on="0"/>
        <pt x="358" y="1477" on="0"/>
      </contour>
      <contour>
        <pt x="502" y="825" on="1"/>
        <pt x="619" y="825" on="0"/>
        <pt x="730" y="968" on="0"/>
        <pt x="730" y="1097" on="1"/>
        <pt x="730" y="1208" on="0"/>
        <pt x="612" y="1371" on="0"/>
        <pt x="505" y="1371" on="1"/>
        <pt x="406" y="1371" on="0"/>
        <pt x="271" y="1195" on="0"/>
        <pt x="271" y="1063" on="1"/>
        <pt x="271" y="225" on="1"/>
        <pt x="309" y="159" on="0"/>
        <pt x="446" y="83" on="0"/>
        <pt x="531" y="83" on="1"/>
        <pt x="656" y="83" on="0"/>
        <pt x="795" y="254" on="0"/>
        <pt x="795" y="401" on="1"/>
        <pt x="795" y="539" on="0"/>
        <pt x="663" y="720" on="0"/>
        <pt x="546" y="720" on="1"/>
        <pt x="427" y="720" on="1"/>
        <pt x="427" y="825" on="1"/>
      </contour>
    </TTGlyph>
    <TTGlyph name="braceleft" xMin="64" yMin="-396" xMax="562" yMax="1591">
      <contour>
        <pt x="537" y="-395" on="1"/>
        <pt x="531" y="-396" on="1"/>
        <pt x="379" y="-345" on="0"/>
        <pt x="249" y="-109" on="0"/>
        <pt x="249" y="60" on="1"/>
        <pt x="249" y="285" on="1"/>
        <pt x="249" y="407" on="0"/>
        <pt x="158" y="543" on="0"/>
        <pt x="64" y="543" on="1"/>
        <pt x="64" y="649" on="1"/>
        <pt x="158" y="649" on="0"/>
        <pt x="249" y="783" on="0"/>
        <pt x="249" y="905" on="1"/>
        <pt x="249" y="1132" on="1"/>
        <pt x="249" y="1303" on="0"/>
        <pt x="379" y="1540" on="0"/>
        <pt x="531" y="1591" on="1"/>
        <pt x="537" y="1590" on="1"/>
        <pt x="561" y="1515" on="1"/>
        <pt x="460" y="1475" on="0"/>
        <pt x="370" y="1276" on="0"/>
        <pt x="370" y="1132" on="1"/>
        <pt x="370" y="905" on="1"/>
        <pt x="370" y="795" on="0"/>
        <pt x="291" y="633" on="0"/>
        <pt x="211" y="595" on="1"/>
        <pt x="291" y="556" on="0"/>
        <pt x="370" y="393" on="0"/>
        <pt x="370" y="285" on="1"/>
        <pt x="370" y="60" on="1"/>
        <pt x="370" y="-83" on="0"/>
        <pt x="460" y="-278" on="0"/>
        <pt x="562" y="-320" on="1"/>
      </contour>
    </TTGlyph>
    <TTGlyph name="braceright" xMin="20" yMin="-396" xMax="519" yMax="1591">
      <contour>
        <pt x="20" y="-320" on="1"/>
        <pt x="121" y="-278" on="0"/>
        <pt x="213" y="-82" on="0"/>
        <pt x="213" y="60" on="1"/>
        <pt x="213" y="285" on="1"/>
        <pt x="213" y="396" on="0"/>
        <pt x="294" y="558" on="0"/>
        <pt x="379" y="595" on="1"/>
        <pt x="294" y="631" on="0"/>
        <pt x="213" y="792" on="0"/>
        <pt x="213" y="905" on="1"/>
        <pt x="213" y="1132" on="1"/>
        <pt x="213" y="1276" on="0"/>
        <pt x="122" y="1475" on="0"/>
        <pt x="21" y="1515" on="1"/>
        <pt x="45" y="1590" on="1"/>
        <pt x="51" y="1591" on="1"/>
        <pt x="202" y="1540" on="0"/>
        <pt x="333" y="1303" on="0"/>
        <pt x="333" y="1132" on="1"/>
        <pt x="333" y="905" on="1"/>
        <pt x="333" y="783" on="0"/>
        <pt x="423" y="649" on="0"/>
        <pt x="519" y="649" on="1"/>
        <pt x="519" y="543" on="1"/>
        <pt x="423" y="543" on="0"/>
        <pt x="333" y="407" on="0"/>
        <pt x="333" y="285" on="1"/>
        <pt x="333" y="60" on="1"/>
        <pt x="333" y="-109" on="0"/>
        <pt x="202" y="-345" on="0"/>
        <pt x="51" y="-396" on="1"/>
        <pt x="45" y="-395" on="1"/>
      </contour>
    </TTGlyph>
    <TTGlyph name="bracketleft" xMin="146" yMin="-312" xMax="447" yMax="1664">
      <contour>
        <pt x="447" y="1558" on="1"/>
        <pt x="269" y="1558" on="1"/>
        <pt x="269" y="-206" on="1"/>
        <pt x="447" y="-206" on="1"/>
        <pt x="447" y="-312" on="1"/>
        <pt x="146" y="-312" on="1"/>
        <pt x="146" y="1664" on="1"/>
        <pt x="447" y="1664" on="1"/>
      </contour>
    </TTGlyph>
    <TTGlyph name="bracketright" xMin="12" yMin="-312" xMax="313" yMax="1664">
      <contour>
        <pt x="12" y="1664" on="1"/>
        <pt x="313" y="1664" on="1"/>
        <pt x="313" y="-312" on="1"/>
        <pt x="12" y="-312" on="1"/>
        <pt x="12" y="-206" on="1"/>
        <pt x="190" y="-206" on="1"/>
        <pt x="190" y="1558" on="1"/>
        <pt x="12" y="1558" on="1"/>
      </contour>
    </TTGlyph>
    <TTGlyph name="breve" xMin="128" yMin="1197" xMax="635" yMax="1456">
      <contour>
        <pt x="629" y="1456" on="1"/>
        <pt x="632" y="1450" on="1"/>
        <pt x="635" y="1338" on="0"/>
        <pt x="499" y="1197" on="0"/>
        <pt x="382" y="1197" on="1"/>
        <pt x="264" y="1197" on="0"/>
        <pt x="128" y="1338" on="0"/>
        <pt x="132" y="1450" on="1"/>
        <pt x="135" y="1456" on="1"/>
        <pt x="229" y="1456" on="1"/>
        <pt x="229" y="1379" on="0"/>
        <pt x="302" y="1285" on="0"/>
        <pt x="382" y="1285" on="1"/>
        <pt x="458" y="1285" on="0"/>
        <pt x="533" y="1381" on="0"/>
        <pt x="533" y="1456" on="1"/>
      </contour>
    </TTGlyph>
    <TTGlyph name="breveacutecomb" xMin="122" yMin="1247" xMax="610" yMax="1656">
      <contour>
        <pt x="603" y="1456" on="1"/>
        <pt x="605" y="1450" on="1"/>
        <pt x="610" y="1361" on="0"/>
        <pt x="479" y="1247" on="0"/>
        <pt x="367" y="1247" on="1"/>
        <pt x="253" y="1247" on="0"/>
        <pt x="122" y="1361" on="0"/>
        <pt x="128" y="1450" on="1"/>
        <pt x="130" y="1456" on="1"/>
        <pt x="222" y="1456" on="1"/>
        <pt x="222" y="1394" on="0"/>
        <pt x="291" y="1317" on="0"/>
        <pt x="367" y="1317" on="1"/>
        <pt x="439" y="1317" on="0"/>
        <pt x="510" y="1395" on="0"/>
        <pt x="510" y="1456" on="1"/>
      </contour>
      <contour>
        <pt x="423" y="1656" on="1"/>
        <pt x="528" y="1656" on="1"/>
        <pt x="390" y="1450" on="1"/>
        <pt x="317" y="1450" on="1"/>
      </contour>
    </TTGlyph>
    <TTGlyph name="brevegravecomb" xMin="122" yMin="1247" xMax="610" yMax="1656">
      <contour>
        <pt x="603" y="1456" on="1"/>
        <pt x="605" y="1450" on="1"/>
        <pt x="610" y="1361" on="0"/>
        <pt x="479" y="1247" on="0"/>
        <pt x="367" y="1247" on="1"/>
        <pt x="253" y="1247" on="0"/>
        <pt x="122" y="1361" on="0"/>
        <pt x="128" y="1450" on="1"/>
        <pt x="130" y="1456" on="1"/>
        <pt x="222" y="1456" on="1"/>
        <pt x="222" y="1394" on="0"/>
        <pt x="291" y="1317" on="0"/>
        <pt x="367" y="1317" on="1"/>
        <pt x="439" y="1317" on="0"/>
        <pt x="510" y="1395" on="0"/>
        <pt x="510" y="1456" on="1"/>
      </contour>
      <contour>
        <pt x="418" y="1450" on="1"/>
        <pt x="345" y="1450" on="1"/>
        <pt x="207" y="1656" on="1"/>
        <pt x="312" y="1656" on="1"/>
      </contour>
    </TTGlyph>
    <TTGlyph name="brevehookcomb" xMin="113" yMin="1247" xMax="601" yMax="1800">
      <contour>
        <pt x="326" y="1475" on="1"/>
        <pt x="326" y="1583" on="1"/>
        <pt x="393" y="1587" on="0"/>
        <pt x="452" y="1621" on="0"/>
        <pt x="452" y="1660" on="1"/>
        <pt x="452" y="1700" on="0"/>
        <pt x="367" y="1737" on="0"/>
        <pt x="303" y="1737" on="1"/>
        <pt x="308" y="1800" on="1"/>
        <pt x="419" y="1800" on="0"/>
        <pt x="546" y="1724" on="0"/>
        <pt x="546" y="1659" on="1"/>
        <pt x="546" y="1599" on="0"/>
        <pt x="470" y="1536" on="0"/>
        <pt x="412" y="1530" on="1"/>
        <pt x="411" y="1475" on="1"/>
      </contour>
      <contour>
        <pt x="594" y="1456" on="1"/>
        <pt x="596" y="1450" on="1"/>
        <pt x="601" y="1361" on="0"/>
        <pt x="470" y="1247" on="0"/>
        <pt x="358" y="1247" on="1"/>
        <pt x="244" y="1247" on="0"/>
        <pt x="113" y="1361" on="0"/>
        <pt x="119" y="1450" on="1"/>
        <pt x="121" y="1456" on="1"/>
        <pt x="213" y="1456" on="1"/>
        <pt x="213" y="1394" on="0"/>
        <pt x="282" y="1317" on="0"/>
        <pt x="358" y="1317" on="1"/>
        <pt x="430" y="1317" on="0"/>
        <pt x="501" y="1395" on="0"/>
        <pt x="501" y="1456" on="1"/>
      </contour>
    </TTGlyph>
    <TTGlyph name="brevetildecomb" xMin="122" yMin="1247" xMax="610" yMax="1731">
      <contour>
        <pt x="601" y="1714" on="1"/>
        <pt x="601" y="1640" on="0"/>
        <pt x="524" y="1542" on="0"/>
        <pt x="466" y="1542" on="1"/>
        <pt x="416" y="1542" on="0"/>
        <pt x="308" y="1634" on="0"/>
        <pt x="272" y="1634" on="1"/>
        <pt x="241" y="1634" on="0"/>
        <pt x="198" y="1576" on="0"/>
        <pt x="198" y="1531" on="1"/>
        <pt x="138" y="1546" on="1"/>
        <pt x="138" y="1618" on="0"/>
        <pt x="214" y="1718" on="0"/>
        <pt x="272" y="1718" on="1"/>
        <pt x="315" y="1718" on="0"/>
        <pt x="429" y="1624" on="0"/>
        <pt x="466" y="1624" on="1"/>
        <pt x="496" y="1624" on="0"/>
        <pt x="540" y="1684" on="0"/>
        <pt x="540" y="1731" on="1"/>
      </contour>
      <contour>
        <pt x="603" y="1456" on="1"/>
        <pt x="605" y="1450" on="1"/>
        <pt x="610" y="1361" on="0"/>
        <pt x="479" y="1247" on="0"/>
        <pt x="367" y="1247" on="1"/>
        <pt x="253" y="1247" on="0"/>
        <pt x="122" y="1361" on="0"/>
        <pt x="128" y="1450" on="1"/>
        <pt x="130" y="1456" on="1"/>
        <pt x="222" y="1456" on="1"/>
        <pt x="222" y="1394" on="0"/>
        <pt x="291" y="1317" on="0"/>
        <pt x="367" y="1317" on="1"/>
        <pt x="439" y="1317" on="0"/>
        <pt x="510" y="1395" on="0"/>
        <pt x="510" y="1456" on="1"/>
      </contour>
    </TTGlyph>
    <TTGlyph name="brokenbar" xMin="137" yMin="-270" xMax="257" yMax="1456">
      <contour>
        <pt x="137" y="-270" on="1"/>
        <pt x="137" y="502" on="1"/>
        <pt x="257" y="502" on="1"/>
        <pt x="257" y="-270" on="1"/>
      </contour>
      <contour>
        <pt x="257" y="698" on="1"/>
        <pt x="137" y="698" on="1"/>
        <pt x="137" y="1456" on="1"/>
        <pt x="257" y="1456" on="1"/>
      </contour>
    </TTGlyph>
    <TTGlyph name="bullet" xMin="134" yMin="540" xMax="468" yMax="962">
      <contour>
        <pt x="134" y="783" on="1"/>
        <pt x="134" y="861" on="0"/>
        <pt x="224" y="962" on="0"/>
        <pt x="300" y="962" on="1"/>
        <pt x="376" y="962" on="0"/>
        <pt x="468" y="861" on="0"/>
        <pt x="468" y="783" on="1"/>
        <pt x="468" y="717" on="1"/>
        <pt x="468" y="638" on="0"/>
        <pt x="377" y="540" on="0"/>
        <pt x="301" y="540" on="1"/>
        <pt x="224" y="540" on="0"/>
        <pt x="134" y="638" on="0"/>
        <pt x="134" y="717" on="1"/>
      </contour>
    </TTGlyph>
    <TTGlyph name="c" xMin="90" yMin="-21" xMax="826" yMax="1102">
      <contour>
        <pt x="478" y="83" on="1"/>
        <pt x="572" y="83" on="0"/>
        <pt x="714" y="218" on="0"/>
        <pt x="714" y="337" on="1"/>
        <pt x="820" y="337" on="1"/>
        <pt x="823" y="331" on="1"/>
        <pt x="826" y="181" on="0"/>
        <pt x="618" y="-21" on="0"/>
        <pt x="478" y="-21" on="1"/>
        <pt x="291" y="-21" on="0"/>
        <pt x="90" y="246" on="0"/>
        <pt x="90" y="456" on="1"/>
        <pt x="90" y="624" on="1"/>
        <pt x="90" y="833" on="0"/>
        <pt x="291" y="1102" on="0"/>
        <pt x="478" y="1102" on="1"/>
        <pt x="629" y="1102" on="0"/>
        <pt x="826" y="891" on="0"/>
        <pt x="823" y="719" on="1"/>
        <pt x="821" y="714" on="1"/>
        <pt x="714" y="714" on="1"/>
        <pt x="714" y="843" on="0"/>
        <pt x="579" y="996" on="0"/>
        <pt x="478" y="996" on="1"/>
        <pt x="338" y="996" on="0"/>
        <pt x="210" y="785" on="0"/>
        <pt x="210" y="624" on="1"/>
        <pt x="210" y="456" on="1"/>
        <pt x="210" y="293" on="0"/>
        <pt x="338" y="83" on="0"/>
      </contour>
    </TTGlyph>
    <TTGlyph name="cacute" xMin="90" yMin="-21" xMax="826" yMax="1501">
      <component glyphName="c" x="0" y="0" flags="0x204"/>
      <component glyphName="acute" x="274" y="23" flags="0x4"/>
    </TTGlyph>
    <TTGlyph name="caron" xMin="123" yMin="1252" xMax="607" yMax="1495">
      <contour>
        <pt x="364" y="1327" on="1"/>
        <pt x="497" y="1495" on="1"/>
        <pt x="607" y="1495" on="1"/>
        <pt x="607" y="1478" on="1"/>
        <pt x="407" y="1252" on="1"/>
        <pt x="321" y="1252" on="1"/>
        <pt x="123" y="1478" on="1"/>
        <pt x="123" y="1495" on="1"/>
        <pt x="232" y="1495" on="1"/>
      </contour>
    </TTGlyph>
    <TTGlyph name="ccaron" xMin="90" yMin="-21" xMax="826" yMax="1524">
      <component glyphName="c" x="0" y="0" flags="0x204"/>
      <component glyphName="caron" x="92" y="29" flags="0x4"/>
    </TTGlyph>
    <TTGlyph name="ccedilla" xMin="90" yMin="-443" xMax="826" yMax="1102">
      <component glyphName="c" x="0" y="0" flags="0x204"/>
      <component glyphName="cedilla" x="280" y="-8" flags="0x4"/>
    </TTGlyph>
    <TTGlyph name="ccircumflex" xMin="90" yMin="-21" xMax="826" yMax="1522">
      <component glyphName="c" x="0" y="0" flags="0x204"/>
      <component glyphName="circumflex" x="75" y="27" flags="0x4"/>
    </TTGlyph>
    <TTGlyph name="cedilla" xMin="96" yMin="-435" xMax="355" yMax="0">
      <contour>
        <pt x="225" y="0" on="1"/>
        <pt x="216" y="-63" on="1"/>
        <pt x="278" y="-72" on="0"/>
        <pt x="355" y="-152" on="0"/>
        <pt x="355" y="-234" on="1"/>
        <pt x="355" y="-326" on="0"/>
        <pt x="223" y="-435" on="0"/>
        <pt x="102" y="-435" on="1"/>
        <pt x="96" y="-355" on="1"/>
        <pt x="165" y="-355" on="0"/>
        <pt x="258" y="-295" on="0"/>
        <pt x="258" y="-236" on="1"/>
        <pt x="258" y="-180" on="0"/>
        <pt x="193" y="-135" on="0"/>
        <pt x="111" y="-127" on="1"/>
        <pt x="135" y="0" on="1"/>
      </contour>
    </TTGlyph>
    <TTGlyph name="cent" xMin="107" yMin="-245" xMax="845" yMax="1318">
      <contour>
        <pt x="495" y="83" on="1"/>
        <pt x="589" y="83" on="0"/>
        <pt x="731" y="218" on="0"/>
        <pt x="731" y="337" on="1"/>
        <pt x="838" y="337" on="1"/>
        <pt x="840" y="332" on="1"/>
        <pt x="843" y="197" on="0"/>
        <pt x="672" y="3" on="0"/>
        <pt x="548" y="-16" on="1"/>
        <pt x="548" y="-245" on="1"/>
        <pt x="427" y="-245" on="1"/>
        <pt x="427" y="-16" on="1"/>
        <pt x="272" y="8" on="0"/>
        <pt x="107" y="267" on="0"/>
        <pt x="107" y="456" on="1"/>
        <pt x="107" y="624" on="1"/>
        <pt x="107" y="812" on="0"/>
        <pt x="272" y="1072" on="0"/>
        <pt x="427" y="1097" on="1"/>
        <pt x="427" y="1318" on="1"/>
        <pt x="548" y="1318" on="1"/>
        <pt x="548" y="1098" on="1"/>
        <pt x="679" y="1079" on="0"/>
        <pt x="845" y="873" on="0"/>
        <pt x="845" y="714" on="1"/>
        <pt x="731" y="714" on="1"/>
        <pt x="731" y="843" on="0"/>
        <pt x="596" y="996" on="0"/>
        <pt x="495" y="996" on="1"/>
        <pt x="355" y="996" on="0"/>
        <pt x="227" y="785" on="0"/>
        <pt x="227" y="624" on="1"/>
        <pt x="227" y="456" on="1"/>
        <pt x="227" y="293" on="0"/>
        <pt x="355" y="83" on="0"/>
      </contour>
    </TTGlyph>
    <TTGlyph name="chi" xMin="70" yMin="-427" xMax="907" yMax="1093">
      <contour>
        <pt x="149" y="1093" on="1"/>
        <pt x="246" y="1093" on="0"/>
        <pt x="355" y="945" on="0"/>
        <pt x="394" y="838" on="1"/>
        <pt x="499" y="540" on="1"/>
        <pt x="505" y="540" on="1"/>
        <pt x="735" y="1082" on="1"/>
        <pt x="860" y="1082" on="1"/>
        <pt x="560" y="369" on="1"/>
        <pt x="735" y="-126" on="1"/>
        <pt x="772" y="-225" on="0"/>
        <pt x="822" y="-314" on="0"/>
        <pt x="860" y="-314" on="1"/>
        <pt x="872" y="-314" on="0"/>
        <pt x="893" y="-311" on="0"/>
        <pt x="906" y="-309" on="1"/>
        <pt x="907" y="-415" on="1"/>
        <pt x="897" y="-420" on="0"/>
        <pt x="863" y="-427" on="0"/>
        <pt x="852" y="-427" on="1"/>
        <pt x="768" y="-427" on="0"/>
        <pt x="669" y="-304" on="0"/>
        <pt x="621" y="-163" on="1"/>
        <pt x="494" y="197" on="1"/>
        <pt x="488" y="197" on="1"/>
        <pt x="230" y="-414" on="1"/>
        <pt x="102" y="-414" on="1"/>
        <pt x="433" y="368" on="1"/>
        <pt x="282" y="795" on="1"/>
        <pt x="248" y="890" on="0"/>
        <pt x="183" y="985" on="0"/>
        <pt x="130" y="985" on="1"/>
        <pt x="121" y="985" on="0"/>
        <pt x="85" y="980" on="0"/>
        <pt x="73" y="979" on="1"/>
        <pt x="70" y="1081" on="1"/>
        <pt x="83" y="1085" on="0"/>
        <pt x="131" y="1093" on="0"/>
      </contour>
    </TTGlyph>
    <TTGlyph name="circumflex" xMin="145" yMin="1252" xMax="621" yMax="1495">
      <contour>
        <pt x="621" y="1271" on="1"/>
        <pt x="621" y="1252" on="1"/>
        <pt x="514" y="1252" on="1"/>
        <pt x="381" y="1418" on="1"/>
        <pt x="249" y="1252" on="1"/>
        <pt x="145" y="1252" on="1"/>
        <pt x="145" y="1273" on="1"/>
        <pt x="338" y="1495" on="1"/>
        <pt x="425" y="1495" on="1"/>
      </contour>
    </TTGlyph>
    <TTGlyph name="circumflexacutecomb" xMin="97" yMin="1252" xMax="858" yMax="1635">
      <contour>
        <pt x="724" y="1635" on="1"/>
        <pt x="858" y="1635" on="1"/>
        <pt x="701" y="1403" on="1"/>
        <pt x="604" y="1403" on="1"/>
      </contour>
      <contour>
        <pt x="655" y="1258" on="1"/>
        <pt x="652" y="1252" on="1"/>
        <pt x="525" y="1252" on="1"/>
        <pt x="376" y="1423" on="1"/>
        <pt x="226" y="1252" on="1"/>
        <pt x="100" y="1252" on="1"/>
        <pt x="97" y="1258" on="1"/>
        <pt x="322" y="1495" on="1"/>
        <pt x="430" y="1495" on="1"/>
      </contour>
    </TTGlyph>
    <TTGlyph name="circumflexgravecomb" xMin="-99" yMin="1252" xMax="661" yMax="1635">
      <contour>
        <pt x="661" y="1258" on="1"/>
        <pt x="658" y="1252" on="1"/>
        <pt x="531" y="1252" on="1"/>
        <pt x="382" y="1423" on="1"/>
        <pt x="232" y="1252" on="1"/>
        <pt x="106" y="1252" on="1"/>
        <pt x="103" y="1258" on="1"/>
        <pt x="328" y="1495" on="1"/>
        <pt x="436" y="1495" on="1"/>
      </contour>
      <contour>
        <pt x="153" y="1403" on="1"/>
        <pt x="57" y="1403" on="1"/>
        <pt x="-99" y="1635" on="1"/>
        <pt x="32" y="1635" on="1"/>
      </contour>
    </TTGlyph>
    <TTGlyph name="circumflexhookcomb" xMin="103" yMin="1252" xMax="844" yMax="1714">
      <contour>
        <pt x="648" y="1378" on="1"/>
        <pt x="647" y="1492" on="1"/>
        <pt x="707" y="1496" on="0"/>
        <pt x="756" y="1525" on="0"/>
        <pt x="756" y="1563" on="1"/>
        <pt x="756" y="1603" on="0"/>
        <pt x="685" y="1639" on="0"/>
        <pt x="628" y="1639" on="1"/>
        <pt x="632" y="1714" on="1"/>
        <pt x="731" y="1714" on="0"/>
        <pt x="844" y="1634" on="0"/>
        <pt x="844" y="1566" on="1"/>
        <pt x="844" y="1503" on="0"/>
        <pt x="778" y="1438" on="0"/>
        <pt x="726" y="1431" on="1"/>
        <pt x="725" y="1378" on="1"/>
      </contour>
      <contour>
        <pt x="661" y="1258" on="1"/>
        <pt x="658" y="1252" on="1"/>
        <pt x="531" y="1252" on="1"/>
        <pt x="382" y="1423" on="1"/>
        <pt x="232" y="1252" on="1"/>
        <pt x="106" y="1252" on="1"/>
        <pt x="103" y="1258" on="1"/>
        <pt x="328" y="1495" on="1"/>
        <pt x="436" y="1495" on="1"/>
      </contour>
    </TTGlyph>
    <TTGlyph name="circumflextildecomb" xMin="103" yMin="1252" xMax="661" yMax="1730">
      <contour>
        <pt x="598" y="1714" on="1"/>
        <pt x="598" y="1648" on="0"/>
        <pt x="524" y="1556" on="0"/>
        <pt x="472" y="1556" on="1"/>
        <pt x="428" y="1556" on="0"/>
        <pt x="333" y="1644" on="0"/>
        <pt x="300" y="1644" on="1"/>
        <pt x="273" y="1644" on="0"/>
        <pt x="233" y="1582" on="0"/>
        <pt x="233" y="1541" on="1"/>
        <pt x="176" y="1555" on="1"/>
        <pt x="176" y="1620" on="0"/>
        <pt x="249" y="1723" on="0"/>
        <pt x="300" y="1723" on="1"/>
        <pt x="338" y="1723" on="0"/>
        <pt x="440" y="1636" on="0"/>
        <pt x="472" y="1636" on="1"/>
        <pt x="499" y="1636" on="0"/>
        <pt x="540" y="1689" on="0"/>
        <pt x="540" y="1730" on="1"/>
      </contour>
      <contour>
        <pt x="661" y="1258" on="1"/>
        <pt x="658" y="1252" on="1"/>
        <pt x="531" y="1252" on="1"/>
        <pt x="382" y="1423" on="1"/>
        <pt x="232" y="1252" on="1"/>
        <pt x="106" y="1252" on="1"/>
        <pt x="103" y="1258" on="1"/>
        <pt x="328" y="1495" on="1"/>
        <pt x="436" y="1495" on="1"/>
      </contour>
    </TTGlyph>
    <TTGlyph name="colon" xMin="139" yMin="0" xMax="269" yMax="1080">
      <component glyphName="period" x="-7" y="0" flags="0x4"/>
      <component glyphName="period" x="-7" y="914" flags="0x4"/>
    </TTGlyph>
    <TTGlyph name="comma" xMin="69" yMin="-258" xMax="246" yMax="190">
      <contour>
        <pt x="246" y="19" on="1"/>
        <pt x="146" y="-258" on="1"/>
        <pt x="69" y="-258" on="1"/>
        <pt x="125" y="22" on="1"/>
        <pt x="125" y="190" on="1"/>
        <pt x="246" y="190" on="1"/>
      </contour>
    </TTGlyph>
    <TTGlyph name="commaaccent" xMin="114" yMin="-153" xMax="260" yMax="179">
      <contour>
        <pt x="260" y="56" on="1"/>
        <pt x="181" y="-153" on="1"/>
        <pt x="114" y="-153" on="1"/>
        <pt x="161" y="59" on="1"/>
        <pt x="161" y="179" on="1"/>
        <pt x="260" y="179" on="1"/>
      </contour>
    </TTGlyph>
    <TTGlyph name="commaaccentrotate" xMin="137" yMin="1203" xMax="285" yMax="1559">
      <contour>
        <pt x="137" y="1341" on="1"/>
        <pt x="218" y="1559" on="1"/>
        <pt x="285" y="1559" on="1"/>
        <pt x="257" y="1339" on="1"/>
        <pt x="257" y="1203" on="1"/>
        <pt x="137" y="1203" on="1"/>
      </contour>
    </TTGlyph>
    <TTGlyph name="copyright" xMin="97" yMin="-21" xMax="1334" yMax="1476">
      <contour>
        <pt x="978" y="596" on="1"/>
        <pt x="980" y="591" on="1"/>
        <pt x="983" y="440" on="0"/>
        <pt x="837" y="282" on="0"/>
        <pt x="706" y="282" on="1"/>
        <pt x="572" y="282" on="0"/>
        <pt x="412" y="495" on="0"/>
        <pt x="412" y="669" on="1"/>
        <pt x="412" y="788" on="1"/>
        <pt x="412" y="960" on="0"/>
        <pt x="572" y="1175" on="0"/>
        <pt x="706" y="1175" on="1"/>
        <pt x="837" y="1175" on="0"/>
        <pt x="984" y="1016" on="0"/>
        <pt x="981" y="867" on="1"/>
        <pt x="979" y="862" on="1"/>
        <pt x="888" y="862" on="1"/>
        <pt x="888" y="973" on="0"/>
        <pt x="795" y="1082" on="0"/>
        <pt x="706" y="1082" on="1"/>
        <pt x="614" y="1082" on="0"/>
        <pt x="511" y="917" on="0"/>
        <pt x="511" y="789" on="1"/>
        <pt x="511" y="669" on="1"/>
        <pt x="511" y="537" on="0"/>
        <pt x="613" y="374" on="0"/>
        <pt x="706" y="374" on="1"/>
        <pt x="795" y="374" on="0"/>
        <pt x="887" y="481" on="0"/>
        <pt x="887" y="596" on="1"/>
      </contour>
      <contour>
        <pt x="180" y="729" on="1"/>
        <pt x="180" y="451" on="0"/>
        <pt x="494" y="66" on="0"/>
        <pt x="716" y="66" on="1"/>
        <pt x="938" y="66" on="0"/>
        <pt x="1251" y="451" on="0"/>
        <pt x="1251" y="729" on="1"/>
        <pt x="1251" y="1005" on="0"/>
        <pt x="938" y="1387" on="0"/>
        <pt x="716" y="1387" on="1"/>
        <pt x="494" y="1387" on="0"/>
        <pt x="180" y="1004" on="0"/>
      </contour>
      <contour>
        <pt x="97" y="729" on="1"/>
        <pt x="97" y="1044" on="0"/>
        <pt x="458" y="1476" on="0"/>
        <pt x="716" y="1476" on="1"/>
        <pt x="973" y="1476" on="0"/>
        <pt x="1334" y="1044" on="0"/>
        <pt x="1334" y="729" on="1"/>
        <pt x="1334" y="413" on="0"/>
        <pt x="973" y="-21" on="0"/>
        <pt x="716" y="-21" on="1"/>
        <pt x="458" y="-21" on="0"/>
        <pt x="97" y="413" on="0"/>
      </contour>
    </TTGlyph>
    <TTGlyph name="crossbar" xMin="118" yMin="684" xMax="633" yMax="788">
      <contour>
        <pt x="633" y="684" on="1"/>
        <pt x="118" y="684" on="1"/>
        <pt x="118" y="788" on="1"/>
        <pt x="633" y="788" on="1"/>
      </contour>
    </TTGlyph>
    <TTGlyph name="currency" xMin="103" yMin="-27" xMax="1206" yMax="1265">
      <contour>
        <pt x="987" y="126" on="1"/>
        <pt x="918" y="56" on="0"/>
        <pt x="746" y="-20" on="0"/>
        <pt x="652" y="-20" on="1"/>
        <pt x="558" y="-20" on="0"/>
        <pt x="387" y="55" on="0"/>
        <pt x="318" y="125" on="1"/>
        <pt x="190" y="-26" on="1"/>
        <pt x="103" y="62" on="1"/>
        <pt x="241" y="222" on="1"/>
        <pt x="189" y="302" on="0"/>
        <pt x="133" y="499" on="0"/>
        <pt x="133" y="608" on="1"/>
        <pt x="133" y="720" on="0"/>
        <pt x="193" y="923" on="0"/>
        <pt x="248" y="1004" on="1"/>
        <pt x="103" y="1174" on="1"/>
        <pt x="190" y="1264" on="1"/>
        <pt x="329" y="1100" on="1"/>
        <pt x="396" y="1164" on="0"/>
        <pt x="561" y="1234" on="0"/>
        <pt x="652" y="1234" on="1"/>
        <pt x="742" y="1234" on="0"/>
        <pt x="909" y="1163" on="0"/>
        <pt x="976" y="1099" on="1"/>
        <pt x="1118" y="1265" on="1"/>
        <pt x="1206" y="1174" on="1"/>
        <pt x="1058" y="1001" on="1"/>
        <pt x="1111" y="919" on="0"/>
        <pt x="1170" y="719" on="0"/>
        <pt x="1170" y="608" on="1"/>
        <pt x="1170" y="500" on="0"/>
        <pt x="1115" y="305" on="0"/>
        <pt x="1065" y="225" on="1"/>
        <pt x="1206" y="62" on="1"/>
        <pt x="1118" y="-27" on="1"/>
      </contour>
      <contour>
        <pt x="248" y="608" on="1"/>
        <pt x="248" y="395" on="0"/>
        <pt x="485" y="94" on="0"/>
        <pt x="652" y="94" on="1"/>
        <pt x="818" y="94" on="0"/>
        <pt x="1054" y="395" on="0"/>
        <pt x="1054" y="608" on="1"/>
        <pt x="1054" y="819" on="0"/>
        <pt x="818" y="1119" on="0"/>
        <pt x="652" y="1119" on="1"/>
        <pt x="485" y="1119" on="0"/>
        <pt x="248" y="819" on="0"/>
      </contour>
    </TTGlyph>
    <TTGlyph name="cyrillicbreve" xMin="128" yMin="1197" xMax="635" yMax="1456">
      <component glyphName="breve" x="0" y="0" flags="0x204"/>
    </TTGlyph>
    <TTGlyph name="cyrillichook" xMin="-72" yMin="-437" xMax="276" yMax="135">
      <contour>
        <pt x="276" y="135" on="1"/>
        <pt x="276" y="-89" on="1"/>
        <pt x="276" y="-256" on="0"/>
        <pt x="140" y="-437" on="0"/>
        <pt x="19" y="-437" on="1"/>
        <pt x="-5" y="-437" on="0"/>
        <pt x="-47" y="-427" on="0"/>
        <pt x="-72" y="-418" on="1"/>
        <pt x="-61" y="-311" on="1"/>
        <pt x="-48" y="-316" on="0"/>
        <pt x="4" y="-327" on="0"/>
        <pt x="19" y="-327" on="1"/>
        <pt x="84" y="-327" on="0"/>
        <pt x="156" y="-203" on="0"/>
        <pt x="156" y="-89" on="1"/>
        <pt x="156" y="135" on="1"/>
      </contour>
    </TTGlyph>
    <TTGlyph name="cyrillichookleft" xMin="53" yMin="-384" xMax="363" yMax="43">
      <contour>
        <pt x="214" y="43" on="1"/>
        <pt x="285" y="-6" on="0"/>
        <pt x="363" y="-143" on="0"/>
        <pt x="363" y="-213" on="1"/>
        <pt x="363" y="-294" on="0"/>
        <pt x="269" y="-384" on="0"/>
        <pt x="197" y="-384" on="1"/>
        <pt x="149" y="-384" on="0"/>
        <pt x="79" y="-358" on="0"/>
        <pt x="53" y="-340" on="1"/>
        <pt x="74" y="-255" on="1"/>
        <pt x="96" y="-269" on="0"/>
        <pt x="142" y="-287" on="0"/>
        <pt x="171" y="-287" on="1"/>
        <pt x="217" y="-287" on="0"/>
        <pt x="256" y="-232" on="0"/>
        <pt x="256" y="-201" on="1"/>
        <pt x="256" y="-147" on="0"/>
        <pt x="201" y="-57" on="0"/>
        <pt x="150" y="0" on="1"/>
      </contour>
    </TTGlyph>
    <TTGlyph name="cyrillictic" xMin="114" yMin="-355" xMax="235" yMax="126">
      <contour>
        <pt x="235" y="-355" on="1"/>
        <pt x="114" y="-355" on="1"/>
        <pt x="114" y="126" on="1"/>
        <pt x="235" y="126" on="1"/>
      </contour>
    </TTGlyph>
    <TTGlyph name="d" xMin="97" yMin="-21" xMax="830" yMax="1560">
      <contour>
        <pt x="97" y="531" on="1"/>
        <pt x="97" y="791" on="0"/>
        <pt x="279" y="1102" on="0"/>
        <pt x="443" y="1102" on="1"/>
        <pt x="532" y="1102" on="0"/>
        <pt x="665" y="1018" on="0"/>
        <pt x="710" y="941" on="1"/>
        <pt x="710" y="1560" on="1"/>
        <pt x="830" y="1560" on="1"/>
        <pt x="830" y="0" on="1"/>
        <pt x="724" y="0" on="1"/>
        <pt x="714" y="140" on="1"/>
        <pt x="669" y="62" on="0"/>
        <pt x="533" y="-21" on="0"/>
        <pt x="442" y="-21" on="1"/>
        <pt x="280" y="-21" on="0"/>
        <pt x="97" y="268" on="0"/>
        <pt x="97" y="510" on="1"/>
      </contour>
      <contour>
        <pt x="219" y="510" on="1"/>
        <pt x="219" y="315" on="0"/>
        <pt x="342" y="86" on="0"/>
        <pt x="468" y="86" on="1"/>
        <pt x="556" y="86" on="0"/>
        <pt x="675" y="182" on="0"/>
        <pt x="710" y="268" on="1"/>
        <pt x="710" y="798" on="1"/>
        <pt x="677" y="885" on="0"/>
        <pt x="559" y="994" on="0"/>
        <pt x="470" y="994" on="1"/>
        <pt x="343" y="994" on="0"/>
        <pt x="219" y="738" on="0"/>
        <pt x="219" y="531" on="1"/>
      </contour>
    </TTGlyph>
    <TTGlyph name="dagger" xMin="65" yMin="0" xMax="886" yMax="1456">
      <contour>
        <pt x="886" y="974" on="1"/>
        <pt x="537" y="974" on="1"/>
        <pt x="537" y="0" on="1"/>
        <pt x="416" y="0" on="1"/>
        <pt x="416" y="974" on="1"/>
        <pt x="65" y="974" on="1"/>
        <pt x="65" y="1082" on="1"/>
        <pt x="416" y="1082" on="1"/>
        <pt x="416" y="1456" on="1"/>
        <pt x="537" y="1456" on="1"/>
        <pt x="537" y="1082" on="1"/>
        <pt x="886" y="1082" on="1"/>
      </contour>
    </TTGlyph>
    <TTGlyph name="daggerdbl" xMin="80" yMin="-416" xMax="899" yMax="1456">
      <contour>
        <pt x="899" y="0" on="1"/>
        <pt x="543" y="0" on="1"/>
        <pt x="543" y="-416" on="1"/>
        <pt x="423" y="-416" on="1"/>
        <pt x="423" y="0" on="1"/>
        <pt x="80" y="0" on="1"/>
        <pt x="80" y="104" on="1"/>
        <pt x="423" y="104" on="1"/>
        <pt x="423" y="975" on="1"/>
        <pt x="80" y="975" on="1"/>
        <pt x="80" y="1082" on="1"/>
        <pt x="423" y="1082" on="1"/>
        <pt x="423" y="1456" on="1"/>
        <pt x="543" y="1456" on="1"/>
        <pt x="543" y="1082" on="1"/>
        <pt x="899" y="1082" on="1"/>
        <pt x="899" y="975" on="1"/>
        <pt x="543" y="975" on="1"/>
        <pt x="543" y="104" on="1"/>
        <pt x="899" y="104" on="1"/>
      </contour>
    </TTGlyph>
    <TTGlyph name="dasiaoxia" xMin="107" yMin="1135" xMax="564" yMax="1477">
      <contour>
        <pt x="329" y="1164" on="1"/>
        <pt x="415" y="1477" on="1"/>
        <pt x="564" y="1477" on="1"/>
        <pt x="564" y="1456" on="1"/>
        <pt x="385" y="1137" on="1"/>
        <pt x="329" y="1137" on="1"/>
      </contour>
      <contour>
        <pt x="107" y="1278" on="1"/>
        <pt x="224" y="1476" on="1"/>
        <pt x="304" y="1476" on="1"/>
        <pt x="236" y="1272" on="1"/>
        <pt x="236" y="1135" on="1"/>
        <pt x="107" y="1135" on="1"/>
      </contour>
    </TTGlyph>
    <TTGlyph name="dcaron" xMin="97" yMin="-21" xMax="1066" yMax="1560">
      <component glyphName="d" x="0" y="0" flags="0x4"/>
      <component glyphName="commaaccent" x="806" y="1380" flags="0x4"/>
    </TTGlyph>
    <TTGlyph name="dcroat" xMin="97" yMin="-21" xMax="981" yMax="1560">
      <contour>
        <pt x="981" y="1256" on="1"/>
        <pt x="830" y="1256" on="1"/>
        <pt x="830" y="0" on="1"/>
        <pt x="724" y="0" on="1"/>
        <pt x="714" y="140" on="1"/>
        <pt x="669" y="62" on="0"/>
        <pt x="533" y="-21" on="0"/>
        <pt x="442" y="-21" on="1"/>
        <pt x="280" y="-21" on="0"/>
        <pt x="97" y="268" on="0"/>
        <pt x="97" y="510" on="1"/>
        <pt x="97" y="531" on="1"/>
        <pt x="97" y="791" on="0"/>
        <pt x="279" y="1102" on="0"/>
        <pt x="443" y="1102" on="1"/>
        <pt x="532" y="1102" on="0"/>
        <pt x="665" y="1018" on="0"/>
        <pt x="710" y="941" on="1"/>
        <pt x="710" y="1256" on="1"/>
        <pt x="466" y="1256" on="1"/>
        <pt x="466" y="1360" on="1"/>
        <pt x="710" y="1360" on="1"/>
        <pt x="710" y="1560" on="1"/>
        <pt x="830" y="1560" on="1"/>
        <pt x="830" y="1360" on="1"/>
        <pt x="981" y="1360" on="1"/>
      </contour>
      <contour>
        <pt x="219" y="510" on="1"/>
        <pt x="219" y="315" on="0"/>
        <pt x="342" y="86" on="0"/>
        <pt x="468" y="86" on="1"/>
        <pt x="556" y="86" on="0"/>
        <pt x="675" y="182" on="0"/>
        <pt x="710" y="268" on="1"/>
        <pt x="710" y="798" on="1"/>
        <pt x="677" y="885" on="0"/>
        <pt x="559" y="994" on="0"/>
        <pt x="470" y="994" on="1"/>
        <pt x="343" y="994" on="0"/>
        <pt x="219" y="738" on="0"/>
        <pt x="219" y="531" on="1"/>
      </contour>
    </TTGlyph>
    <TTGlyph name="degree" xMin="130" yMin="978" xMax="560" yMax="1477">
      <contour>
        <pt x="130" y="1226" on="1"/>
        <pt x="130" y="1328" on="0"/>
        <pt x="257" y="1477" on="0"/>
        <pt x="347" y="1477" on="1"/>
        <pt x="434" y="1477" on="0"/>
        <pt x="560" y="1328" on="0"/>
        <pt x="560" y="1226" on="1"/>
        <pt x="560" y="1122" on="0"/>
        <pt x="434" y="978" on="0"/>
        <pt x="347" y="978" on="1"/>
        <pt x="257" y="978" on="0"/>
        <pt x="130" y="1122" on="0"/>
      </contour>
      <contour>
        <pt x="218" y="1226" on="1"/>
        <pt x="218" y="1159" on="0"/>
        <pt x="292" y="1072" on="0"/>
        <pt x="347" y="1072" on="1"/>
        <pt x="400" y="1072" on="0"/>
        <pt x="471" y="1159" on="0"/>
        <pt x="471" y="1226" on="1"/>
        <pt x="471" y="1293" on="0"/>
        <pt x="400" y="1383" on="0"/>
        <pt x="347" y="1383" on="1"/>
        <pt x="292" y="1383" on="0"/>
        <pt x="218" y="1293" on="0"/>
      </contour>
    </TTGlyph>
    <TTGlyph name="delta" xMin="86" yMin="-21" xMax="883" yMax="1456">
      <contour>
        <pt x="794" y="1456" on="1"/>
        <pt x="794" y="1353" on="1"/>
        <pt x="370" y="1353" on="1"/>
        <pt x="607" y="1172" on="0"/>
        <pt x="883" y="770" on="0"/>
        <pt x="883" y="556" on="1"/>
        <pt x="883" y="524" on="1"/>
        <pt x="883" y="283" on="0"/>
        <pt x="667" y="-21" on="0"/>
        <pt x="485" y="-21" on="1"/>
        <pt x="302" y="-21" on="0"/>
        <pt x="86" y="283" on="0"/>
        <pt x="86" y="524" on="1"/>
        <pt x="86" y="556" on="1"/>
        <pt x="86" y="777" on="0"/>
        <pt x="287" y="1070" on="0"/>
        <pt x="458" y="1084" on="1"/>
        <pt x="468" y="1084" on="0"/>
        <pt x="491" y="1080" on="0"/>
        <pt x="499" y="1076" on="1"/>
        <pt x="502" y="1081" on="1"/>
        <pt x="448" y="1145" on="0"/>
        <pt x="288" y="1289" on="0"/>
        <pt x="197" y="1360" on="1"/>
        <pt x="197" y="1456" on="1"/>
      </contour>
      <contour>
        <pt x="207" y="524" on="1"/>
        <pt x="207" y="335" on="0"/>
        <pt x="351" y="83" on="0"/>
        <pt x="485" y="83" on="1"/>
        <pt x="616" y="83" on="0"/>
        <pt x="762" y="336" on="0"/>
        <pt x="762" y="524" on="1"/>
        <pt x="762" y="556" on="1"/>
        <pt x="762" y="700" on="0"/>
        <pt x="651" y="923" on="0"/>
        <pt x="581" y="979" on="1"/>
        <pt x="559" y="986" on="0"/>
        <pt x="504" y="996" on="0"/>
        <pt x="484" y="996" on="1"/>
        <pt x="351" y="996" on="0"/>
        <pt x="207" y="741" on="0"/>
        <pt x="207" y="556" on="1"/>
      </contour>
    </TTGlyph>
    <TTGlyph name="dieresis" xMin="152" yMin="1296" xMax="723" yMax="1456">
      <contour>
        <pt x="723" y="1296" on="1"/>
        <pt x="562" y="1296" on="1"/>
        <pt x="562" y="1456" on="1"/>
        <pt x="723" y="1456" on="1"/>
      </contour>
      <contour>
        <pt x="315" y="1296" on="1"/>
        <pt x="152" y="1296" on="1"/>
        <pt x="152" y="1456" on="1"/>
        <pt x="315" y="1456" on="1"/>
      </contour>
    </TTGlyph>
    <TTGlyph name="dieresistonos" xMin="143" yMin="1301" xMax="699" yMax="1693">
      <contour>
        <pt x="699" y="1301" on="1"/>
        <pt x="557" y="1301" on="1"/>
        <pt x="557" y="1456" on="1"/>
        <pt x="699" y="1456" on="1"/>
      </contour>
      <contour>
        <pt x="286" y="1301" on="1"/>
        <pt x="143" y="1301" on="1"/>
        <pt x="143" y="1456" on="1"/>
        <pt x="286" y="1456" on="1"/>
      </contour>
      <contour>
        <pt x="411" y="1693" on="1"/>
        <pt x="567" y="1693" on="1"/>
        <pt x="465" y="1472" on="1"/>
        <pt x="378" y="1472" on="1"/>
      </contour>
    </TTGlyph>
    <TTGlyph name="divide" xMin="68" yMin="210" xMax="895" yMax="1171">
      <contour>
        <pt x="895" y="641" on="1"/>
        <pt x="68" y="641" on="1"/>
        <pt x="68" y="761" on="1"/>
        <pt x="895" y="761" on="1"/>
      </contour>
      <contour>
        <pt x="552" y="1009" on="1"/>
        <pt x="419" y="1009" on="1"/>
        <pt x="419" y="1171" on="1"/>
        <pt x="552" y="1171" on="1"/>
      </contour>
      <contour>
        <pt x="552" y="210" on="1"/>
        <pt x="419" y="210" on="1"/>
        <pt x="419" y="373" on="1"/>
        <pt x="552" y="373" on="1"/>
      </contour>
    </TTGlyph>
    <TTGlyph name="dollar" xMin="103" yMin="-208" xMax="861" yMax="1677">
      <contour>
        <pt x="742" y="359" on="1"/>
        <pt x="742" y="469" on="0"/>
        <pt x="628" y="608" on="0"/>
        <pt x="485" y="672" on="1"/>
        <pt x="313" y="738" on="0"/>
        <pt x="147" y="924" on="0"/>
        <pt x="147" y="1093" on="1"/>
        <pt x="147" y="1253" on="0"/>
        <pt x="310" y="1457" on="0"/>
        <pt x="450" y="1474" on="1"/>
        <pt x="450" y="1677" on="1"/>
        <pt x="551" y="1677" on="1"/>
        <pt x="551" y="1474" on="1"/>
        <pt x="694" y="1455" on="0"/>
        <pt x="852" y="1224" on="0"/>
        <pt x="852" y="1026" on="1"/>
        <pt x="732" y="1026" on="1"/>
        <pt x="732" y="1177" on="0"/>
        <pt x="609" y="1367" on="0"/>
        <pt x="499" y="1367" on="1"/>
        <pt x="385" y="1367" on="0"/>
        <pt x="267" y="1213" on="0"/>
        <pt x="267" y="1096" on="1"/>
        <pt x="267" y="983" on="0"/>
        <pt x="376" y="845" on="0"/>
        <pt x="527" y="781" on="1"/>
        <pt x="698" y="713" on="0"/>
        <pt x="861" y="529" on="0"/>
        <pt x="861" y="361" on="1"/>
        <pt x="861" y="197" on="0"/>
        <pt x="691" y="-2" on="0"/>
        <pt x="544" y="-18" on="1"/>
        <pt x="544" y="-208" on="1"/>
        <pt x="444" y="-208" on="1"/>
        <pt x="444" y="-19" on="1"/>
        <pt x="296" y="-5" on="0"/>
        <pt x="103" y="206" on="0"/>
        <pt x="103" y="419" on="1"/>
        <pt x="222" y="419" on="1"/>
        <pt x="222" y="242" on="0"/>
        <pt x="378" y="87" on="0"/>
        <pt x="488" y="87" on="1"/>
        <pt x="604" y="87" on="0"/>
        <pt x="742" y="242" on="0"/>
      </contour>
    </TTGlyph>
    <TTGlyph name="dotaccent" xMin="140" yMin="1286" xMax="283" yMax="1456">
      <contour>
        <pt x="283" y="1286" on="1"/>
        <pt x="140" y="1286" on="1"/>
        <pt x="140" y="1456" on="1"/>
        <pt x="283" y="1456" on="1"/>
      </contour>
    </TTGlyph>
    <TTGlyph name="dotbelow" xMin="-552" yMin="-316" xMax="-409" yMax="-146">
      <contour>
        <pt x="-409" y="-316" on="1"/>
        <pt x="-552" y="-316" on="1"/>
        <pt x="-552" y="-146" on="1"/>
        <pt x="-409" y="-146" on="1"/>
      </contour>
    </TTGlyph>
    <TTGlyph name="dotlessi" xMin="144" yMin="0" xMax="264" yMax="1082">
      <contour>
        <pt x="264" y="0" on="1"/>
        <pt x="144" y="0" on="1"/>
        <pt x="144" y="1082" on="1"/>
        <pt x="264" y="1082" on="1"/>
      </contour>
    </TTGlyph>
    <TTGlyph name="e" xMin="88" yMin="-21" xMax="826" yMax="1102">
      <contour>
        <pt x="485" y="-21" on="1"/>
        <pt x="310" y="-21" on="0"/>
        <pt x="88" y="242" on="0"/>
        <pt x="88" y="446" on="1"/>
        <pt x="88" y="626" on="1"/>
        <pt x="88" y="831" on="0"/>
        <pt x="311" y="1102" on="0"/>
        <pt x="468" y="1102" on="1"/>
        <pt x="638" y="1102" on="0"/>
        <pt x="826" y="859" on="0"/>
        <pt x="826" y="654" on="1"/>
        <pt x="826" y="535" on="1"/>
        <pt x="207" y="535" on="1"/>
        <pt x="207" y="446" on="1"/>
        <pt x="207" y="290" on="0"/>
        <pt x="357" y="83" on="0"/>
        <pt x="485" y="83" on="1"/>
        <pt x="574" y="83" on="0"/>
        <pt x="703" y="145" on="0"/>
        <pt x="749" y="202" on="1"/>
        <pt x="798" y="117" on="1"/>
        <pt x="749" y="54" on="0"/>
        <pt x="594" y="-21" on="0"/>
      </contour>
      <contour>
        <pt x="468" y="996" on="1"/>
        <pt x="355" y="996" on="0"/>
        <pt x="210" y="790" on="0"/>
        <pt x="207" y="639" on="1"/>
        <pt x="706" y="639" on="1"/>
        <pt x="706" y="685" on="1"/>
        <pt x="706" y="819" on="0"/>
        <pt x="580" y="996" on="0"/>
      </contour>
    </TTGlyph>
    <TTGlyph name="eacute" xMin="88" yMin="-21" xMax="826" yMax="1502">
      <component glyphName="e" x="0" y="0" flags="0x204"/>
      <component glyphName="acute" x="291" y="24" flags="0x4"/>
    </TTGlyph>
    <TTGlyph name="ebreve" xMin="88" yMin="-21" xMax="826" yMax="1534">
      <component glyphName="e" x="0" y="0" flags="0x204"/>
      <component glyphName="breve" x="91" y="78" flags="0x4"/>
    </TTGlyph>
    <TTGlyph name="ecaron" xMin="88" yMin="-21" xMax="826" yMax="1525">
      <component glyphName="e" x="0" y="0" flags="0x204"/>
      <component glyphName="caron" x="109" y="30" flags="0x4"/>
    </TTGlyph>
    <TTGlyph name="ecircumflex" xMin="88" yMin="-21" xMax="826" yMax="1523">
      <component glyphName="e" x="0" y="0" flags="0x204"/>
      <component glyphName="circumflex" x="92" y="28" flags="0x4"/>
    </TTGlyph>
    <TTGlyph name="edieresis" xMin="88" yMin="-21" xMax="826" yMax="1477">
      <component glyphName="e" x="0" y="0" flags="0x204"/>
      <component glyphName="dieresis" x="38" y="21" flags="0x4"/>
    </TTGlyph>
    <TTGlyph name="edotaccent" xMin="88" yMin="-21" xMax="826" yMax="1484">
      <component glyphName="e" x="0" y="0" flags="0x204"/>
      <component glyphName="dotaccent" x="261" y="28" flags="0x4"/>
    </TTGlyph>
    <TTGlyph name="egrave" xMin="88" yMin="-21" xMax="826" yMax="1506">
      <component glyphName="e" x="0" y="0" flags="0x204"/>
      <component glyphName="grave" x="126" y="30" flags="0x4"/>
    </TTGlyph>
    <TTGlyph name="eight" xMin="92" yMin="-21" xMax="871" yMax="1477">
      <contour>
        <pt x="839" y="1081" on="1"/>
        <pt x="839" y="962" on="0"/>
        <pt x="724" y="785" on="0"/>
        <pt x="628" y="746" on="1"/>
        <pt x="738" y="704" on="0"/>
        <pt x="871" y="513" on="0"/>
        <pt x="871" y="386" on="1"/>
        <pt x="871" y="189" on="0"/>
        <pt x="655" y="-21" on="0"/>
        <pt x="483" y="-21" on="1"/>
        <pt x="308" y="-21" on="0"/>
        <pt x="92" y="189" on="0"/>
        <pt x="92" y="386" on="1"/>
        <pt x="92" y="514" on="0"/>
        <pt x="223" y="705" on="0"/>
        <pt x="334" y="746" on="1"/>
        <pt x="237" y="786" on="0"/>
        <pt x="126" y="962" on="0"/>
        <pt x="126" y="1081" on="1"/>
        <pt x="126" y="1269" on="0"/>
        <pt x="323" y="1477" on="0"/>
        <pt x="481" y="1477" on="1"/>
        <pt x="637" y="1477" on="0"/>
        <pt x="839" y="1268" on="0"/>
      </contour>
      <contour>
        <pt x="751" y="386" on="1"/>
        <pt x="751" y="523" on="0"/>
        <pt x="597" y="694" on="0"/>
        <pt x="481" y="694" on="1"/>
        <pt x="363" y="694" on="0"/>
        <pt x="213" y="523" on="0"/>
        <pt x="213" y="386" on="1"/>
        <pt x="213" y="244" on="0"/>
        <pt x="361" y="83" on="0"/>
        <pt x="483" y="83" on="1"/>
        <pt x="600" y="83" on="0"/>
        <pt x="751" y="244" on="0"/>
      </contour>
      <contour>
        <pt x="717" y="1081" on="1"/>
        <pt x="717" y="1207" on="0"/>
        <pt x="582" y="1371" on="0"/>
        <pt x="481" y="1371" on="1"/>
        <pt x="377" y="1371" on="0"/>
        <pt x="247" y="1213" on="0"/>
        <pt x="247" y="1081" on="1"/>
        <pt x="247" y="952" on="0"/>
        <pt x="378" y="799" on="0"/>
        <pt x="483" y="799" on="1"/>
        <pt x="585" y="799" on="0"/>
        <pt x="717" y="953" on="0"/>
      </contour>
    </TTGlyph>
    <TTGlyph name="eight.lnum" xMin="115" yMin="-21" xMax="915" yMax="1477">
      <contour>
        <pt x="882" y="1081" on="1"/>
        <pt x="882" y="962" on="0"/>
        <pt x="763" y="785" on="0"/>
        <pt x="665" y="746" on="1"/>
        <pt x="778" y="704" on="0"/>
        <pt x="915" y="513" on="0"/>
        <pt x="915" y="386" on="1"/>
        <pt x="915" y="190" on="0"/>
        <pt x="692" y="-21" on="0"/>
        <pt x="517" y="-21" on="1"/>
        <pt x="336" y="-21" on="0"/>
        <pt x="115" y="189" on="0"/>
        <pt x="115" y="386" on="1"/>
        <pt x="115" y="514" on="0"/>
        <pt x="249" y="705" on="0"/>
        <pt x="363" y="746" on="1"/>
        <pt x="264" y="786" on="0"/>
        <pt x="149" y="962" on="0"/>
        <pt x="149" y="1081" on="1"/>
        <pt x="149" y="1269" on="0"/>
        <pt x="352" y="1477" on="0"/>
        <pt x="515" y="1477" on="1"/>
        <pt x="675" y="1477" on="0"/>
        <pt x="882" y="1268" on="0"/>
      </contour>
      <contour>
        <pt x="795" y="386" on="1"/>
        <pt x="795" y="522" on="0"/>
        <pt x="634" y="694" on="0"/>
        <pt x="515" y="694" on="1"/>
        <pt x="391" y="694" on="0"/>
        <pt x="235" y="523" on="0"/>
        <pt x="235" y="386" on="1"/>
        <pt x="235" y="244" on="0"/>
        <pt x="390" y="83" on="0"/>
        <pt x="517" y="83" on="1"/>
        <pt x="638" y="83" on="0"/>
        <pt x="795" y="244" on="0"/>
      </contour>
      <contour>
        <pt x="761" y="1081" on="1"/>
        <pt x="761" y="1207" on="0"/>
        <pt x="620" y="1371" on="0"/>
        <pt x="515" y="1371" on="1"/>
        <pt x="405" y="1371" on="0"/>
        <pt x="269" y="1213" on="0"/>
        <pt x="269" y="1081" on="1"/>
        <pt x="269" y="952" on="0"/>
        <pt x="406" y="799" on="0"/>
        <pt x="517" y="799" on="1"/>
        <pt x="623" y="799" on="0"/>
        <pt x="761" y="953" on="0"/>
      </contour>
    </TTGlyph>
    <TTGlyph name="eight.smcp" xMin="95" yMin="-17" xMax="798" yMax="1181">
      <contour>
        <pt x="769" y="867" on="1"/>
        <pt x="769" y="775" on="0"/>
        <pt x="676" y="637" on="0"/>
        <pt x="599" y="603" on="1"/>
        <pt x="689" y="567" on="0"/>
        <pt x="798" y="418" on="0"/>
        <pt x="798" y="319" on="1"/>
        <pt x="798" y="161" on="0"/>
        <pt x="601" y="-17" on="0"/>
        <pt x="454" y="-17" on="1"/>
        <pt x="299" y="-17" on="0"/>
        <pt x="95" y="161" on="0"/>
        <pt x="95" y="319" on="1"/>
        <pt x="95" y="418" on="0"/>
        <pt x="206" y="567" on="0"/>
        <pt x="300" y="603" on="1"/>
        <pt x="218" y="638" on="0"/>
        <pt x="123" y="776" on="0"/>
        <pt x="123" y="867" on="1"/>
        <pt x="123" y="1017" on="0"/>
        <pt x="308" y="1181" on="0"/>
        <pt x="452" y="1181" on="1"/>
        <pt x="588" y="1181" on="0"/>
        <pt x="769" y="1016" on="0"/>
      </contour>
      <contour>
        <pt x="678" y="319" on="1"/>
        <pt x="678" y="421" on="0"/>
        <pt x="546" y="551" on="0"/>
        <pt x="452" y="551" on="1"/>
        <pt x="352" y="551" on="0"/>
        <pt x="216" y="421" on="0"/>
        <pt x="216" y="319" on="1"/>
        <pt x="216" y="213" on="0"/>
        <pt x="352" y="86" on="0"/>
        <pt x="454" y="86" on="1"/>
        <pt x="547" y="86" on="0"/>
        <pt x="678" y="214" on="0"/>
      </contour>
      <contour>
        <pt x="649" y="867" on="1"/>
        <pt x="649" y="958" on="0"/>
        <pt x="533" y="1077" on="0"/>
        <pt x="452" y="1077" on="1"/>
        <pt x="363" y="1077" on="0"/>
        <pt x="244" y="963" on="0"/>
        <pt x="244" y="867" on="1"/>
        <pt x="244" y="772" on="0"/>
        <pt x="364" y="655" on="0"/>
        <pt x="454" y="655" on="1"/>
        <pt x="535" y="655" on="0"/>
        <pt x="649" y="772" on="0"/>
      </contour>
    </TTGlyph>
    <TTGlyph name="eight.sup" xMin="110" yMin="-11" xMax="636" yMax="812">
      <contour>
        <pt x="617" y="594" on="1"/>
        <pt x="617" y="534" on="0"/>
        <pt x="552" y="440" on="0"/>
        <pt x="498" y="414" on="1"/>
        <pt x="560" y="387" on="0"/>
        <pt x="636" y="286" on="0"/>
        <pt x="636" y="221" on="1"/>
        <pt x="636" y="111" on="0"/>
        <pt x="489" y="-11" on="0"/>
        <pt x="379" y="-11" on="1"/>
        <pt x="262" y="-11" on="0"/>
        <pt x="110" y="111" on="0"/>
        <pt x="110" y="221" on="1"/>
        <pt x="110" y="286" on="0"/>
        <pt x="187" y="388" on="0"/>
        <pt x="253" y="415" on="1"/>
        <pt x="196" y="440" on="0"/>
        <pt x="131" y="533" on="0"/>
        <pt x="131" y="594" on="1"/>
        <pt x="131" y="697" on="0"/>
        <pt x="270" y="812" on="0"/>
        <pt x="378" y="812" on="1"/>
        <pt x="480" y="812" on="0"/>
        <pt x="617" y="697" on="0"/>
      </contour>
      <contour>
        <pt x="530" y="223" on="1"/>
        <pt x="530" y="287" on="0"/>
        <pt x="441" y="368" on="0"/>
        <pt x="378" y="368" on="1"/>
        <pt x="309" y="368" on="0"/>
        <pt x="216" y="287" on="0"/>
        <pt x="216" y="223" on="1"/>
        <pt x="216" y="158" on="0"/>
        <pt x="309" y="81" on="0"/>
        <pt x="379" y="81" on="1"/>
        <pt x="442" y="81" on="0"/>
        <pt x="530" y="158" on="0"/>
      </contour>
      <contour>
        <pt x="509" y="592" on="1"/>
        <pt x="509" y="648" on="0"/>
        <pt x="433" y="718" on="0"/>
        <pt x="378" y="718" on="1"/>
        <pt x="317" y="718" on="0"/>
        <pt x="238" y="651" on="0"/>
        <pt x="238" y="592" on="1"/>
        <pt x="238" y="532" on="0"/>
        <pt x="318" y="461" on="0"/>
        <pt x="379" y="461" on="1"/>
        <pt x="433" y="461" on="0"/>
        <pt x="509" y="532" on="0"/>
      </contour>
    </TTGlyph>
    <TTGlyph name="ellipsis" xMin="158" yMin="0" xMax="969" yMax="166">
      <component glyphName="period" x="12" y="0" flags="0x4"/>
      <component glyphName="period" x="361" y="0" flags="0x4"/>
      <component glyphName="period" x="693" y="0" flags="0x4"/>
    </TTGlyph>
    <TTGlyph name="emacron" xMin="88" yMin="-21" xMax="826" yMax="1465">
      <component glyphName="e" x="0" y="0" flags="0x204"/>
      <component glyphName="macron" x="71" y="9" flags="0x4"/>
    </TTGlyph>
    <TTGlyph name="emdash" xMin="169" yMin="684" xMax="1275" yMax="788">
      <component glyphName="minus" x="-66" y="0" scalex="1.59997558594" scaley="1.0" flags="0x4"/>
    </TTGlyph>
    <TTGlyph name="endash" xMin="160" yMin="684" xMax="1058" yMax="788">
      <component glyphName="minus" x="-31" y="0" scalex="1.29998779297" scaley="1.0" flags="0x4"/>
    </TTGlyph>
    <TTGlyph name="eng" xMin="136" yMin="-437" xMax="831" yMax="1102">
      <contour>
        <pt x="243" y="1082" on="1"/>
        <pt x="252" y="910" on="1"/>
        <pt x="296" y="1002" on="0"/>
        <pt x="437" y="1102" on="0"/>
        <pt x="531" y="1102" on="1"/>
        <pt x="676" y="1102" on="0"/>
        <pt x="831" y="887" on="0"/>
        <pt x="831" y="660" on="1"/>
        <pt x="831" y="-89" on="1"/>
        <pt x="831" y="-256" on="0"/>
        <pt x="694" y="-437" on="0"/>
        <pt x="573" y="-437" on="1"/>
        <pt x="546" y="-437" on="0"/>
        <pt x="498" y="-427" on="0"/>
        <pt x="473" y="-418" on="1"/>
        <pt x="485" y="-311" on="1"/>
        <pt x="498" y="-316" on="0"/>
        <pt x="555" y="-327" on="0"/>
        <pt x="573" y="-327" on="1"/>
        <pt x="638" y="-327" on="0"/>
        <pt x="711" y="-202" on="0"/>
        <pt x="711" y="-89" on="1"/>
        <pt x="711" y="659" on="1"/>
        <pt x="711" y="843" on="0"/>
        <pt x="603" y="994" on="0"/>
        <pt x="499" y="994" on="1"/>
        <pt x="408" y="994" on="0"/>
        <pt x="287" y="888" on="0"/>
        <pt x="256" y="798" on="1"/>
        <pt x="256" y="0" on="1"/>
        <pt x="136" y="0" on="1"/>
        <pt x="136" y="1082" on="1"/>
      </contour>
    </TTGlyph>
    <TTGlyph name="eogonek" xMin="88" yMin="-334" xMax="826" yMax="1102">
      <component glyphName="e" x="0" y="0" flags="0x204"/>
      <component glyphName="ogonek" x="414" y="60" flags="0x4"/>
    </TTGlyph>
    <TTGlyph name="epsilon" xMin="95" yMin="-18" xMax="837" yMax="1099">
      <contour>
        <pt x="95" y="297" on="1"/>
        <pt x="95" y="393" on="0"/>
        <pt x="189" y="524" on="0"/>
        <pt x="280" y="555" on="1"/>
        <pt x="200" y="588" on="0"/>
        <pt x="111" y="715" on="0"/>
        <pt x="111" y="793" on="1"/>
        <pt x="111" y="939" on="0"/>
        <pt x="301" y="1099" on="0"/>
        <pt x="466" y="1099" on="1"/>
        <pt x="616" y="1099" on="0"/>
        <pt x="822" y="930" on="0"/>
        <pt x="818" y="795" on="1"/>
        <pt x="815" y="789" on="1"/>
        <pt x="704" y="789" on="1"/>
        <pt x="704" y="879" on="0"/>
        <pt x="566" y="995" on="0"/>
        <pt x="466" y="995" on="1"/>
        <pt x="349" y="995" on="0"/>
        <pt x="232" y="883" on="0"/>
        <pt x="232" y="795" on="1"/>
        <pt x="232" y="704" on="0"/>
        <pt x="342" y="603" on="0"/>
        <pt x="459" y="603" on="1"/>
        <pt x="619" y="603" on="1"/>
        <pt x="619" y="501" on="1"/>
        <pt x="459" y="501" on="1"/>
        <pt x="338" y="501" on="0"/>
        <pt x="216" y="400" on="0"/>
        <pt x="216" y="295" on="1"/>
        <pt x="216" y="200" on="0"/>
        <pt x="348" y="84" on="0"/>
        <pt x="466" y="84" on="1"/>
        <pt x="577" y="84" on="0"/>
        <pt x="719" y="214" on="0"/>
        <pt x="719" y="310" on="1"/>
        <pt x="830" y="310" on="1"/>
        <pt x="833" y="304" on="1"/>
        <pt x="837" y="148" on="0"/>
        <pt x="617" y="-18" on="0"/>
        <pt x="466" y="-18" on="1"/>
        <pt x="300" y="-18" on="0"/>
        <pt x="95" y="150" on="0"/>
      </contour>
    </TTGlyph>
    <TTGlyph name="epsilontonos" xMin="95" yMin="-18" xMax="837" yMax="1581">
      <component glyphName="epsilon" x="0" y="0" flags="0x204"/>
      <component glyphName="tonos" x="247" y="-37" flags="0x4"/>
    </TTGlyph>
    <TTGlyph name="equal" xMin="134" yMin="421" xMax="825" yMax="941">
      <contour>
        <pt x="825" y="832" on="1"/>
        <pt x="134" y="832" on="1"/>
        <pt x="134" y="941" on="1"/>
        <pt x="825" y="941" on="1"/>
      </contour>
      <contour>
        <pt x="825" y="421" on="1"/>
        <pt x="134" y="421" on="1"/>
        <pt x="134" y="530" on="1"/>
        <pt x="825" y="530" on="1"/>
      </contour>
    </TTGlyph>
    <TTGlyph name="estimated" xMin="134" yMin="-20" xMax="977" yMax="1102">
      <contour>
        <pt x="875" y="94" on="1"/>
        <pt x="802" y="39" on="0"/>
        <pt x="647" y="-20" on="0"/>
        <pt x="568" y="-20" on="1"/>
        <pt x="387" y="-20" on="0"/>
        <pt x="134" y="309" on="0"/>
        <pt x="134" y="541" on="1"/>
        <pt x="134" y="767" on="0"/>
        <pt x="401" y="1102" on="0"/>
        <pt x="568" y="1102" on="1"/>
        <pt x="739" y="1102" on="0"/>
        <pt x="977" y="792" on="0"/>
        <pt x="977" y="561" on="1"/>
        <pt x="977" y="514" on="1"/>
        <pt x="341" y="514" on="1"/>
        <pt x="341" y="186" on="1"/>
        <pt x="386" y="134" on="0"/>
        <pt x="504" y="76" on="0"/>
        <pt x="568" y="76" on="1"/>
        <pt x="646" y="76" on="0"/>
        <pt x="800" y="136" on="0"/>
        <pt x="873" y="198" on="1"/>
      </contour>
      <contour>
        <pt x="568" y="1008" on="1"/>
        <pt x="506" y="1008" on="0"/>
        <pt x="389" y="943" on="0"/>
        <pt x="341" y="886" on="1"/>
        <pt x="341" y="609" on="1"/>
        <pt x="789" y="609" on="1"/>
        <pt x="789" y="895" on="1"/>
        <pt x="744" y="947" on="0"/>
        <pt x="629" y="1008" on="0"/>
      </contour>
    </TTGlyph>
    <TTGlyph name="eta" xMin="136" yMin="-415" xMax="831" yMax="1102">
      <contour>
        <pt x="243" y="1082" on="1"/>
        <pt x="252" y="910" on="1"/>
        <pt x="296" y="1002" on="0"/>
        <pt x="437" y="1102" on="0"/>
        <pt x="531" y="1102" on="1"/>
        <pt x="677" y="1102" on="0"/>
        <pt x="831" y="892" on="0"/>
        <pt x="831" y="660" on="1"/>
        <pt x="831" y="-415" on="1"/>
        <pt x="711" y="-415" on="1"/>
        <pt x="711" y="659" on="1"/>
        <pt x="711" y="844" on="0"/>
        <pt x="602" y="996" on="0"/>
        <pt x="499" y="996" on="1"/>
        <pt x="408" y="996" on="0"/>
        <pt x="287" y="890" on="0"/>
        <pt x="256" y="799" on="1"/>
        <pt x="256" y="0" on="1"/>
        <pt x="136" y="0" on="1"/>
        <pt x="136" y="1082" on="1"/>
      </contour>
    </TTGlyph>
    <TTGlyph name="etatonos" xMin="136" yMin="-415" xMax="831" yMax="1582">
      <component glyphName="eta" x="0" y="0" flags="0x204"/>
      <component glyphName="tonos" x="269" y="-36" flags="0x4"/>
    </TTGlyph>
    <TTGlyph name="eth" xMin="84" yMin="-21" xMax="895" yMax="1517">
      <contour>
        <pt x="696" y="1298" on="1"/>
        <pt x="790" y="1177" on="0"/>
        <pt x="888" y="840" on="0"/>
        <pt x="888" y="623" on="1"/>
        <pt x="888" y="535" on="1"/>
        <pt x="888" y="290" on="0"/>
        <pt x="657" y="-21" on="0"/>
        <pt x="483" y="-21" on="1"/>
        <pt x="308" y="-21" on="0"/>
        <pt x="84" y="253" on="0"/>
        <pt x="84" y="456" on="1"/>
        <pt x="84" y="689" on="0"/>
        <pt x="304" y="965" on="0"/>
        <pt x="483" y="965" on="1"/>
        <pt x="564" y="965" on="0"/>
        <pt x="704" y="892" on="0"/>
        <pt x="747" y="831" on="1"/>
        <pt x="751" y="835" on="1"/>
        <pt x="735" y="959" on="0"/>
        <pt x="657" y="1156" on="0"/>
        <pt x="599" y="1231" on="1"/>
        <pt x="352" y="1061" on="1"/>
        <pt x="303" y="1137" on="1"/>
        <pt x="538" y="1299" on="1"/>
        <pt x="502" y="1332" on="0"/>
        <pt x="421" y="1387" on="0"/>
        <pt x="378" y="1409" on="1"/>
        <pt x="415" y="1517" on="1"/>
        <pt x="477" y="1488" on="0"/>
        <pt x="588" y="1412" on="0"/>
        <pt x="635" y="1366" on="1"/>
        <pt x="845" y="1511" on="1"/>
        <pt x="895" y="1435" on="1"/>
      </contour>
      <contour>
        <pt x="767" y="625" on="1"/>
        <pt x="767" y="634" on="0"/>
        <pt x="766" y="672" on="0"/>
        <pt x="766" y="681" on="1"/>
        <pt x="735" y="755" on="0"/>
        <pt x="591" y="858" on="0"/>
        <pt x="483" y="858" on="1"/>
        <pt x="351" y="858" on="0"/>
        <pt x="205" y="630" on="0"/>
        <pt x="205" y="456" on="1"/>
        <pt x="205" y="308" on="0"/>
        <pt x="357" y="85" on="0"/>
        <pt x="486" y="85" on="1"/>
        <pt x="611" y="85" on="0"/>
        <pt x="767" y="338" on="0"/>
        <pt x="767" y="535" on="1"/>
      </contour>
    </TTGlyph>
    <TTGlyph name="exclam" xMin="144" yMin="0" xMax="277" yMax="1456">
      <contour>
        <pt x="269" y="478" on="1"/>
        <pt x="150" y="478" on="1"/>
        <pt x="150" y="1456" on="1"/>
        <pt x="269" y="1456" on="1"/>
      </contour>
      <contour>
        <pt x="277" y="0" on="1"/>
        <pt x="144" y="0" on="1"/>
        <pt x="144" y="168" on="1"/>
        <pt x="277" y="168" on="1"/>
      </contour>
    </TTGlyph>
    <TTGlyph name="exclamdbl" xMin="144" yMin="0" xMax="698" yMax="1456">
      <component glyphName="exclam" x="0" y="0" flags="0x4"/>
      <component glyphName="exclam" x="421" y="0" flags="0x4"/>
    </TTGlyph>
    <TTGlyph name="exclamdown" xMin="129" yMin="-374" xMax="262" yMax="1082">
      <contour>
        <pt x="255" y="-374" on="1"/>
        <pt x="135" y="-374" on="1"/>
        <pt x="135" y="604" on="1"/>
        <pt x="255" y="604" on="1"/>
      </contour>
      <contour>
        <pt x="262" y="896" on="1"/>
        <pt x="129" y="896" on="1"/>
        <pt x="129" y="1082" on="1"/>
        <pt x="262" y="1082" on="1"/>
      </contour>
    </TTGlyph>
    <TTGlyph name="f" xMin="63" yMin="0" xMax="590" yMax="1581">
      <contour>
        <pt x="209" y="0" on="1"/>
        <pt x="209" y="981" on="1"/>
        <pt x="63" y="981" on="1"/>
        <pt x="63" y="1082" on="1"/>
        <pt x="209" y="1082" on="1"/>
        <pt x="209" y="1238" on="1"/>
        <pt x="209" y="1402" on="0"/>
        <pt x="350" y="1581" on="0"/>
        <pt x="476" y="1581" on="1"/>
        <pt x="504" y="1581" on="0"/>
        <pt x="561" y="1570" on="0"/>
        <pt x="590" y="1561" on="1"/>
        <pt x="575" y="1460" on="1"/>
        <pt x="555" y="1466" on="0"/>
        <pt x="514" y="1473" on="0"/>
        <pt x="489" y="1473" on="1"/>
        <pt x="410" y="1473" on="0"/>
        <pt x="329" y="1351" on="0"/>
        <pt x="329" y="1238" on="1"/>
        <pt x="329" y="1082" on="1"/>
        <pt x="534" y="1082" on="1"/>
        <pt x="534" y="981" on="1"/>
        <pt x="329" y="981" on="1"/>
        <pt x="329" y="0" on="1"/>
      </contour>
    </TTGlyph>
    <TTGlyph name="fi" xMin="43" yMin="0" xMax="793" yMax="1581">
      <contour>
        <pt x="190" y="0" on="1"/>
        <pt x="190" y="981" on="1"/>
        <pt x="43" y="981" on="1"/>
        <pt x="43" y="1082" on="1"/>
        <pt x="190" y="1082" on="1"/>
        <pt x="190" y="1218" on="1"/>
        <pt x="190" y="1391" on="0"/>
        <pt x="354" y="1581" on="0"/>
        <pt x="499" y="1581" on="1"/>
        <pt x="555" y="1581" on="0"/>
        <pt x="669" y="1550" on="0"/>
        <pt x="730" y="1521" on="1"/>
        <pt x="710" y="1416" on="1"/>
        <pt x="664" y="1440" on="0"/>
        <pt x="567" y="1468" on="0"/>
        <pt x="508" y="1468" on="1"/>
        <pt x="407" y="1468" on="0"/>
        <pt x="310" y="1341" on="0"/>
        <pt x="310" y="1218" on="1"/>
        <pt x="310" y="1082" on="1"/>
        <pt x="509" y="1082" on="1"/>
        <pt x="509" y="981" on="1"/>
        <pt x="310" y="981" on="1"/>
        <pt x="310" y="0" on="1"/>
      </contour>
      <contour>
        <pt x="793" y="0" on="1"/>
        <pt x="672" y="0" on="1"/>
        <pt x="672" y="1082" on="1"/>
        <pt x="793" y="1082" on="1"/>
      </contour>
    </TTGlyph>
    <TTGlyph name="five" xMin="144" yMin="-21" xMax="867" yMax="1456">
      <contour>
        <pt x="162" y="659" on="1"/>
        <pt x="230" y="1456" on="1"/>
        <pt x="822" y="1456" on="1"/>
        <pt x="822" y="1341" on="1"/>
        <pt x="332" y="1341" on="1"/>
        <pt x="288" y="828" on="1"/>
        <pt x="332" y="876" on="0"/>
        <pt x="436" y="931" on="0"/>
        <pt x="519" y="934" on="1"/>
        <pt x="677" y="937" on="0"/>
        <pt x="867" y="681" on="0"/>
        <pt x="867" y="464" on="1"/>
        <pt x="867" y="243" on="0"/>
        <pt x="680" y="-21" on="0"/>
        <pt x="495" y="-21" on="1"/>
        <pt x="344" y="-21" on="0"/>
        <pt x="144" y="181" on="0"/>
        <pt x="148" y="378" on="1"/>
        <pt x="150" y="383" on="1"/>
        <pt x="259" y="383" on="1"/>
        <pt x="259" y="237" on="0"/>
        <pt x="388" y="83" on="0"/>
        <pt x="495" y="83" on="1"/>
        <pt x="620" y="83" on="0"/>
        <pt x="747" y="278" on="0"/>
        <pt x="747" y="462" on="1"/>
        <pt x="747" y="624" on="0"/>
        <pt x="618" y="819" on="0"/>
        <pt x="504" y="819" on="1"/>
        <pt x="395" y="819" on="0"/>
        <pt x="285" y="732" on="0"/>
        <pt x="260" y="642" on="1"/>
      </contour>
    </TTGlyph>
</ttFont>
